%TF.GenerationSoftware,KiCad,Pcbnew,10.0.3*%
%TF.CreationDate,2026-05-20T16:15:22-07:00*%
%TF.ProjectId,Data-Gator_v1.6,44617461-2d47-4617-946f-725f76312e36,rev?*%
%TF.SameCoordinates,Original*%
%TF.FileFunction,Soldermask,Bot*%
%TF.FilePolarity,Negative*%
%FSLAX46Y46*%
G04 Gerber Fmt 4.6, Leading zero omitted, Abs format (unit mm)*
G04 Created by KiCad (PCBNEW 10.0.3) date 2026-05-20 16:15:22*
%MOMM*%
%LPD*%
G01*
G04 APERTURE LIST*
G04 Aperture macros list*
%AMRoundRect*
0 Rectangle with rounded corners*
0 $1 Rounding radius*
0 $2 $3 $4 $5 $6 $7 $8 $9 X,Y pos of 4 corners*
0 Add a 4 corners polygon primitive as box body*
4,1,4,$2,$3,$4,$5,$6,$7,$8,$9,$2,$3,0*
0 Add four circle primitives for the rounded corners*
1,1,$1+$1,$2,$3*
1,1,$1+$1,$4,$5*
1,1,$1+$1,$6,$7*
1,1,$1+$1,$8,$9*
0 Add four rect primitives between the rounded corners*
20,1,$1+$1,$2,$3,$4,$5,0*
20,1,$1+$1,$4,$5,$6,$7,0*
20,1,$1+$1,$6,$7,$8,$9,0*
20,1,$1+$1,$8,$9,$2,$3,0*%
G04 Aperture macros list end*
%ADD10C,0.751200*%
%ADD11C,0.010000*%
%ADD12C,3.200000*%
%ADD13R,1.700000X1.700000*%
%ADD14C,1.700000*%
%ADD15O,2.004000X3.804000*%
%ADD16RoundRect,0.102000X0.475000X-0.500000X0.475000X0.500000X-0.475000X0.500000X-0.475000X-0.500000X0*%
%ADD17RoundRect,0.102000X0.750000X-0.400000X0.750000X0.400000X-0.750000X0.400000X-0.750000X-0.400000X0*%
%ADD18RoundRect,0.102000X0.700000X-0.650000X0.700000X0.650000X-0.700000X0.650000X-0.700000X-0.650000X0*%
%ADD19RoundRect,0.102000X0.950000X-0.700000X0.950000X0.700000X-0.950000X0.700000X-0.950000X-0.700000X0*%
%ADD20RoundRect,0.102000X-0.654000X0.654000X-0.654000X-0.654000X0.654000X-0.654000X0.654000X0.654000X0*%
%ADD21C,1.512000*%
G04 APERTURE END LIST*
%TO.C,J6*%
D10*
X181570600Y-121755000D02*
G75*
G02*
X180819400Y-121755000I-375600J0D01*
G01*
X180819400Y-121755000D02*
G75*
G02*
X181570600Y-121755000I375600J0D01*
G01*
D11*
X180443800Y-120006200D02*
X180443800Y-118503800D01*
X181946200Y-118503800D01*
X181946200Y-120006200D01*
X180443800Y-120006200D01*
G36*
X181946200Y-120006200D02*
G01*
X180443800Y-120006200D01*
X180443800Y-118503800D01*
X181946200Y-118503800D01*
X181946200Y-120006200D01*
G37*
%TO.C,J9*%
D10*
X142375600Y-73000000D02*
G75*
G02*
X141624400Y-73000000I-375600J0D01*
G01*
X141624400Y-73000000D02*
G75*
G02*
X142375600Y-73000000I375600J0D01*
G01*
X144875600Y-73000000D02*
G75*
G02*
X144124400Y-73000000I-375600J0D01*
G01*
X144124400Y-73000000D02*
G75*
G02*
X144875600Y-73000000I375600J0D01*
G01*
D11*
X146248800Y-72248800D02*
X147751200Y-72248800D01*
X147751200Y-73751200D01*
X146248800Y-73751200D01*
X146248800Y-72248800D01*
G36*
X147751200Y-73751200D02*
G01*
X146248800Y-73751200D01*
X146248800Y-72248800D01*
X147751200Y-72248800D01*
X147751200Y-73751200D01*
G37*
%TO.C,J5*%
D10*
X173375600Y-73000000D02*
G75*
G02*
X172624400Y-73000000I-375600J0D01*
G01*
X172624400Y-73000000D02*
G75*
G02*
X173375600Y-73000000I375600J0D01*
G01*
X175875600Y-73000000D02*
G75*
G02*
X175124400Y-73000000I-375600J0D01*
G01*
X175124400Y-73000000D02*
G75*
G02*
X175875600Y-73000000I375600J0D01*
G01*
X178375600Y-73000000D02*
G75*
G02*
X177624400Y-73000000I-375600J0D01*
G01*
X177624400Y-73000000D02*
G75*
G02*
X178375600Y-73000000I375600J0D01*
G01*
D11*
X179748800Y-72248800D02*
X181251200Y-72248800D01*
X181251200Y-73751200D01*
X179748800Y-73751200D01*
X179748800Y-72248800D01*
G36*
X181251200Y-73751200D02*
G01*
X179748800Y-73751200D01*
X179748800Y-72248800D01*
X181251200Y-72248800D01*
X181251200Y-73751200D01*
G37*
%TO.C,J8*%
D10*
X142351350Y-63500000D02*
G75*
G02*
X141600150Y-63500000I-375600J0D01*
G01*
X141600150Y-63500000D02*
G75*
G02*
X142351350Y-63500000I375600J0D01*
G01*
X144851350Y-63500000D02*
G75*
G02*
X144100150Y-63500000I-375600J0D01*
G01*
X144100150Y-63500000D02*
G75*
G02*
X144851350Y-63500000I375600J0D01*
G01*
D11*
X146224550Y-62748800D02*
X147726950Y-62748800D01*
X147726950Y-64251200D01*
X146224550Y-64251200D01*
X146224550Y-62748800D01*
G36*
X147726950Y-64251200D02*
G01*
X146224550Y-64251200D01*
X146224550Y-62748800D01*
X147726950Y-62748800D01*
X147726950Y-64251200D01*
G37*
%TO.C,J7*%
D10*
X154601350Y-127500000D02*
G75*
G02*
X153850150Y-127500000I-375600J0D01*
G01*
X153850150Y-127500000D02*
G75*
G02*
X154601350Y-127500000I375600J0D01*
G01*
D11*
X155974550Y-126748800D02*
X157476950Y-126748800D01*
X157476950Y-128251200D01*
X155974550Y-128251200D01*
X155974550Y-126748800D01*
G36*
X157476950Y-128251200D02*
G01*
X155974550Y-128251200D01*
X155974550Y-126748800D01*
X157476950Y-126748800D01*
X157476950Y-128251200D01*
G37*
%TO.C,J3*%
D10*
X157875600Y-73000000D02*
G75*
G02*
X157124400Y-73000000I-375600J0D01*
G01*
X157124400Y-73000000D02*
G75*
G02*
X157875600Y-73000000I375600J0D01*
G01*
X160375600Y-73000000D02*
G75*
G02*
X159624400Y-73000000I-375600J0D01*
G01*
X159624400Y-73000000D02*
G75*
G02*
X160375600Y-73000000I375600J0D01*
G01*
X162875600Y-73000000D02*
G75*
G02*
X162124400Y-73000000I-375600J0D01*
G01*
X162124400Y-73000000D02*
G75*
G02*
X162875600Y-73000000I375600J0D01*
G01*
D11*
X164248800Y-72248800D02*
X165751200Y-72248800D01*
X165751200Y-73751200D01*
X164248800Y-73751200D01*
X164248800Y-72248800D01*
G36*
X165751200Y-73751200D02*
G01*
X164248800Y-73751200D01*
X164248800Y-72248800D01*
X165751200Y-72248800D01*
X165751200Y-73751200D01*
G37*
%TO.C,J4*%
D10*
X157875600Y-63500000D02*
G75*
G02*
X157124400Y-63500000I-375600J0D01*
G01*
X157124400Y-63500000D02*
G75*
G02*
X157875600Y-63500000I375600J0D01*
G01*
X160375600Y-63500000D02*
G75*
G02*
X159624400Y-63500000I-375600J0D01*
G01*
X159624400Y-63500000D02*
G75*
G02*
X160375600Y-63500000I375600J0D01*
G01*
X162875600Y-63500000D02*
G75*
G02*
X162124400Y-63500000I-375600J0D01*
G01*
X162124400Y-63500000D02*
G75*
G02*
X162875600Y-63500000I375600J0D01*
G01*
D11*
X164248800Y-62748800D02*
X165751200Y-62748800D01*
X165751200Y-64251200D01*
X164248800Y-64251200D01*
X164248800Y-62748800D01*
G36*
X165751200Y-64251200D02*
G01*
X164248800Y-64251200D01*
X164248800Y-62748800D01*
X165751200Y-62748800D01*
X165751200Y-64251200D01*
G37*
%TO.C,J13*%
D10*
X181875600Y-106500000D02*
G75*
G02*
X181124400Y-106500000I-375600J0D01*
G01*
X181124400Y-106500000D02*
G75*
G02*
X181875600Y-106500000I375600J0D01*
G01*
X181875600Y-109000000D02*
G75*
G02*
X181124400Y-109000000I-375600J0D01*
G01*
X181124400Y-109000000D02*
G75*
G02*
X181875600Y-109000000I375600J0D01*
G01*
X181875600Y-111500000D02*
G75*
G02*
X181124400Y-111500000I-375600J0D01*
G01*
X181124400Y-111500000D02*
G75*
G02*
X181875600Y-111500000I375600J0D01*
G01*
D11*
X180748800Y-104751200D02*
X180748800Y-103248800D01*
X182251200Y-103248800D01*
X182251200Y-104751200D01*
X180748800Y-104751200D01*
G36*
X182251200Y-104751200D02*
G01*
X180748800Y-104751200D01*
X180748800Y-103248800D01*
X182251200Y-103248800D01*
X182251200Y-104751200D01*
G37*
%TO.C,J2*%
D10*
X173375600Y-63500000D02*
G75*
G02*
X172624400Y-63500000I-375600J0D01*
G01*
X172624400Y-63500000D02*
G75*
G02*
X173375600Y-63500000I375600J0D01*
G01*
X175875600Y-63500000D02*
G75*
G02*
X175124400Y-63500000I-375600J0D01*
G01*
X175124400Y-63500000D02*
G75*
G02*
X175875600Y-63500000I375600J0D01*
G01*
X178375600Y-63500000D02*
G75*
G02*
X177624400Y-63500000I-375600J0D01*
G01*
X177624400Y-63500000D02*
G75*
G02*
X178375600Y-63500000I375600J0D01*
G01*
D11*
X179748800Y-62748800D02*
X181251200Y-62748800D01*
X181251200Y-64251200D01*
X179748800Y-64251200D01*
X179748800Y-62748800D01*
G36*
X181251200Y-64251200D02*
G01*
X179748800Y-64251200D01*
X179748800Y-62748800D01*
X181251200Y-62748800D01*
X181251200Y-64251200D01*
G37*
%TO.C,J10*%
D10*
X129375600Y-73000000D02*
G75*
G02*
X128624400Y-73000000I-375600J0D01*
G01*
X128624400Y-73000000D02*
G75*
G02*
X129375600Y-73000000I375600J0D01*
G01*
X131875600Y-73000000D02*
G75*
G02*
X131124400Y-73000000I-375600J0D01*
G01*
X131124400Y-73000000D02*
G75*
G02*
X131875600Y-73000000I375600J0D01*
G01*
D11*
X133248800Y-72248800D02*
X134751200Y-72248800D01*
X134751200Y-73751200D01*
X133248800Y-73751200D01*
X133248800Y-72248800D01*
G36*
X134751200Y-73751200D02*
G01*
X133248800Y-73751200D01*
X133248800Y-72248800D01*
X134751200Y-72248800D01*
X134751200Y-73751200D01*
G37*
%TO.C,J11*%
D10*
X129351350Y-63500000D02*
G75*
G02*
X128600150Y-63500000I-375600J0D01*
G01*
X128600150Y-63500000D02*
G75*
G02*
X129351350Y-63500000I375600J0D01*
G01*
X131851350Y-63500000D02*
G75*
G02*
X131100150Y-63500000I-375600J0D01*
G01*
X131100150Y-63500000D02*
G75*
G02*
X131851350Y-63500000I375600J0D01*
G01*
D11*
X133224550Y-62748800D02*
X134726950Y-62748800D01*
X134726950Y-64251200D01*
X133224550Y-64251200D01*
X133224550Y-62748800D01*
G36*
X134726950Y-64251200D02*
G01*
X133224550Y-64251200D01*
X133224550Y-62748800D01*
X134726950Y-62748800D01*
X134726950Y-64251200D01*
G37*
%TD*%
D12*
%TO.C,REF\u002A\u002A*%
X186500000Y-86500000D03*
%TD*%
%TO.C,REF\u002A\u002A*%
X171500000Y-136500000D03*
%TD*%
%TO.C,REF\u002A\u002A*%
X116500000Y-136500000D03*
%TD*%
%TO.C,REF\u002A\u002A*%
X186500000Y-136500000D03*
%TD*%
%TO.C,REF\u002A\u002A*%
X103500000Y-86500000D03*
%TD*%
D13*
%TO.C,J14*%
X168500000Y-109120000D03*
D14*
X168500000Y-106580000D03*
X168500000Y-104040000D03*
X168500000Y-101500000D03*
X168500000Y-98960000D03*
X168500000Y-96420000D03*
%TD*%
D12*
%TO.C,REF\u002A\u002A*%
X103500000Y-136500000D03*
%TD*%
D15*
%TO.C,U5*%
X111500000Y-117300000D03*
X114040000Y-117300000D03*
X116580000Y-117300000D03*
X119120000Y-117300000D03*
X121660000Y-117300000D03*
X124200000Y-117300000D03*
X126740000Y-117300000D03*
X129280000Y-117300000D03*
X131820000Y-117300000D03*
X134360000Y-117300000D03*
X136900000Y-117300000D03*
X139440000Y-117300000D03*
X141980000Y-117300000D03*
X144520000Y-117300000D03*
X147060000Y-117300000D03*
X149600000Y-117300000D03*
X152140000Y-117300000D03*
X154680000Y-117300000D03*
X154680000Y-93200000D03*
X152140000Y-93200000D03*
X149600000Y-93200000D03*
X147060000Y-93200000D03*
X144520000Y-93200000D03*
X141980000Y-93200000D03*
X139440000Y-93200000D03*
X136900000Y-93200000D03*
X134360000Y-93200000D03*
X131820000Y-93200000D03*
X129280000Y-93200000D03*
X126740000Y-93200000D03*
X124200000Y-93200000D03*
X121660000Y-93200000D03*
%TD*%
D13*
%TO.C,J15*%
X120200000Y-69500000D03*
D14*
X117660000Y-69500000D03*
X115120000Y-69500000D03*
X112580000Y-69500000D03*
X110040000Y-69500000D03*
X107500000Y-69500000D03*
%TD*%
D16*
%TO.C,J1*%
X120585000Y-109060000D03*
D17*
X109500000Y-103560000D03*
X109900000Y-104660000D03*
X109500000Y-105760000D03*
X109300000Y-106860000D03*
X109500000Y-107960000D03*
X109300000Y-109060000D03*
X109500000Y-110160000D03*
X109500000Y-111260000D03*
D18*
X120360000Y-110450000D03*
X120360000Y-104750000D03*
D19*
X106210000Y-98900000D03*
X107210000Y-112050000D03*
%TD*%
D20*
%TO.C,S1*%
X106500000Y-125790000D03*
D21*
X106500000Y-123250000D03*
X106500000Y-128330000D03*
%TD*%
M02*
