%TF.GenerationSoftware,KiCad,Pcbnew,10.0.3*%
%TF.CreationDate,2026-05-20T16:40:05-07:00*%
%TF.ProjectId,Data-Gator_v1.6,44617461-2d47-4617-946f-725f76312e36,rev?*%
%TF.SameCoordinates,Original*%
%TF.FileFunction,Soldermask,Top*%
%TF.FilePolarity,Negative*%
%FSLAX46Y46*%
G04 Gerber Fmt 4.6, Leading zero omitted, Abs format (unit mm)*
G04 Created by KiCad (PCBNEW 10.0.3) date 2026-05-20 16:40:05*
%MOMM*%
%LPD*%
G01*
G04 APERTURE LIST*
G04 Aperture macros list*
%AMRoundRect*
0 Rectangle with rounded corners*
0 $1 Rounding radius*
0 $2 $3 $4 $5 $6 $7 $8 $9 X,Y pos of 4 corners*
0 Add a 4 corners polygon primitive as box body*
4,1,4,$2,$3,$4,$5,$6,$7,$8,$9,$2,$3,0*
0 Add four circle primitives for the rounded corners*
1,1,$1+$1,$2,$3*
1,1,$1+$1,$4,$5*
1,1,$1+$1,$6,$7*
1,1,$1+$1,$8,$9*
0 Add four rect primitives between the rounded corners*
20,1,$1+$1,$2,$3,$4,$5,0*
20,1,$1+$1,$4,$5,$6,$7,0*
20,1,$1+$1,$6,$7,$8,$9,0*
20,1,$1+$1,$8,$9,$2,$3,0*%
G04 Aperture macros list end*
%ADD10C,0.751200*%
%ADD11C,0.010000*%
%ADD12C,3.200000*%
%ADD13RoundRect,0.225000X-0.225000X-0.250000X0.225000X-0.250000X0.225000X0.250000X-0.225000X0.250000X0*%
%ADD14RoundRect,0.250000X-0.325000X-1.100000X0.325000X-1.100000X0.325000X1.100000X-0.325000X1.100000X0*%
%ADD15R,1.000000X1.500000*%
%ADD16RoundRect,0.060500X0.776500X0.181500X-0.776500X0.181500X-0.776500X-0.181500X0.776500X-0.181500X0*%
%ADD17RoundRect,0.250000X0.250000X-0.275000X0.250000X0.275000X-0.250000X0.275000X-0.250000X-0.275000X0*%
%ADD18RoundRect,0.250000X0.275000X-0.850000X0.275000X0.850000X-0.275000X0.850000X-0.275000X-0.850000X0*%
%ADD19RoundRect,0.200000X-0.275000X0.200000X-0.275000X-0.200000X0.275000X-0.200000X0.275000X0.200000X0*%
%ADD20R,0.500000X1.005599*%
%ADD21RoundRect,0.060500X0.181500X-0.776500X0.181500X0.776500X-0.181500X0.776500X-0.181500X-0.776500X0*%
%ADD22RoundRect,0.200000X0.275000X-0.200000X0.275000X0.200000X-0.275000X0.200000X-0.275000X-0.200000X0*%
%ADD23RoundRect,0.250000X0.625000X-0.375000X0.625000X0.375000X-0.625000X0.375000X-0.625000X-0.375000X0*%
%ADD24RoundRect,0.200000X-0.200000X-0.275000X0.200000X-0.275000X0.200000X0.275000X-0.200000X0.275000X0*%
%ADD25RoundRect,0.250000X-0.250000X-0.750000X0.250000X-0.750000X0.250000X0.750000X-0.250000X0.750000X0*%
%ADD26RoundRect,0.102000X-0.750000X-0.550000X0.750000X-0.550000X0.750000X0.550000X-0.750000X0.550000X0*%
%ADD27RoundRect,0.225000X0.250000X-0.225000X0.250000X0.225000X-0.250000X0.225000X-0.250000X-0.225000X0*%
%ADD28RoundRect,0.225000X-0.250000X0.225000X-0.250000X-0.225000X0.250000X-0.225000X0.250000X0.225000X0*%
%ADD29R,1.700000X1.700000*%
%ADD30C,1.700000*%
%ADD31R,1.500000X1.000000*%
%ADD32O,2.004000X3.804000*%
%ADD33RoundRect,0.200000X0.200000X0.275000X-0.200000X0.275000X-0.200000X-0.275000X0.200000X-0.275000X0*%
%ADD34RoundRect,0.102000X-0.654000X0.654000X-0.654000X-0.654000X0.654000X-0.654000X0.654000X0.654000X0*%
%ADD35C,1.512000*%
G04 APERTURE END LIST*
%TO.C,JP1*%
G36*
X131500000Y-123250000D02*
G01*
X131800000Y-123250000D01*
X131800000Y-124750000D01*
X131500000Y-124750000D01*
X131500000Y-123250000D01*
G37*
%TO.C,J6*%
D10*
X181570600Y-121755000D02*
G75*
G02*
X180819400Y-121755000I-375600J0D01*
G01*
X180819400Y-121755000D02*
G75*
G02*
X181570600Y-121755000I375600J0D01*
G01*
D11*
X180443800Y-120006200D02*
X180443800Y-118503800D01*
X181946200Y-118503800D01*
X181946200Y-120006200D01*
X180443800Y-120006200D01*
G36*
X181946200Y-120006200D02*
G01*
X180443800Y-120006200D01*
X180443800Y-118503800D01*
X181946200Y-118503800D01*
X181946200Y-120006200D01*
G37*
%TO.C,J12*%
G36*
X166003000Y-113590000D02*
G01*
X167883000Y-113590000D01*
X167883000Y-115680000D01*
X166003000Y-115680000D01*
X166003000Y-113590000D01*
G37*
%TO.C,J9*%
D10*
X142375600Y-73000000D02*
G75*
G02*
X141624400Y-73000000I-375600J0D01*
G01*
X141624400Y-73000000D02*
G75*
G02*
X142375600Y-73000000I375600J0D01*
G01*
X144875600Y-73000000D02*
G75*
G02*
X144124400Y-73000000I-375600J0D01*
G01*
X144124400Y-73000000D02*
G75*
G02*
X144875600Y-73000000I375600J0D01*
G01*
D11*
X146248800Y-72248800D02*
X147751200Y-72248800D01*
X147751200Y-73751200D01*
X146248800Y-73751200D01*
X146248800Y-72248800D01*
G36*
X147751200Y-73751200D02*
G01*
X146248800Y-73751200D01*
X146248800Y-72248800D01*
X147751200Y-72248800D01*
X147751200Y-73751200D01*
G37*
%TO.C,J5*%
D10*
X173375600Y-73000000D02*
G75*
G02*
X172624400Y-73000000I-375600J0D01*
G01*
X172624400Y-73000000D02*
G75*
G02*
X173375600Y-73000000I375600J0D01*
G01*
X175875600Y-73000000D02*
G75*
G02*
X175124400Y-73000000I-375600J0D01*
G01*
X175124400Y-73000000D02*
G75*
G02*
X175875600Y-73000000I375600J0D01*
G01*
X178375600Y-73000000D02*
G75*
G02*
X177624400Y-73000000I-375600J0D01*
G01*
X177624400Y-73000000D02*
G75*
G02*
X178375600Y-73000000I375600J0D01*
G01*
D11*
X179748800Y-72248800D02*
X181251200Y-72248800D01*
X181251200Y-73751200D01*
X179748800Y-73751200D01*
X179748800Y-72248800D01*
G36*
X181251200Y-73751200D02*
G01*
X179748800Y-73751200D01*
X179748800Y-72248800D01*
X181251200Y-72248800D01*
X181251200Y-73751200D01*
G37*
%TO.C,J8*%
D10*
X142351350Y-63500000D02*
G75*
G02*
X141600150Y-63500000I-375600J0D01*
G01*
X141600150Y-63500000D02*
G75*
G02*
X142351350Y-63500000I375600J0D01*
G01*
X144851350Y-63500000D02*
G75*
G02*
X144100150Y-63500000I-375600J0D01*
G01*
X144100150Y-63500000D02*
G75*
G02*
X144851350Y-63500000I375600J0D01*
G01*
D11*
X146224550Y-62748800D02*
X147726950Y-62748800D01*
X147726950Y-64251200D01*
X146224550Y-64251200D01*
X146224550Y-62748800D01*
G36*
X147726950Y-64251200D02*
G01*
X146224550Y-64251200D01*
X146224550Y-62748800D01*
X147726950Y-62748800D01*
X147726950Y-64251200D01*
G37*
%TO.C,J7*%
D10*
X154601350Y-127500000D02*
G75*
G02*
X153850150Y-127500000I-375600J0D01*
G01*
X153850150Y-127500000D02*
G75*
G02*
X154601350Y-127500000I375600J0D01*
G01*
D11*
X155974550Y-126748800D02*
X157476950Y-126748800D01*
X157476950Y-128251200D01*
X155974550Y-128251200D01*
X155974550Y-126748800D01*
G36*
X157476950Y-128251200D02*
G01*
X155974550Y-128251200D01*
X155974550Y-126748800D01*
X157476950Y-126748800D01*
X157476950Y-128251200D01*
G37*
%TO.C,J3*%
D10*
X157875600Y-73000000D02*
G75*
G02*
X157124400Y-73000000I-375600J0D01*
G01*
X157124400Y-73000000D02*
G75*
G02*
X157875600Y-73000000I375600J0D01*
G01*
X160375600Y-73000000D02*
G75*
G02*
X159624400Y-73000000I-375600J0D01*
G01*
X159624400Y-73000000D02*
G75*
G02*
X160375600Y-73000000I375600J0D01*
G01*
X162875600Y-73000000D02*
G75*
G02*
X162124400Y-73000000I-375600J0D01*
G01*
X162124400Y-73000000D02*
G75*
G02*
X162875600Y-73000000I375600J0D01*
G01*
D11*
X164248800Y-72248800D02*
X165751200Y-72248800D01*
X165751200Y-73751200D01*
X164248800Y-73751200D01*
X164248800Y-72248800D01*
G36*
X165751200Y-73751200D02*
G01*
X164248800Y-73751200D01*
X164248800Y-72248800D01*
X165751200Y-72248800D01*
X165751200Y-73751200D01*
G37*
%TO.C,J4*%
D10*
X157875600Y-63500000D02*
G75*
G02*
X157124400Y-63500000I-375600J0D01*
G01*
X157124400Y-63500000D02*
G75*
G02*
X157875600Y-63500000I375600J0D01*
G01*
X160375600Y-63500000D02*
G75*
G02*
X159624400Y-63500000I-375600J0D01*
G01*
X159624400Y-63500000D02*
G75*
G02*
X160375600Y-63500000I375600J0D01*
G01*
X162875600Y-63500000D02*
G75*
G02*
X162124400Y-63500000I-375600J0D01*
G01*
X162124400Y-63500000D02*
G75*
G02*
X162875600Y-63500000I375600J0D01*
G01*
D11*
X164248800Y-62748800D02*
X165751200Y-62748800D01*
X165751200Y-64251200D01*
X164248800Y-64251200D01*
X164248800Y-62748800D01*
G36*
X165751200Y-64251200D02*
G01*
X164248800Y-64251200D01*
X164248800Y-62748800D01*
X165751200Y-62748800D01*
X165751200Y-64251200D01*
G37*
%TO.C,J13*%
D10*
X181875600Y-106500000D02*
G75*
G02*
X181124400Y-106500000I-375600J0D01*
G01*
X181124400Y-106500000D02*
G75*
G02*
X181875600Y-106500000I375600J0D01*
G01*
X181875600Y-109000000D02*
G75*
G02*
X181124400Y-109000000I-375600J0D01*
G01*
X181124400Y-109000000D02*
G75*
G02*
X181875600Y-109000000I375600J0D01*
G01*
X181875600Y-111500000D02*
G75*
G02*
X181124400Y-111500000I-375600J0D01*
G01*
X181124400Y-111500000D02*
G75*
G02*
X181875600Y-111500000I375600J0D01*
G01*
D11*
X180748800Y-104751200D02*
X180748800Y-103248800D01*
X182251200Y-103248800D01*
X182251200Y-104751200D01*
X180748800Y-104751200D01*
G36*
X182251200Y-104751200D02*
G01*
X180748800Y-104751200D01*
X180748800Y-103248800D01*
X182251200Y-103248800D01*
X182251200Y-104751200D01*
G37*
%TO.C,J2*%
D10*
X173375600Y-63500000D02*
G75*
G02*
X172624400Y-63500000I-375600J0D01*
G01*
X172624400Y-63500000D02*
G75*
G02*
X173375600Y-63500000I375600J0D01*
G01*
X175875600Y-63500000D02*
G75*
G02*
X175124400Y-63500000I-375600J0D01*
G01*
X175124400Y-63500000D02*
G75*
G02*
X175875600Y-63500000I375600J0D01*
G01*
X178375600Y-63500000D02*
G75*
G02*
X177624400Y-63500000I-375600J0D01*
G01*
X177624400Y-63500000D02*
G75*
G02*
X178375600Y-63500000I375600J0D01*
G01*
D11*
X179748800Y-62748800D02*
X181251200Y-62748800D01*
X181251200Y-64251200D01*
X179748800Y-64251200D01*
X179748800Y-62748800D01*
G36*
X181251200Y-64251200D02*
G01*
X179748800Y-64251200D01*
X179748800Y-62748800D01*
X181251200Y-62748800D01*
X181251200Y-64251200D01*
G37*
%TO.C,JP2*%
G36*
X124750000Y-123500000D02*
G01*
X126250000Y-123500000D01*
X126250000Y-123800000D01*
X124750000Y-123800000D01*
X124750000Y-123500000D01*
G37*
%TO.C,J10*%
D10*
X129375600Y-73000000D02*
G75*
G02*
X128624400Y-73000000I-375600J0D01*
G01*
X128624400Y-73000000D02*
G75*
G02*
X129375600Y-73000000I375600J0D01*
G01*
X131875600Y-73000000D02*
G75*
G02*
X131124400Y-73000000I-375600J0D01*
G01*
X131124400Y-73000000D02*
G75*
G02*
X131875600Y-73000000I375600J0D01*
G01*
D11*
X133248800Y-72248800D02*
X134751200Y-72248800D01*
X134751200Y-73751200D01*
X133248800Y-73751200D01*
X133248800Y-72248800D01*
G36*
X134751200Y-73751200D02*
G01*
X133248800Y-73751200D01*
X133248800Y-72248800D01*
X134751200Y-72248800D01*
X134751200Y-73751200D01*
G37*
%TO.C,J11*%
D10*
X129351350Y-63500000D02*
G75*
G02*
X128600150Y-63500000I-375600J0D01*
G01*
X128600150Y-63500000D02*
G75*
G02*
X129351350Y-63500000I375600J0D01*
G01*
X131851350Y-63500000D02*
G75*
G02*
X131100150Y-63500000I-375600J0D01*
G01*
X131100150Y-63500000D02*
G75*
G02*
X131851350Y-63500000I375600J0D01*
G01*
D11*
X133224550Y-62748800D02*
X134726950Y-62748800D01*
X134726950Y-64251200D01*
X133224550Y-64251200D01*
X133224550Y-62748800D01*
G36*
X134726950Y-64251200D02*
G01*
X133224550Y-64251200D01*
X133224550Y-62748800D01*
X134726950Y-62748800D01*
X134726950Y-64251200D01*
G37*
%TD*%
D12*
%TO.C,REF\u002A\u002A*%
X186500000Y-86500000D03*
%TD*%
D13*
%TO.C,C2*%
X102000000Y-122750000D03*
X103550000Y-122750000D03*
%TD*%
D14*
%TO.C,C3*%
X115572201Y-84452799D03*
X118522201Y-84452799D03*
%TD*%
D15*
%TO.C,JP1*%
X132300000Y-124000000D03*
X131000000Y-124000000D03*
%TD*%
D16*
%TO.C,U3*%
X137150000Y-86000000D03*
X137150000Y-85500000D03*
X137150000Y-85000000D03*
X137150000Y-84500000D03*
X137150000Y-84000000D03*
X132850000Y-84000000D03*
X132850000Y-84500000D03*
X132850000Y-85000000D03*
X132850000Y-85500000D03*
X132850000Y-86000000D03*
%TD*%
D14*
%TO.C,C1*%
X101525000Y-128250000D03*
X104475000Y-128250000D03*
%TD*%
D17*
%TO.C,J12*%
X166943000Y-116215000D03*
D18*
X165468000Y-114690000D03*
X168418000Y-114690000D03*
%TD*%
D19*
%TO.C,R3*%
X110547201Y-76627799D03*
X110547201Y-78277799D03*
%TD*%
D20*
%TO.C,U2*%
X116047201Y-76247201D03*
X115097200Y-76247201D03*
X114147199Y-76247201D03*
X114147199Y-78952799D03*
X116047201Y-78952799D03*
%TD*%
D21*
%TO.C,U4*%
X112500000Y-131000000D03*
X113000000Y-131000000D03*
X113500000Y-131000000D03*
X114000000Y-131000000D03*
X114500000Y-131000000D03*
X114500000Y-126700000D03*
X114000000Y-126700000D03*
X113500000Y-126700000D03*
X113000000Y-126700000D03*
X112500000Y-126700000D03*
%TD*%
D19*
%TO.C,R2*%
X138650000Y-123675000D03*
X138650000Y-125325000D03*
%TD*%
D22*
%TO.C,R14*%
X165000000Y-88825000D03*
X165000000Y-87175000D03*
%TD*%
%TO.C,R15*%
X165000000Y-92325000D03*
X165000000Y-90675000D03*
%TD*%
D23*
%TO.C,D1*%
X130150000Y-129900000D03*
X130150000Y-127100000D03*
%TD*%
D12*
%TO.C,REF\u002A\u002A*%
X171500000Y-136500000D03*
%TD*%
D24*
%TO.C,R9*%
X141175000Y-85000000D03*
X142825000Y-85000000D03*
%TD*%
D25*
%TO.C,J16*%
X162443000Y-117190000D03*
%TD*%
D26*
%TO.C,S2*%
X170050000Y-86960000D03*
X178950000Y-86960000D03*
X170050000Y-89500000D03*
X178950000Y-89500000D03*
X170050000Y-92040000D03*
X178950000Y-92040000D03*
%TD*%
D12*
%TO.C,REF\u002A\u002A*%
X116500000Y-136500000D03*
%TD*%
D22*
%TO.C,R13*%
X165000000Y-85325000D03*
X165000000Y-83675000D03*
%TD*%
D24*
%TO.C,R1*%
X133325000Y-130000000D03*
X134975000Y-130000000D03*
%TD*%
D12*
%TO.C,REF\u002A\u002A*%
X186500000Y-136500000D03*
%TD*%
D24*
%TO.C,R10*%
X142675000Y-82000000D03*
X144325000Y-82000000D03*
%TD*%
D27*
%TO.C,C5*%
X163500000Y-99275000D03*
X163500000Y-97725000D03*
%TD*%
D25*
%TO.C,J17*%
X162443000Y-113190000D03*
%TD*%
D28*
%TO.C,C4*%
X110547201Y-83677799D03*
X110547201Y-85227799D03*
%TD*%
D12*
%TO.C,REF\u002A\u002A*%
X103500000Y-86500000D03*
%TD*%
D28*
%TO.C,C6*%
X109500000Y-129725000D03*
X109500000Y-131275000D03*
%TD*%
D29*
%TO.C,J14*%
X168500000Y-109120000D03*
D30*
X168500000Y-106580000D03*
X168500000Y-104040000D03*
X168500000Y-101500000D03*
X168500000Y-98960000D03*
X168500000Y-96420000D03*
%TD*%
D19*
%TO.C,R4*%
X122000000Y-129675000D03*
X122000000Y-131325000D03*
%TD*%
D31*
%TO.C,JP2*%
X125500000Y-124300000D03*
X125500000Y-123000000D03*
%TD*%
D12*
%TO.C,REF\u002A\u002A*%
X103500000Y-136500000D03*
%TD*%
D24*
%TO.C,R11*%
X142675000Y-79000000D03*
X144325000Y-79000000D03*
%TD*%
%TO.C,R8*%
X141175000Y-88000000D03*
X142825000Y-88000000D03*
%TD*%
D32*
%TO.C,U5*%
X111500000Y-117300000D03*
X114040000Y-117300000D03*
X116580000Y-117300000D03*
X119120000Y-117300000D03*
X121660000Y-117300000D03*
X124200000Y-117300000D03*
X126740000Y-117300000D03*
X129280000Y-117300000D03*
X131820000Y-117300000D03*
X134360000Y-117300000D03*
X136900000Y-117300000D03*
X139440000Y-117300000D03*
X141980000Y-117300000D03*
X144520000Y-117300000D03*
X147060000Y-117300000D03*
X149600000Y-117300000D03*
X152140000Y-117300000D03*
X154680000Y-117300000D03*
X154680000Y-93200000D03*
X152140000Y-93200000D03*
X149600000Y-93200000D03*
X147060000Y-93200000D03*
X144520000Y-93200000D03*
X141980000Y-93200000D03*
X139440000Y-93200000D03*
X136900000Y-93200000D03*
X134360000Y-93200000D03*
X131820000Y-93200000D03*
X129280000Y-93200000D03*
X126740000Y-93200000D03*
X124200000Y-93200000D03*
X121660000Y-93200000D03*
%TD*%
D19*
%TO.C,R12*%
X117500000Y-123027799D03*
X117500000Y-124677799D03*
%TD*%
D20*
%TO.C,U1*%
X111599998Y-124352799D03*
X112549999Y-124352799D03*
X113500000Y-124352799D03*
X113500000Y-121647201D03*
X111599998Y-121647201D03*
%TD*%
D33*
%TO.C,R17*%
X126330000Y-88765000D03*
X124680000Y-88765000D03*
%TD*%
%TO.C,R16*%
X126325000Y-85500000D03*
X124675000Y-85500000D03*
%TD*%
D23*
%TO.C,D2*%
X125500000Y-129900000D03*
X125500000Y-127100000D03*
%TD*%
D24*
%TO.C,R7*%
X154175000Y-80000000D03*
X155825000Y-80000000D03*
%TD*%
D29*
%TO.C,J15*%
X120200000Y-69500000D03*
D30*
X117660000Y-69500000D03*
X115120000Y-69500000D03*
X112580000Y-69500000D03*
X110040000Y-69500000D03*
X107500000Y-69500000D03*
%TD*%
D34*
%TO.C,S1*%
X106500000Y-125790000D03*
D35*
X106500000Y-123250000D03*
X106500000Y-128330000D03*
%TD*%
M02*
