M48
; DRILL file KiCad 10.0.3 date 2026-05-20T16:39:59
; FORMAT={-:-/ absolute / metric / decimal}
; #@! TF.CreationDate,2026-05-20T16:39:59-07:00
; #@! TF.GenerationSoftware,Kicad,Pcbnew,10.0.3
; #@! TF.FileFunction,Plated,1,4,PTH
FMAT,2
METRIC
; #@! TA.AperFunction,Plated,PTH,ViaDrill
T1C0.300
; #@! TA.AperFunction,Plated,PTH,ComponentDrill
T2C0.800
; #@! TA.AperFunction,Plated,PTH,ComponentDrill
T3C1.000
; #@! TA.AperFunction,Plated,PTH,ComponentDrill
T4C1.200
%
G90
G05
T1
X102.0Y-125.25
X105.0Y-76.5
X105.0Y-93.2
X105.0Y-101.0
X105.0Y-106.0
X105.5Y-130.5
X107.5Y-65.0
X107.5Y-109.0
X108.0Y-116.0
X109.547Y-79.953
X110.547Y-74.953
X111.0Y-98.0
X111.5Y-112.0
X111.5Y-125.853
X112.047Y-87.453
X112.5Y-65.0
X113.0Y-128.85
X113.0Y-133.35
X113.0Y-134.85
X114.0Y-93.0
X114.047Y-81.453
X114.5Y-80.0
X115.097Y-74.5
X115.5Y-120.5
X116.0Y-80.0
X116.0Y-98.0
X117.5Y-65.0
X118.5Y-87.0
X121.0Y-98.0
X121.0Y-127.0
X122.0Y-121.5
X122.5Y-133.0
X123.0Y-90.0
X123.5Y-87.0
X125.0Y-106.5
X126.0Y-98.0
X126.5Y-112.0
X129.0Y-114.0
X129.29Y-86.21
X129.5Y-89.0
X130.5Y-83.0
X131.0Y-98.0
X132.0Y-89.0
X133.0Y-103.0
X133.531Y-134.948
X136.5Y-107.0
X137.0Y-130.0
X138.5Y-135.0
X138.785Y-98.425
X139.5Y-84.0
X139.5Y-85.5
X139.5Y-87.0
X140.5Y-130.0
X142.0Y-123.5
X143.5Y-135.0
X145.0Y-86.0
X145.5Y-125.0
X145.5Y-130.0
X147.5Y-85.0
X148.5Y-135.0
X150.0Y-101.5
X153.5Y-135.0
X154.0Y-112.5
X155.0Y-101.5
X158.5Y-135.0
X159.0Y-80.0
X159.0Y-98.425
X159.0Y-112.5
X159.0Y-117.5
X159.5Y-85.0
X160.5Y-120.0
X163.5Y-135.0
X165.0Y-81.5
X165.5Y-120.0
X165.5Y-125.0
X165.5Y-130.0
X166.0Y-100.0
X166.5Y-87.0
X166.5Y-90.5
X166.5Y-93.5
X167.0Y-118.0
X170.0Y-81.5
X170.5Y-120.0
X170.5Y-125.0
X170.5Y-130.0
X172.5Y-93.5
X175.0Y-81.5
X175.0Y-97.5
X175.5Y-130.0
X177.0Y-92.0
X178.0Y-120.5
X180.0Y-81.5
X180.0Y-97.5
X180.5Y-130.0
X185.0Y-92.5
X185.0Y-97.5
X185.5Y-125.0
X185.5Y-130.0
T2
X106.5Y-123.25
X106.5Y-125.79
X106.5Y-128.33
T3
X107.5Y-69.5
X110.04Y-69.5
X112.58Y-69.5
X115.12Y-69.5
X117.66Y-69.5
X120.2Y-69.5
X128.976Y-63.5
X129.0Y-73.0
X131.476Y-63.5
X131.5Y-73.0
X133.976Y-63.5
X134.0Y-73.0
X141.976Y-63.5
X142.0Y-73.0
X144.476Y-63.5
X144.5Y-73.0
X146.976Y-63.5
X147.0Y-73.0
X154.226Y-127.5
X156.726Y-127.5
X157.5Y-63.5
X157.5Y-73.0
X160.0Y-63.5
X160.0Y-73.0
X162.5Y-63.5
X162.5Y-73.0
X165.0Y-63.5
X165.0Y-73.0
X168.5Y-96.42
X168.5Y-98.96
X168.5Y-101.5
X168.5Y-104.04
X168.5Y-106.58
X168.5Y-109.12
X173.0Y-63.5
X173.0Y-73.0
X175.5Y-63.5
X175.5Y-73.0
X178.0Y-63.5
X178.0Y-73.0
X180.5Y-63.5
X180.5Y-73.0
X181.195Y-119.255
X181.195Y-121.755
X181.5Y-104.0
X181.5Y-106.5
X181.5Y-109.0
X181.5Y-111.5
T4
X111.5Y-116.5
X114.04Y-116.5
X116.58Y-116.5
X119.12Y-116.5
X121.66Y-94.0
X121.66Y-116.5
X124.2Y-94.0
X124.2Y-116.5
X126.74Y-94.0
X126.74Y-116.5
X129.28Y-94.0
X129.28Y-116.5
X131.82Y-94.0
X131.82Y-116.5
X134.36Y-94.0
X134.36Y-116.5
X136.9Y-94.0
X136.9Y-116.5
X139.44Y-94.0
X139.44Y-116.5
X141.98Y-94.0
X141.98Y-116.5
X144.52Y-94.0
X144.52Y-116.5
X147.06Y-94.0
X147.06Y-116.5
X149.6Y-94.0
X149.6Y-116.5
X152.14Y-94.0
X152.14Y-116.5
X154.68Y-94.0
X154.68Y-116.5
M30
