%TF.GenerationSoftware,KiCad,Pcbnew,10.0.3*%
%TF.CreationDate,2026-05-20T16:40:05-07:00*%
%TF.ProjectId,Data-Gator_v1.6,44617461-2d47-4617-946f-725f76312e36,rev?*%
%TF.SameCoordinates,Original*%
%TF.FileFunction,Legend,Bot*%
%TF.FilePolarity,Positive*%
%FSLAX46Y46*%
G04 Gerber Fmt 4.6, Leading zero omitted, Abs format (unit mm)*
G04 Created by KiCad (PCBNEW 10.0.3) date 2026-05-20 16:40:05*
%MOMM*%
%LPD*%
G01*
G04 APERTURE LIST*
%ADD10C,0.150000*%
%ADD11C,0.000000*%
%ADD12C,0.200000*%
%ADD13C,0.127000*%
G04 APERTURE END LIST*
D10*
X121954819Y-109166666D02*
X122669104Y-109166666D01*
X122669104Y-109166666D02*
X122811961Y-109119047D01*
X122811961Y-109119047D02*
X122907200Y-109023809D01*
X122907200Y-109023809D02*
X122954819Y-108880952D01*
X122954819Y-108880952D02*
X122954819Y-108785714D01*
X122954819Y-110166666D02*
X122954819Y-109595238D01*
X122954819Y-109880952D02*
X121954819Y-109880952D01*
X121954819Y-109880952D02*
X122097676Y-109785714D01*
X122097676Y-109785714D02*
X122192914Y-109690476D01*
X122192914Y-109690476D02*
X122240533Y-109595238D01*
X108907200Y-127738095D02*
X108954819Y-127880952D01*
X108954819Y-127880952D02*
X108954819Y-128119047D01*
X108954819Y-128119047D02*
X108907200Y-128214285D01*
X108907200Y-128214285D02*
X108859580Y-128261904D01*
X108859580Y-128261904D02*
X108764342Y-128309523D01*
X108764342Y-128309523D02*
X108669104Y-128309523D01*
X108669104Y-128309523D02*
X108573866Y-128261904D01*
X108573866Y-128261904D02*
X108526247Y-128214285D01*
X108526247Y-128214285D02*
X108478628Y-128119047D01*
X108478628Y-128119047D02*
X108431009Y-127928571D01*
X108431009Y-127928571D02*
X108383390Y-127833333D01*
X108383390Y-127833333D02*
X108335771Y-127785714D01*
X108335771Y-127785714D02*
X108240533Y-127738095D01*
X108240533Y-127738095D02*
X108145295Y-127738095D01*
X108145295Y-127738095D02*
X108050057Y-127785714D01*
X108050057Y-127785714D02*
X108002438Y-127833333D01*
X108002438Y-127833333D02*
X107954819Y-127928571D01*
X107954819Y-127928571D02*
X107954819Y-128166666D01*
X107954819Y-128166666D02*
X108002438Y-128309523D01*
X108954819Y-129261904D02*
X108954819Y-128690476D01*
X108954819Y-128976190D02*
X107954819Y-128976190D01*
X107954819Y-128976190D02*
X108097676Y-128880952D01*
X108097676Y-128880952D02*
X108192914Y-128785714D01*
X108192914Y-128785714D02*
X108240533Y-128690476D01*
D11*
%TO.C,G\u002A\u002A\u002A*%
G36*
X174626172Y-122418440D02*
G01*
X174626172Y-122570631D01*
X173798482Y-122569303D01*
X172970791Y-122567975D01*
X172970791Y-122418440D01*
X172970791Y-122268905D01*
X173798482Y-122267577D01*
X174626172Y-122266249D01*
X174626172Y-122418440D01*
G37*
G36*
X172088456Y-126610674D02*
G01*
X172164901Y-126610717D01*
X172238287Y-126610820D01*
X172307938Y-126610979D01*
X172373177Y-126611190D01*
X172433330Y-126611450D01*
X172487719Y-126611753D01*
X172535670Y-126612096D01*
X172576507Y-126612474D01*
X172609553Y-126612883D01*
X172634133Y-126613319D01*
X172649571Y-126613778D01*
X172655191Y-126614256D01*
X172656032Y-126619384D01*
X172656769Y-126633747D01*
X172657294Y-126655875D01*
X172657585Y-126684345D01*
X172657620Y-126717731D01*
X172657377Y-126754610D01*
X172655980Y-126891380D01*
X172077515Y-126892714D01*
X171499050Y-126894049D01*
X171499050Y-126752361D01*
X171499050Y-126610673D01*
X172075329Y-126610673D01*
X172088456Y-126610674D01*
G37*
G36*
X172088471Y-121956718D02*
G01*
X172164914Y-121956760D01*
X172238296Y-121956860D01*
X172307941Y-121957016D01*
X172373173Y-121957222D01*
X172433318Y-121957476D01*
X172487699Y-121957771D01*
X172535640Y-121958106D01*
X172576466Y-121958475D01*
X172609502Y-121958875D01*
X172634070Y-121959301D01*
X172649497Y-121959749D01*
X172655106Y-121960215D01*
X172655992Y-121965626D01*
X172656839Y-121980228D01*
X172657558Y-122002570D01*
X172658116Y-122031237D01*
X172658476Y-122064812D01*
X172658603Y-122101880D01*
X172658603Y-122240047D01*
X172078827Y-122240047D01*
X171499050Y-122240047D01*
X171499050Y-122098382D01*
X171499050Y-121956717D01*
X172075329Y-121956717D01*
X172088471Y-121956718D01*
G37*
G36*
X171186359Y-121922262D02*
G01*
X171222033Y-121933741D01*
X171255956Y-121954923D01*
X171258384Y-121956903D01*
X171279361Y-121977905D01*
X171296115Y-122003483D01*
X171310627Y-122036593D01*
X171310909Y-122037362D01*
X171318404Y-122070246D01*
X171319637Y-122107239D01*
X171314797Y-122144284D01*
X171304072Y-122177325D01*
X171290438Y-122202334D01*
X171264574Y-122233986D01*
X171233348Y-122257352D01*
X171197677Y-122271807D01*
X171158478Y-122276724D01*
X171147114Y-122276282D01*
X171110687Y-122268745D01*
X171078318Y-122252844D01*
X171050666Y-122229836D01*
X171028388Y-122200979D01*
X171012141Y-122167531D01*
X171002583Y-122130750D01*
X171000370Y-122091893D01*
X171006162Y-122052219D01*
X171020615Y-122012984D01*
X171028264Y-121998924D01*
X171052746Y-121966811D01*
X171082126Y-121942761D01*
X171115075Y-121927100D01*
X171150263Y-121920158D01*
X171186359Y-121922262D01*
G37*
G36*
X171192536Y-126574742D02*
G01*
X171224155Y-126585820D01*
X171237408Y-126593555D01*
X171267553Y-126618616D01*
X171292346Y-126650046D01*
X171309384Y-126685050D01*
X171310990Y-126689827D01*
X171316764Y-126711595D01*
X171319163Y-126733337D01*
X171318835Y-126760208D01*
X171316996Y-126782167D01*
X171309265Y-126817044D01*
X171294869Y-126847287D01*
X171272589Y-126875950D01*
X171259886Y-126888716D01*
X171229850Y-126910908D01*
X171197323Y-126923724D01*
X171160628Y-126927941D01*
X171136630Y-126926432D01*
X171099278Y-126916407D01*
X171066724Y-126897110D01*
X171039184Y-126868687D01*
X171016870Y-126831280D01*
X171013423Y-126823661D01*
X171008129Y-126809263D01*
X171005043Y-126794355D01*
X171003609Y-126775613D01*
X171003275Y-126749715D01*
X171003392Y-126733665D01*
X171004287Y-126712683D01*
X171006554Y-126696985D01*
X171010766Y-126683291D01*
X171017496Y-126668323D01*
X171020039Y-126663341D01*
X171041724Y-126631067D01*
X171069114Y-126603560D01*
X171099436Y-126583681D01*
X171123530Y-126575184D01*
X171157762Y-126571176D01*
X171192536Y-126574742D01*
G37*
G36*
X165230328Y-123167398D02*
G01*
X165231687Y-123433706D01*
X166910679Y-123433706D01*
X168589671Y-123433706D01*
X168592295Y-123168740D01*
X168594918Y-122903774D01*
X169030407Y-122902419D01*
X169068630Y-122902310D01*
X169133816Y-122902169D01*
X169195588Y-122902094D01*
X169253160Y-122902080D01*
X169305744Y-122902128D01*
X169352554Y-122902234D01*
X169392804Y-122902397D01*
X169425707Y-122902613D01*
X169450476Y-122902883D01*
X169466324Y-122903202D01*
X169472466Y-122903570D01*
X169473066Y-122904915D01*
X169473781Y-122910064D01*
X169474434Y-122919385D01*
X169475027Y-122933231D01*
X169475562Y-122951953D01*
X169476041Y-122975901D01*
X169476465Y-123005427D01*
X169476835Y-123040882D01*
X169477155Y-123082617D01*
X169477424Y-123130983D01*
X169477644Y-123186332D01*
X169477818Y-123249014D01*
X169477946Y-123319380D01*
X169478031Y-123397782D01*
X169478074Y-123484571D01*
X169478076Y-123580098D01*
X169478039Y-123684715D01*
X169477966Y-123798771D01*
X169477856Y-123922619D01*
X169477712Y-124056609D01*
X169476389Y-125207141D01*
X169035654Y-125207141D01*
X168594918Y-125207141D01*
X168592295Y-124942175D01*
X168589671Y-124677209D01*
X166910679Y-124677209D01*
X165231687Y-124677209D01*
X165230328Y-124943517D01*
X165228968Y-125209824D01*
X164786969Y-125208482D01*
X164344970Y-125207141D01*
X164344970Y-124055457D01*
X164344970Y-122903774D01*
X164786969Y-122902432D01*
X165228968Y-122901091D01*
X165230328Y-123167398D01*
G37*
G36*
X174626172Y-125377647D02*
G01*
X174626172Y-125519328D01*
X174218230Y-125519414D01*
X173810287Y-125519500D01*
X173783484Y-125557454D01*
X173751470Y-125605598D01*
X173722823Y-125656234D01*
X173699738Y-125706912D01*
X173698972Y-125708819D01*
X173684710Y-125748836D01*
X173675980Y-125785514D01*
X173672012Y-125823296D01*
X173672035Y-125866624D01*
X173672531Y-125878527D01*
X173674198Y-125902053D01*
X173677012Y-125919736D01*
X173681629Y-125934885D01*
X173688704Y-125950813D01*
X173703043Y-125974565D01*
X173729520Y-126002187D01*
X173763869Y-126023621D01*
X173806421Y-126039058D01*
X173857509Y-126048692D01*
X173859576Y-126048924D01*
X173877622Y-126050184D01*
X173905734Y-126051293D01*
X173943550Y-126052246D01*
X173990705Y-126053038D01*
X174046836Y-126053664D01*
X174111580Y-126054118D01*
X174184573Y-126054396D01*
X174265451Y-126054492D01*
X174626172Y-126054507D01*
X174626172Y-126196172D01*
X174626172Y-126337837D01*
X174236593Y-126337702D01*
X174180837Y-126337632D01*
X174117909Y-126337430D01*
X174057743Y-126337111D01*
X174001307Y-126336684D01*
X173949565Y-126336163D01*
X173903485Y-126335557D01*
X173864034Y-126334878D01*
X173832176Y-126334138D01*
X173808879Y-126333348D01*
X173795110Y-126332519D01*
X173757097Y-126327669D01*
X173691359Y-126312886D01*
X173633054Y-126290738D01*
X173582230Y-126261266D01*
X173538932Y-126224514D01*
X173503207Y-126180526D01*
X173475103Y-126129344D01*
X173454666Y-126071012D01*
X173441942Y-126005573D01*
X173440850Y-125996953D01*
X173437916Y-125970708D01*
X173436577Y-125949314D01*
X173436841Y-125928967D01*
X173438716Y-125905862D01*
X173442210Y-125876194D01*
X173448108Y-125837913D01*
X173464241Y-125770664D01*
X173487968Y-125704753D01*
X173519985Y-125638385D01*
X173560988Y-125569764D01*
X173592068Y-125521952D01*
X173278806Y-125519328D01*
X172965544Y-125516705D01*
X172965544Y-125377664D01*
X172965544Y-125238622D01*
X173795858Y-125237294D01*
X174626172Y-125235966D01*
X174626172Y-125377647D01*
G37*
G36*
X172088440Y-124763783D02*
G01*
X172164889Y-124763826D01*
X172238278Y-124763929D01*
X172307931Y-124764088D01*
X172373173Y-124764299D01*
X172433327Y-124764559D01*
X172487717Y-124764862D01*
X172535669Y-124765205D01*
X172576506Y-124765583D01*
X172609553Y-124765992D01*
X172634133Y-124766428D01*
X172649571Y-124766887D01*
X172655191Y-124767365D01*
X172656032Y-124772493D01*
X172656769Y-124786856D01*
X172657294Y-124808984D01*
X172657585Y-124837454D01*
X172657620Y-124870840D01*
X172657377Y-124907718D01*
X172655980Y-125044489D01*
X172238017Y-125045832D01*
X171820054Y-125047175D01*
X171793902Y-125082560D01*
X171789015Y-125089257D01*
X171754134Y-125143617D01*
X171729088Y-125196119D01*
X171713982Y-125246497D01*
X171708924Y-125294488D01*
X171708983Y-125300081D01*
X171711775Y-125336540D01*
X171718165Y-125374045D01*
X171727356Y-125408774D01*
X171738553Y-125436902D01*
X171743759Y-125447572D01*
X171748701Y-125458950D01*
X171749939Y-125463847D01*
X171745102Y-125465740D01*
X171732230Y-125470362D01*
X171713374Y-125476975D01*
X171690560Y-125484861D01*
X171680736Y-125488320D01*
X171639057Y-125504764D01*
X171599226Y-125523134D01*
X171564047Y-125542058D01*
X171536327Y-125560168D01*
X171530081Y-125564781D01*
X171521455Y-125569966D01*
X171516176Y-125569381D01*
X171510884Y-125563463D01*
X171506603Y-125557368D01*
X171492312Y-125529695D01*
X171480119Y-125494749D01*
X171470644Y-125454986D01*
X171464505Y-125412860D01*
X171462322Y-125370825D01*
X171463275Y-125340829D01*
X171468125Y-125301434D01*
X171477686Y-125263485D01*
X171492628Y-125225348D01*
X171513622Y-125185393D01*
X171541341Y-125141989D01*
X171576455Y-125093504D01*
X171583121Y-125084666D01*
X171598402Y-125063917D01*
X171608069Y-125049630D01*
X171612839Y-125040527D01*
X171613431Y-125035331D01*
X171610560Y-125032765D01*
X171606574Y-125031409D01*
X171593161Y-125027317D01*
X171573901Y-125021723D01*
X171551518Y-125015429D01*
X171501673Y-125001629D01*
X171500263Y-124882706D01*
X171498853Y-124763782D01*
X172075230Y-124763782D01*
X172088440Y-124763783D01*
G37*
G36*
X174311728Y-120406665D02*
G01*
X174344710Y-120407396D01*
X174403879Y-120416286D01*
X174459003Y-120432707D01*
X174508457Y-120456665D01*
X174546306Y-120485069D01*
X174580299Y-120522008D01*
X174608698Y-120565344D01*
X174630323Y-120613274D01*
X174643996Y-120663995D01*
X174648961Y-120698505D01*
X174651297Y-120767043D01*
X174643673Y-120833901D01*
X174626353Y-120898221D01*
X174599604Y-120959145D01*
X174563691Y-121015816D01*
X174518882Y-121067376D01*
X174517389Y-121068849D01*
X174470952Y-121108863D01*
X174420053Y-121141548D01*
X174363036Y-121167814D01*
X174298244Y-121188571D01*
X174287187Y-121191224D01*
X174267405Y-121194603D01*
X174244082Y-121196802D01*
X174214906Y-121198010D01*
X174177566Y-121198415D01*
X174150301Y-121198352D01*
X174123606Y-121197831D01*
X174103068Y-121196594D01*
X174086274Y-121194402D01*
X174070810Y-121191017D01*
X174054265Y-121186199D01*
X174047961Y-121184167D01*
X173994030Y-121161591D01*
X173948011Y-121132177D01*
X173909872Y-121095880D01*
X173879581Y-121052654D01*
X173857104Y-121002453D01*
X173842411Y-120945233D01*
X173835468Y-120880948D01*
X173835020Y-120868281D01*
X173836473Y-120828985D01*
X173994059Y-120828985D01*
X173996543Y-120872096D01*
X173999097Y-120884065D01*
X174011676Y-120918293D01*
X174030386Y-120947378D01*
X174053802Y-120968907D01*
X174066844Y-120976627D01*
X174103449Y-120990746D01*
X174146405Y-120998565D01*
X174194117Y-120999872D01*
X174244994Y-120994454D01*
X174261297Y-120991439D01*
X174320190Y-120975880D01*
X174370557Y-120954483D01*
X174412318Y-120927297D01*
X174445391Y-120894373D01*
X174469695Y-120855761D01*
X174472510Y-120849583D01*
X174484117Y-120813257D01*
X174489187Y-120774960D01*
X174487522Y-120737914D01*
X174478925Y-120705344D01*
X174460682Y-120673305D01*
X174434205Y-120646849D01*
X174400355Y-120627479D01*
X174359431Y-120615319D01*
X174311728Y-120610493D01*
X174257545Y-120613124D01*
X174225047Y-120617516D01*
X174186351Y-120625739D01*
X174151402Y-120637465D01*
X174116355Y-120653800D01*
X174076664Y-120679345D01*
X174043372Y-120711076D01*
X174018093Y-120747346D01*
X174001449Y-120787026D01*
X173994059Y-120828985D01*
X173836473Y-120828985D01*
X173837546Y-120799964D01*
X173848919Y-120736659D01*
X173869482Y-120677330D01*
X173899577Y-120620939D01*
X173939549Y-120566450D01*
X173959837Y-120544985D01*
X173987390Y-120520250D01*
X174018117Y-120495853D01*
X174048806Y-120474335D01*
X174076249Y-120458237D01*
X174100102Y-120447026D01*
X174159193Y-120425852D01*
X174220742Y-120412185D01*
X174283122Y-120406031D01*
X174311728Y-120406665D01*
G37*
G36*
X172164914Y-120660788D02*
G01*
X172238296Y-120660889D01*
X172307941Y-120661044D01*
X172373173Y-120661250D01*
X172433318Y-120661504D01*
X172487699Y-120661800D01*
X172535640Y-120662134D01*
X172576466Y-120662503D01*
X172609502Y-120662903D01*
X172634070Y-120663329D01*
X172649497Y-120663777D01*
X172655106Y-120664243D01*
X172655992Y-120669654D01*
X172656839Y-120684256D01*
X172657558Y-120706598D01*
X172658116Y-120735265D01*
X172658476Y-120768840D01*
X172658603Y-120805908D01*
X172658603Y-120944075D01*
X172247265Y-120944075D01*
X171835927Y-120944075D01*
X171804564Y-120992609D01*
X171785035Y-121023848D01*
X171753798Y-121080050D01*
X171730193Y-121132668D01*
X171713563Y-121183267D01*
X171703249Y-121233410D01*
X171699419Y-121274206D01*
X171701606Y-121322994D01*
X171711976Y-121365681D01*
X171730439Y-121402045D01*
X171756909Y-121431866D01*
X171791296Y-121454922D01*
X171796423Y-121457538D01*
X171805549Y-121462026D01*
X171814510Y-121465922D01*
X171824070Y-121469274D01*
X171834988Y-121472129D01*
X171848025Y-121474536D01*
X171863944Y-121476541D01*
X171883505Y-121478193D01*
X171907470Y-121479538D01*
X171936599Y-121480625D01*
X171971655Y-121481502D01*
X172013398Y-121482215D01*
X172062589Y-121482812D01*
X172119990Y-121483341D01*
X172186362Y-121483850D01*
X172262466Y-121484386D01*
X172655980Y-121487124D01*
X172655980Y-121626166D01*
X172655980Y-121765207D01*
X172257219Y-121766775D01*
X172196475Y-121766997D01*
X172122781Y-121767192D01*
X172058254Y-121767235D01*
X172002130Y-121767096D01*
X171953647Y-121766743D01*
X171912041Y-121766143D01*
X171876550Y-121765265D01*
X171846410Y-121764077D01*
X171820858Y-121762547D01*
X171799132Y-121760643D01*
X171780467Y-121758333D01*
X171764101Y-121755586D01*
X171749271Y-121752370D01*
X171735214Y-121748653D01*
X171721166Y-121744403D01*
X171709429Y-121740477D01*
X171653802Y-121715627D01*
X171604147Y-121682687D01*
X171561237Y-121642359D01*
X171525849Y-121595350D01*
X171498758Y-121542363D01*
X171493186Y-121527801D01*
X171476645Y-121467016D01*
X171468737Y-121401917D01*
X171469286Y-121333558D01*
X171478117Y-121262993D01*
X171495054Y-121191273D01*
X171519921Y-121119452D01*
X171552542Y-121048583D01*
X171592741Y-120979720D01*
X171597189Y-120972878D01*
X171608341Y-120955662D01*
X171616897Y-120942367D01*
X171621288Y-120935427D01*
X171620149Y-120932579D01*
X171610492Y-120927881D01*
X171591237Y-120921922D01*
X171561992Y-120914565D01*
X171499050Y-120899728D01*
X171499050Y-120780237D01*
X171499050Y-120660746D01*
X172075329Y-120660746D01*
X172088471Y-120660746D01*
X172164914Y-120660788D01*
G37*
G36*
X174058231Y-122716541D02*
G01*
X174115916Y-122718094D01*
X174145609Y-122721265D01*
X174219062Y-122734649D01*
X174286165Y-122755671D01*
X174347988Y-122784803D01*
X174405600Y-122822514D01*
X174460072Y-122869274D01*
X174491677Y-122902660D01*
X174536490Y-122962126D01*
X174574432Y-123028977D01*
X174605253Y-123102671D01*
X174628702Y-123182669D01*
X174644529Y-123268430D01*
X174646348Y-123285081D01*
X174648564Y-123319523D01*
X174649802Y-123360253D01*
X174650082Y-123404679D01*
X174649427Y-123450209D01*
X174647858Y-123494251D01*
X174645396Y-123534212D01*
X174642063Y-123567500D01*
X174641648Y-123570663D01*
X174634891Y-123613739D01*
X174626022Y-123658807D01*
X174615590Y-123703798D01*
X174604147Y-123746643D01*
X174592241Y-123785270D01*
X174580422Y-123817610D01*
X174569241Y-123841594D01*
X174559685Y-123858701D01*
X173764030Y-123860029D01*
X172968376Y-123861358D01*
X172965483Y-123849535D01*
X172964945Y-123844736D01*
X172964329Y-123830001D01*
X172963917Y-123807478D01*
X172963726Y-123778766D01*
X172963770Y-123745462D01*
X172964067Y-123709165D01*
X172965544Y-123580617D01*
X173208799Y-123579253D01*
X173452053Y-123577888D01*
X173448879Y-123555642D01*
X173439583Y-123465852D01*
X173438690Y-123407117D01*
X173651860Y-123407117D01*
X173652165Y-123441327D01*
X173654011Y-123476732D01*
X173657168Y-123510414D01*
X173661409Y-123539457D01*
X173666506Y-123560942D01*
X173672059Y-123577994D01*
X174043758Y-123577994D01*
X174415457Y-123577994D01*
X174423696Y-123541770D01*
X174426410Y-123527830D01*
X174430699Y-123494678D01*
X174433551Y-123456601D01*
X174434810Y-123417229D01*
X174434321Y-123380195D01*
X174431929Y-123349130D01*
X174431607Y-123346625D01*
X174418408Y-123279583D01*
X174397339Y-123218660D01*
X174368712Y-123164271D01*
X174332839Y-123116831D01*
X174290032Y-123076757D01*
X174240602Y-123044462D01*
X174184863Y-123020363D01*
X174184549Y-123020257D01*
X174121443Y-123003886D01*
X174058231Y-122996891D01*
X173996037Y-122999062D01*
X173935986Y-123010191D01*
X173879200Y-123030072D01*
X173826805Y-123058495D01*
X173779925Y-123095254D01*
X173776497Y-123098490D01*
X173735121Y-123144501D01*
X173702294Y-123195587D01*
X173677778Y-123252289D01*
X173661337Y-123315146D01*
X173652732Y-123384700D01*
X173651860Y-123407117D01*
X173438690Y-123407117D01*
X173438196Y-123374593D01*
X173445670Y-123287238D01*
X173462041Y-123202844D01*
X173471208Y-123169439D01*
X173499518Y-123091209D01*
X173535509Y-123019218D01*
X173578640Y-122953864D01*
X173628371Y-122895550D01*
X173684163Y-122844676D01*
X173745474Y-122801642D01*
X173811765Y-122766849D01*
X173882495Y-122740697D01*
X173957123Y-122723587D01*
X174035110Y-122715919D01*
X174058231Y-122716541D01*
G37*
G36*
X174114163Y-126473361D02*
G01*
X174153316Y-126476631D01*
X174185129Y-126481601D01*
X174246146Y-126497265D01*
X174321187Y-126524788D01*
X174388894Y-126559785D01*
X174449162Y-126602138D01*
X174501888Y-126651731D01*
X174546968Y-126708445D01*
X174584298Y-126772165D01*
X174613775Y-126842774D01*
X174635294Y-126920153D01*
X174648752Y-127004187D01*
X174650886Y-127035603D01*
X174651481Y-127074807D01*
X174650504Y-127116811D01*
X174648047Y-127157762D01*
X174644204Y-127193808D01*
X174638430Y-127226804D01*
X174628103Y-127270415D01*
X174615160Y-127314518D01*
X174600691Y-127355458D01*
X174585787Y-127389581D01*
X174550450Y-127450654D01*
X174504339Y-127510982D01*
X174450930Y-127564156D01*
X174390835Y-127609574D01*
X174324666Y-127646635D01*
X174314135Y-127651477D01*
X174245673Y-127676799D01*
X174172204Y-127694356D01*
X174095661Y-127703991D01*
X174017977Y-127705547D01*
X173941085Y-127698867D01*
X173866918Y-127683795D01*
X173866061Y-127683565D01*
X173805051Y-127664571D01*
X173751653Y-127641888D01*
X173703245Y-127614010D01*
X173657204Y-127579427D01*
X173610907Y-127536634D01*
X173603885Y-127529527D01*
X173565519Y-127487340D01*
X173534612Y-127446334D01*
X173509333Y-127403844D01*
X173487855Y-127357203D01*
X173470780Y-127309684D01*
X173451354Y-127232477D01*
X173440333Y-127152089D01*
X173439128Y-127112543D01*
X173648296Y-127112543D01*
X173657216Y-127168918D01*
X173675168Y-127221067D01*
X173701791Y-127268315D01*
X173736722Y-127309983D01*
X173779602Y-127345395D01*
X173830067Y-127373873D01*
X173842302Y-127379272D01*
X173887503Y-127395563D01*
X173934904Y-127406591D01*
X173987027Y-127412833D01*
X174046395Y-127414765D01*
X174095825Y-127413500D01*
X174144958Y-127408783D01*
X174189186Y-127400040D01*
X174231252Y-127386708D01*
X174273902Y-127368225D01*
X174322935Y-127339406D01*
X174364235Y-127303961D01*
X174397139Y-127262226D01*
X174421630Y-127214222D01*
X174437690Y-127159970D01*
X174440237Y-127147111D01*
X174445443Y-127112568D01*
X174446731Y-127081919D01*
X174444096Y-127050759D01*
X174437534Y-127014681D01*
X174436830Y-127011452D01*
X174420390Y-126959212D01*
X174395389Y-126912632D01*
X174361206Y-126870541D01*
X174344073Y-126854012D01*
X174301321Y-126821422D01*
X174253065Y-126795953D01*
X174198516Y-126777305D01*
X174136885Y-126765179D01*
X174067383Y-126759278D01*
X174036641Y-126758693D01*
X173965772Y-126762553D01*
X173901077Y-126773729D01*
X173842905Y-126791988D01*
X173791605Y-126817097D01*
X173747526Y-126848824D01*
X173711015Y-126886937D01*
X173682423Y-126931204D01*
X173662096Y-126981391D01*
X173650385Y-127037266D01*
X173648770Y-127052621D01*
X173648296Y-127112543D01*
X173439128Y-127112543D01*
X173437850Y-127070574D01*
X173444037Y-126989982D01*
X173459027Y-126912367D01*
X173471831Y-126868856D01*
X173501271Y-126795992D01*
X173538882Y-126729500D01*
X173584337Y-126669690D01*
X173637311Y-126616867D01*
X173697475Y-126571338D01*
X173764504Y-126533410D01*
X173838070Y-126503390D01*
X173917847Y-126481585D01*
X173944444Y-126477264D01*
X173982809Y-126473740D01*
X174025894Y-126471915D01*
X174036641Y-126471885D01*
X174070684Y-126471788D01*
X174114163Y-126473361D01*
G37*
G36*
X171594724Y-119056472D02*
G01*
X171634398Y-119056575D01*
X171722216Y-119056809D01*
X171800408Y-119057035D01*
X171869585Y-119057264D01*
X171930359Y-119057510D01*
X171983342Y-119057783D01*
X172029146Y-119058097D01*
X172068382Y-119058464D01*
X172101662Y-119058897D01*
X172129598Y-119059407D01*
X172152802Y-119060007D01*
X172171885Y-119060709D01*
X172187460Y-119061527D01*
X172200137Y-119062471D01*
X172210529Y-119063555D01*
X172219247Y-119064790D01*
X172226904Y-119066190D01*
X172234111Y-119067767D01*
X172241479Y-119069532D01*
X172293357Y-119083778D01*
X172361165Y-119108551D01*
X172420772Y-119138678D01*
X172472968Y-119174730D01*
X172518541Y-119217278D01*
X172558279Y-119266893D01*
X172592971Y-119324146D01*
X172605021Y-119348500D01*
X172629022Y-119408053D01*
X172649023Y-119473735D01*
X172664260Y-119542827D01*
X172673969Y-119612608D01*
X172674953Y-119625128D01*
X172676328Y-119650675D01*
X172677508Y-119681970D01*
X172678391Y-119716174D01*
X172678876Y-119750449D01*
X172678440Y-119800753D01*
X172672259Y-119899840D01*
X172658963Y-119991297D01*
X172638563Y-120075105D01*
X172611074Y-120151243D01*
X172576506Y-120219692D01*
X172534874Y-120280433D01*
X172486189Y-120333446D01*
X172430464Y-120378710D01*
X172367712Y-120416206D01*
X172297945Y-120445914D01*
X172221175Y-120467816D01*
X172168023Y-120479729D01*
X171582999Y-120479729D01*
X170997975Y-120479729D01*
X170996583Y-120328882D01*
X170996503Y-120319961D01*
X170996220Y-120282009D01*
X170996056Y-120247930D01*
X170996010Y-120219048D01*
X170996082Y-120196687D01*
X170996274Y-120182171D01*
X170996583Y-120176824D01*
X170997086Y-120176774D01*
X171005359Y-120176577D01*
X171023264Y-120176341D01*
X171050136Y-120176070D01*
X171085309Y-120175770D01*
X171128117Y-120175443D01*
X171177894Y-120175095D01*
X171233975Y-120174731D01*
X171295693Y-120174355D01*
X171362382Y-120173971D01*
X171433378Y-120173584D01*
X171508013Y-120173199D01*
X171585623Y-120172820D01*
X171589650Y-120172801D01*
X171682140Y-120172376D01*
X171764781Y-120172001D01*
X171838196Y-120171640D01*
X171903004Y-120171256D01*
X171959826Y-120170815D01*
X172009281Y-120170279D01*
X172051990Y-120169612D01*
X172088574Y-120168778D01*
X172119652Y-120167741D01*
X172145846Y-120166464D01*
X172167775Y-120164913D01*
X172186060Y-120163049D01*
X172201321Y-120160838D01*
X172214178Y-120158243D01*
X172225252Y-120155228D01*
X172235163Y-120151756D01*
X172244531Y-120147792D01*
X172253977Y-120143300D01*
X172264121Y-120138242D01*
X172275583Y-120132583D01*
X172307901Y-120113687D01*
X172347254Y-120081067D01*
X172382100Y-120040913D01*
X172411152Y-119994766D01*
X172433120Y-119944169D01*
X172433741Y-119942342D01*
X172444902Y-119899778D01*
X172452666Y-119850486D01*
X172456891Y-119797571D01*
X172457432Y-119744133D01*
X172454144Y-119693276D01*
X172446883Y-119648104D01*
X172439107Y-119618289D01*
X172416988Y-119560819D01*
X172386958Y-119510191D01*
X172348949Y-119466334D01*
X172302895Y-119429179D01*
X172248730Y-119398655D01*
X172186387Y-119374694D01*
X172147036Y-119362434D01*
X171572505Y-119359669D01*
X170997975Y-119356903D01*
X170996583Y-119205907D01*
X170995191Y-119054912D01*
X171594724Y-119056472D01*
G37*
G36*
X171502929Y-122350484D02*
G01*
X171511475Y-122353772D01*
X171528043Y-122360468D01*
X171551420Y-122370072D01*
X171580394Y-122382085D01*
X171613751Y-122396005D01*
X171650278Y-122411334D01*
X171656242Y-122413843D01*
X171700781Y-122432569D01*
X171751750Y-122453979D01*
X171806323Y-122476888D01*
X171861672Y-122500110D01*
X171914972Y-122522457D01*
X171963396Y-122542744D01*
X171995227Y-122556079D01*
X172032912Y-122571880D01*
X172066886Y-122586140D01*
X172095954Y-122598359D01*
X172118923Y-122608033D01*
X172134599Y-122614660D01*
X172141789Y-122617740D01*
X172151718Y-122622072D01*
X172170087Y-122629938D01*
X172195068Y-122640553D01*
X172225497Y-122653427D01*
X172260211Y-122668075D01*
X172298049Y-122684007D01*
X172337846Y-122700736D01*
X172378441Y-122717775D01*
X172418670Y-122734636D01*
X172457370Y-122750831D01*
X172493380Y-122765872D01*
X172525535Y-122779272D01*
X172552673Y-122790543D01*
X172573631Y-122799198D01*
X172587247Y-122804749D01*
X172592357Y-122806707D01*
X172592547Y-122806733D01*
X172599002Y-122809135D01*
X172612138Y-122814680D01*
X172629371Y-122822279D01*
X172664078Y-122837852D01*
X172662652Y-122938403D01*
X172661227Y-123038954D01*
X172582524Y-123072976D01*
X172559390Y-123082988D01*
X172528806Y-123096246D01*
X172493027Y-123111771D01*
X172453112Y-123129103D01*
X172410120Y-123147781D01*
X172365110Y-123167345D01*
X172319139Y-123187334D01*
X172273267Y-123207288D01*
X172228551Y-123226745D01*
X172186051Y-123245247D01*
X172146825Y-123262331D01*
X172111931Y-123277538D01*
X172082428Y-123290407D01*
X172059375Y-123300478D01*
X172043830Y-123307289D01*
X172036852Y-123310381D01*
X172036839Y-123310387D01*
X172029974Y-123313422D01*
X172014475Y-123320201D01*
X171991331Y-123330293D01*
X171961529Y-123343270D01*
X171926057Y-123358700D01*
X171885902Y-123376155D01*
X171842053Y-123395204D01*
X171795497Y-123415417D01*
X171751299Y-123434601D01*
X171705782Y-123454358D01*
X171663318Y-123472791D01*
X171625001Y-123489424D01*
X171591927Y-123503781D01*
X171565192Y-123515387D01*
X171545891Y-123523767D01*
X171535121Y-123528444D01*
X171521323Y-123534281D01*
X171508524Y-123539326D01*
X171502329Y-123541266D01*
X171501607Y-123538063D01*
X171500781Y-123525707D01*
X171500077Y-123505387D01*
X171499530Y-123478510D01*
X171499175Y-123446485D01*
X171499050Y-123410720D01*
X171499050Y-123280174D01*
X171579064Y-123248357D01*
X171586994Y-123245198D01*
X171612915Y-123234829D01*
X171646419Y-123221383D01*
X171685979Y-123205475D01*
X171730065Y-123187720D01*
X171777150Y-123168734D01*
X171825704Y-123149133D01*
X171874199Y-123129531D01*
X171885841Y-123124823D01*
X171937034Y-123104127D01*
X171989628Y-123082876D01*
X172041766Y-123061820D01*
X172091596Y-123041707D01*
X172137262Y-123023286D01*
X172176910Y-123007304D01*
X172208686Y-122994511D01*
X172233627Y-122984413D01*
X172264094Y-122971877D01*
X172290082Y-122960954D01*
X172310272Y-122952208D01*
X172323345Y-122946202D01*
X172327983Y-122943501D01*
X172325776Y-122942359D01*
X172314752Y-122937748D01*
X172295107Y-122929897D01*
X172267558Y-122919083D01*
X172232819Y-122905581D01*
X172191607Y-122889668D01*
X172144636Y-122871619D01*
X172092623Y-122851711D01*
X172036282Y-122830220D01*
X171976330Y-122807422D01*
X171913482Y-122783593D01*
X171499050Y-122626683D01*
X171499050Y-122488457D01*
X171499151Y-122452889D01*
X171499452Y-122419582D01*
X171499922Y-122391294D01*
X171500533Y-122369394D01*
X171501253Y-122355250D01*
X171502054Y-122350231D01*
X171502929Y-122350484D01*
G37*
G36*
X172107246Y-123508875D02*
G01*
X172146301Y-123510992D01*
X172178517Y-123514591D01*
X172248072Y-123528956D01*
X172324032Y-123553536D01*
X172393562Y-123586157D01*
X172456352Y-123626508D01*
X172512092Y-123674277D01*
X172560473Y-123729151D01*
X172601186Y-123790821D01*
X172633920Y-123858974D01*
X172658367Y-123933298D01*
X172674217Y-124013483D01*
X172675803Y-124027880D01*
X172677703Y-124061556D01*
X172678255Y-124101405D01*
X172677555Y-124144671D01*
X172675702Y-124188600D01*
X172672792Y-124230436D01*
X172668924Y-124267425D01*
X172664194Y-124296812D01*
X172646989Y-124367833D01*
X172620468Y-124448248D01*
X172587555Y-124522427D01*
X172584065Y-124529327D01*
X172573089Y-124550629D01*
X172564736Y-124564026D01*
X172557088Y-124570550D01*
X172548223Y-124571235D01*
X172536223Y-124567114D01*
X172519166Y-124559219D01*
X172511921Y-124555920D01*
X172487483Y-124545460D01*
X172459598Y-124534225D01*
X172432989Y-124524138D01*
X172418647Y-124518825D01*
X172399491Y-124511382D01*
X172385620Y-124505556D01*
X172379341Y-124502283D01*
X172379133Y-124499840D01*
X172382224Y-124489581D01*
X172388946Y-124473592D01*
X172398423Y-124454088D01*
X172401653Y-124447745D01*
X172430728Y-124381725D01*
X172450700Y-124316301D01*
X172462242Y-124248697D01*
X172466032Y-124176135D01*
X172465740Y-124150068D01*
X172463200Y-124108570D01*
X172457549Y-124072092D01*
X172448177Y-124037244D01*
X172434474Y-124000636D01*
X172429760Y-123989803D01*
X172401495Y-123939049D01*
X172366294Y-123895022D01*
X172325063Y-123858417D01*
X172278705Y-123829934D01*
X172228126Y-123810269D01*
X172174232Y-123800119D01*
X172139165Y-123796844D01*
X172139165Y-124204905D01*
X172139165Y-124612966D01*
X172051281Y-124610252D01*
X171990316Y-124607047D01*
X171936437Y-124601173D01*
X171888037Y-124592308D01*
X171842718Y-124580106D01*
X171819101Y-124572207D01*
X171748209Y-124541921D01*
X171684647Y-124504282D01*
X171628684Y-124459658D01*
X171580591Y-124408419D01*
X171540638Y-124350936D01*
X171509093Y-124287578D01*
X171486227Y-124218715D01*
X171472310Y-124144716D01*
X171468446Y-124079953D01*
X171670388Y-124079953D01*
X171673243Y-124115242D01*
X171679672Y-124144654D01*
X171680696Y-124147720D01*
X171702119Y-124194905D01*
X171731840Y-124236430D01*
X171768916Y-124271550D01*
X171812406Y-124299519D01*
X171861369Y-124319591D01*
X171914862Y-124331018D01*
X171945032Y-124334750D01*
X171945032Y-124063932D01*
X171945025Y-124045478D01*
X171944933Y-123994315D01*
X171944742Y-123946802D01*
X171944462Y-123903916D01*
X171944104Y-123866635D01*
X171943678Y-123835937D01*
X171943196Y-123812799D01*
X171942667Y-123798199D01*
X171942102Y-123793115D01*
X171935369Y-123793351D01*
X171909297Y-123796932D01*
X171879007Y-123804037D01*
X171848364Y-123813653D01*
X171821234Y-123824768D01*
X171819008Y-123825844D01*
X171773245Y-123853647D01*
X171735167Y-123888594D01*
X171704802Y-123930654D01*
X171682178Y-123979797D01*
X171675151Y-124007614D01*
X171671043Y-124042755D01*
X171670388Y-124079953D01*
X171468446Y-124079953D01*
X171467611Y-124065951D01*
X171469065Y-124022749D01*
X171478806Y-123947745D01*
X171497455Y-123876507D01*
X171524723Y-123810030D01*
X171560317Y-123749308D01*
X171579479Y-123724529D01*
X171604448Y-123696555D01*
X171632315Y-123668350D01*
X171660223Y-123642807D01*
X171685313Y-123622818D01*
X171733732Y-123591797D01*
X171803608Y-123557539D01*
X171878788Y-123531627D01*
X171942102Y-123517968D01*
X171958149Y-123514506D01*
X171984540Y-123511429D01*
X172022816Y-123509092D01*
X172064901Y-123508242D01*
X172107246Y-123508875D01*
G37*
G36*
X174888265Y-121071359D02*
G01*
X174897386Y-121078843D01*
X174911647Y-121091776D01*
X174929671Y-121108896D01*
X174950083Y-121128941D01*
X174962907Y-121141775D01*
X174981276Y-121160334D01*
X174995949Y-121175383D01*
X175005672Y-121185631D01*
X175009192Y-121189785D01*
X175009181Y-121189944D01*
X175005238Y-121196360D01*
X174995270Y-121208237D01*
X174980833Y-121223961D01*
X174963486Y-121241917D01*
X174944788Y-121260489D01*
X174926297Y-121278064D01*
X174909572Y-121293026D01*
X174886333Y-121312333D01*
X174835128Y-121350819D01*
X174781206Y-121385708D01*
X174723708Y-121417317D01*
X174661771Y-121445964D01*
X174594535Y-121471967D01*
X174521137Y-121495642D01*
X174440717Y-121517308D01*
X174352413Y-121537281D01*
X174255364Y-121555879D01*
X174148709Y-121573419D01*
X174147318Y-121573632D01*
X174117315Y-121578250D01*
X174087595Y-121582858D01*
X174061522Y-121586933D01*
X174042460Y-121589951D01*
X174007044Y-121595633D01*
X174007044Y-121678561D01*
X174007044Y-121761490D01*
X173940146Y-121787604D01*
X173934511Y-121789801D01*
X173909318Y-121799538D01*
X173887272Y-121807934D01*
X173870579Y-121814153D01*
X173861444Y-121817362D01*
X173849638Y-121821007D01*
X173849638Y-121723586D01*
X173849665Y-121710599D01*
X173849810Y-121678664D01*
X173849416Y-121655579D01*
X173847663Y-121640127D01*
X173843732Y-121631091D01*
X173836802Y-121627253D01*
X173826053Y-121627396D01*
X173810667Y-121630302D01*
X173789823Y-121634753D01*
X173787355Y-121635260D01*
X173738461Y-121649051D01*
X173698574Y-121668166D01*
X173667719Y-121692569D01*
X173645925Y-121722223D01*
X173633216Y-121757094D01*
X173629620Y-121797145D01*
X173635164Y-121842340D01*
X173637395Y-121851593D01*
X173643947Y-121872652D01*
X173651103Y-121890000D01*
X173653470Y-121894981D01*
X173657926Y-121907285D01*
X173658379Y-121914337D01*
X173658121Y-121914637D01*
X173651628Y-121919087D01*
X173638226Y-121927080D01*
X173619918Y-121937522D01*
X173598708Y-121949319D01*
X173576596Y-121961377D01*
X173555587Y-121972603D01*
X173537681Y-121981904D01*
X173524881Y-121988185D01*
X173519190Y-121990353D01*
X173517545Y-121988775D01*
X173512086Y-121980194D01*
X173504907Y-121966742D01*
X173500292Y-121957172D01*
X173479149Y-121900625D01*
X173466940Y-121842217D01*
X173463472Y-121783249D01*
X173468551Y-121725025D01*
X173481983Y-121668847D01*
X173503576Y-121616018D01*
X173533134Y-121567841D01*
X173570465Y-121525619D01*
X173580183Y-121516784D01*
X173613747Y-121491010D01*
X173651443Y-121469291D01*
X173694844Y-121450930D01*
X173745519Y-121435229D01*
X173805040Y-121421491D01*
X173819597Y-121418500D01*
X173834678Y-121415256D01*
X173843080Y-121413261D01*
X173845922Y-121409653D01*
X173848064Y-121398800D01*
X173849264Y-121379676D01*
X173849638Y-121351181D01*
X173849836Y-121330253D01*
X173850910Y-121307127D01*
X173853000Y-121292955D01*
X173856197Y-121286835D01*
X173859350Y-121285408D01*
X173871398Y-121281103D01*
X173889761Y-121275092D01*
X173912049Y-121268106D01*
X173935869Y-121260878D01*
X173958831Y-121254140D01*
X173978544Y-121248625D01*
X173992615Y-121245064D01*
X174007044Y-121241834D01*
X174007044Y-121315946D01*
X174007044Y-121390058D01*
X174022526Y-121390058D01*
X174027473Y-121389885D01*
X174044550Y-121388142D01*
X174063189Y-121385130D01*
X174071279Y-121383645D01*
X174090563Y-121380353D01*
X174116284Y-121376136D01*
X174146074Y-121371379D01*
X174177566Y-121366469D01*
X174182227Y-121365749D01*
X174261729Y-121352697D01*
X174336086Y-121339028D01*
X174404410Y-121324948D01*
X174465812Y-121310662D01*
X174519404Y-121296378D01*
X174564297Y-121282300D01*
X174599604Y-121268635D01*
X174626989Y-121256108D01*
X174693166Y-121221811D01*
X174751742Y-121184788D01*
X174804798Y-121143639D01*
X174854410Y-121096963D01*
X174855503Y-121095845D01*
X174868986Y-121082788D01*
X174879842Y-121073528D01*
X174885809Y-121070008D01*
X174888265Y-121071359D01*
G37*
G36*
X172579617Y-125515242D02*
G01*
X172586199Y-125523940D01*
X172594416Y-125539804D01*
X172605834Y-125563927D01*
X172616727Y-125588355D01*
X172641804Y-125658228D01*
X172661020Y-125733978D01*
X172673708Y-125813152D01*
X172673981Y-125815610D01*
X172676308Y-125845311D01*
X172677862Y-125881945D01*
X172678639Y-125922612D01*
X172678637Y-125964413D01*
X172677854Y-126004448D01*
X172676287Y-126039819D01*
X172673934Y-126067624D01*
X172664044Y-126129334D01*
X172646153Y-126197602D01*
X172622052Y-126258397D01*
X172592004Y-126311446D01*
X172556277Y-126356475D01*
X172515136Y-126393209D01*
X172468846Y-126421374D01*
X172417673Y-126440697D01*
X172361884Y-126450902D01*
X172301743Y-126451715D01*
X172271403Y-126448482D01*
X172220733Y-126436297D01*
X172174503Y-126415608D01*
X172132245Y-126386060D01*
X172093493Y-126347298D01*
X172057780Y-126298967D01*
X172024639Y-126240711D01*
X172016068Y-126223655D01*
X172007121Y-126205375D01*
X171999360Y-126188604D01*
X171991817Y-126171074D01*
X171983522Y-126150515D01*
X171973507Y-126124658D01*
X171960802Y-126091235D01*
X171959418Y-126087589D01*
X171935848Y-126028506D01*
X171913946Y-125979579D01*
X171893619Y-125940630D01*
X171874775Y-125911479D01*
X171857321Y-125891949D01*
X171847046Y-125883656D01*
X171818069Y-125867740D01*
X171788604Y-125861930D01*
X171759453Y-125866296D01*
X171731419Y-125880908D01*
X171724186Y-125886791D01*
X171705312Y-125910131D01*
X171690629Y-125942286D01*
X171679885Y-125983762D01*
X171675068Y-126015720D01*
X171672606Y-126058711D01*
X171674368Y-126106135D01*
X171680359Y-126160575D01*
X171693745Y-126235786D01*
X171713458Y-126308730D01*
X171738557Y-126373679D01*
X171739790Y-126376443D01*
X171743994Y-126387464D01*
X171744788Y-126392744D01*
X171744369Y-126392867D01*
X171736590Y-126393487D01*
X171720283Y-126394226D01*
X171697041Y-126395027D01*
X171668451Y-126395833D01*
X171636104Y-126396589D01*
X171529180Y-126398849D01*
X171521564Y-126380621D01*
X171521254Y-126379872D01*
X171513141Y-126356690D01*
X171504403Y-126325899D01*
X171495662Y-126290197D01*
X171487535Y-126252279D01*
X171480644Y-126214844D01*
X171475607Y-126180588D01*
X171469236Y-126111276D01*
X171467718Y-126028284D01*
X171473322Y-125950454D01*
X171485937Y-125878391D01*
X171505449Y-125812702D01*
X171531744Y-125753993D01*
X171564710Y-125702871D01*
X171600950Y-125663641D01*
X171644420Y-125631139D01*
X171692952Y-125607262D01*
X171745406Y-125592568D01*
X171800638Y-125587615D01*
X171842136Y-125589952D01*
X171895869Y-125600856D01*
X171944910Y-125620817D01*
X171989502Y-125650003D01*
X172029889Y-125688585D01*
X172066313Y-125736730D01*
X172099020Y-125794608D01*
X172106581Y-125810554D01*
X172118703Y-125837692D01*
X172131868Y-125868518D01*
X172144990Y-125900387D01*
X172156988Y-125930655D01*
X172166776Y-125956676D01*
X172173270Y-125975804D01*
X172173459Y-125976421D01*
X172180459Y-125995042D01*
X172191277Y-126019418D01*
X172204367Y-126046457D01*
X172218178Y-126073066D01*
X172231164Y-126096153D01*
X172241775Y-126112627D01*
X172260152Y-126133419D01*
X172287914Y-126153646D01*
X172318233Y-126165413D01*
X172349512Y-126168395D01*
X172380151Y-126162263D01*
X172408550Y-126146692D01*
X172414803Y-126141654D01*
X172438950Y-126115430D01*
X172457377Y-126082429D01*
X172470302Y-126042021D01*
X172477939Y-125993573D01*
X172480506Y-125936453D01*
X172480340Y-125921016D01*
X172473779Y-125845658D01*
X172457812Y-125773910D01*
X172432632Y-125706459D01*
X172398431Y-125643995D01*
X172394415Y-125637635D01*
X172385095Y-125621343D01*
X172379547Y-125609186D01*
X172378861Y-125603418D01*
X172379595Y-125602862D01*
X172388311Y-125598285D01*
X172401508Y-125592779D01*
X172407907Y-125590220D01*
X172424690Y-125583045D01*
X172446085Y-125573545D01*
X172469001Y-125563081D01*
X172484101Y-125556124D01*
X172502088Y-125547961D01*
X172514722Y-125542382D01*
X172519927Y-125540316D01*
X172523702Y-125538569D01*
X172534294Y-125532742D01*
X172548985Y-125524242D01*
X172554044Y-125521232D01*
X172565103Y-125514980D01*
X172573106Y-125512620D01*
X172579617Y-125515242D01*
G37*
G36*
X174359315Y-123995542D02*
G01*
X174391341Y-124003219D01*
X174445309Y-124024180D01*
X174494434Y-124053805D01*
X174538067Y-124091382D01*
X174575556Y-124136202D01*
X174606250Y-124187553D01*
X174629498Y-124244724D01*
X174644649Y-124307007D01*
X174650194Y-124357387D01*
X174651024Y-124414877D01*
X174647007Y-124473585D01*
X174638397Y-124529883D01*
X174625449Y-124580142D01*
X174607691Y-124626435D01*
X174580469Y-124681161D01*
X174549044Y-124730907D01*
X174521622Y-124769127D01*
X174573897Y-124795360D01*
X174626172Y-124821593D01*
X174626172Y-124939953D01*
X174626172Y-125058313D01*
X174614367Y-125054526D01*
X174613885Y-125054372D01*
X174600238Y-125050216D01*
X174584197Y-125045571D01*
X174580384Y-125045004D01*
X174566008Y-125044018D01*
X174542254Y-125043007D01*
X174509825Y-125041988D01*
X174469422Y-125040975D01*
X174421745Y-125039984D01*
X174367495Y-125039030D01*
X174307373Y-125038128D01*
X174242081Y-125037294D01*
X174172320Y-125036544D01*
X174147568Y-125036298D01*
X174074825Y-125035539D01*
X174011600Y-125034805D01*
X173957152Y-125034076D01*
X173910737Y-125033329D01*
X173871612Y-125032544D01*
X173839034Y-125031700D01*
X173812260Y-125030775D01*
X173790548Y-125029748D01*
X173773154Y-125028599D01*
X173759336Y-125027305D01*
X173748350Y-125025846D01*
X173739454Y-125024200D01*
X173699313Y-125013718D01*
X173642961Y-124991403D01*
X173593869Y-124961648D01*
X173551803Y-124924302D01*
X173516529Y-124879213D01*
X173492681Y-124838057D01*
X173472388Y-124791332D01*
X173457163Y-124740439D01*
X173446676Y-124683969D01*
X173440592Y-124620513D01*
X173438580Y-124548661D01*
X173440665Y-124473831D01*
X173448571Y-124395231D01*
X173462763Y-124321670D01*
X173483653Y-124251078D01*
X173511654Y-124181382D01*
X173520230Y-124163157D01*
X173531443Y-124140563D01*
X173543253Y-124117712D01*
X173554376Y-124097035D01*
X173563530Y-124080961D01*
X173569432Y-124071921D01*
X173569511Y-124071901D01*
X173574930Y-124074336D01*
X173587514Y-124080901D01*
X173605492Y-124090608D01*
X173627092Y-124102470D01*
X173650545Y-124115496D01*
X173674079Y-124128701D01*
X173695923Y-124141094D01*
X173714307Y-124151689D01*
X173727458Y-124159497D01*
X173733608Y-124163530D01*
X173733047Y-124166488D01*
X173728801Y-124177182D01*
X173721349Y-124193703D01*
X173711580Y-124214012D01*
X173688726Y-124264914D01*
X173666659Y-124330169D01*
X173652643Y-124396503D01*
X173647401Y-124440299D01*
X173645236Y-124501054D01*
X173649542Y-124556666D01*
X173660173Y-124606251D01*
X173676982Y-124648922D01*
X173699826Y-124683793D01*
X173715172Y-124699096D01*
X173746025Y-124719920D01*
X173782492Y-124735519D01*
X173821961Y-124744876D01*
X173861818Y-124746970D01*
X173894237Y-124745418D01*
X173895064Y-124720081D01*
X174087604Y-124720081D01*
X174087767Y-124736159D01*
X174088726Y-124743371D01*
X174092375Y-124744372D01*
X174105308Y-124745557D01*
X174126161Y-124746567D01*
X174153482Y-124747352D01*
X174185817Y-124747861D01*
X174221714Y-124748042D01*
X174351815Y-124748042D01*
X174374464Y-124715754D01*
X174400333Y-124671830D01*
X174421179Y-124621928D01*
X174435076Y-124570499D01*
X174441128Y-124524927D01*
X174441845Y-124475140D01*
X174436672Y-124427570D01*
X174425872Y-124384536D01*
X174409710Y-124348356D01*
X174404207Y-124339636D01*
X174378181Y-124310220D01*
X174345668Y-124288548D01*
X174307686Y-124275168D01*
X174265254Y-124270629D01*
X174240643Y-124272348D01*
X174204179Y-124282525D01*
X174172816Y-124301855D01*
X174146545Y-124330348D01*
X174125353Y-124368015D01*
X174109229Y-124414867D01*
X174107915Y-124421394D01*
X174105576Y-124438702D01*
X174103042Y-124463040D01*
X174100410Y-124492819D01*
X174097780Y-124526449D01*
X174095252Y-124562340D01*
X174092924Y-124598903D01*
X174090897Y-124634548D01*
X174089268Y-124667686D01*
X174088137Y-124696727D01*
X174087604Y-124720081D01*
X173895064Y-124720081D01*
X173897918Y-124632611D01*
X173898318Y-124620693D01*
X173901395Y-124547389D01*
X173905364Y-124483146D01*
X173910436Y-124426736D01*
X173916827Y-124376931D01*
X173924749Y-124332503D01*
X173934417Y-124292224D01*
X173946045Y-124254867D01*
X173959845Y-124219203D01*
X173976033Y-124184005D01*
X173999568Y-124142555D01*
X174036310Y-124094970D01*
X174078963Y-124055741D01*
X174126910Y-124025172D01*
X174179535Y-124003564D01*
X174236221Y-123991221D01*
X174265254Y-123989881D01*
X174296353Y-123988446D01*
X174359315Y-123995542D01*
G37*
G36*
X165585850Y-122814577D02*
G01*
X165585850Y-123079543D01*
X166910679Y-123079543D01*
X168235509Y-123079543D01*
X168235509Y-122814577D01*
X168235509Y-122549611D01*
X169032593Y-122549611D01*
X169085191Y-122549618D01*
X169203240Y-122549681D01*
X169311278Y-122549814D01*
X169409262Y-122550014D01*
X169497148Y-122550284D01*
X169574891Y-122550621D01*
X169642449Y-122551025D01*
X169652158Y-122551105D01*
X169699776Y-122551497D01*
X169746830Y-122552037D01*
X169783565Y-122552643D01*
X169809939Y-122553315D01*
X169825907Y-122554054D01*
X169831426Y-122554858D01*
X169831428Y-122554868D01*
X169831522Y-122560573D01*
X169831607Y-122576263D01*
X169831685Y-122601442D01*
X169831754Y-122635612D01*
X169831816Y-122678278D01*
X169831870Y-122728942D01*
X169831917Y-122787108D01*
X169831956Y-122852280D01*
X169831988Y-122923961D01*
X169832013Y-123001653D01*
X169832032Y-123084862D01*
X169832043Y-123173089D01*
X169832048Y-123265839D01*
X169832047Y-123362615D01*
X169832039Y-123462920D01*
X169832025Y-123566257D01*
X169832005Y-123672130D01*
X169831979Y-123780043D01*
X169831947Y-123889498D01*
X169831910Y-124000000D01*
X169831868Y-124111051D01*
X169831820Y-124222155D01*
X169831766Y-124332815D01*
X169831708Y-124442535D01*
X169831645Y-124550818D01*
X169831577Y-124657168D01*
X169831505Y-124761087D01*
X169831428Y-124862079D01*
X169831347Y-124959649D01*
X169831262Y-125053298D01*
X169831173Y-125142531D01*
X169831079Y-125226850D01*
X169830983Y-125305760D01*
X169830882Y-125378763D01*
X169830778Y-125445363D01*
X169830671Y-125505064D01*
X169830560Y-125557368D01*
X169830010Y-125557515D01*
X169821571Y-125557957D01*
X169803394Y-125558385D01*
X169776047Y-125558794D01*
X169740101Y-125559183D01*
X169696126Y-125559548D01*
X169644691Y-125559886D01*
X169586366Y-125560195D01*
X169521720Y-125560472D01*
X169451324Y-125560715D01*
X169375748Y-125560919D01*
X169295560Y-125561083D01*
X169211332Y-125561203D01*
X169123632Y-125561278D01*
X169033030Y-125561303D01*
X168235509Y-125561303D01*
X168235509Y-125296337D01*
X168235509Y-125031371D01*
X166910679Y-125031371D01*
X165585850Y-125031371D01*
X165585850Y-125296337D01*
X165585850Y-125561303D01*
X164788329Y-125561303D01*
X163990808Y-125561303D01*
X163990808Y-124055457D01*
X163990808Y-122730628D01*
X164171824Y-122730628D01*
X164171824Y-124055457D01*
X164171824Y-125380287D01*
X164787211Y-125380287D01*
X165402597Y-125380287D01*
X165402309Y-125121219D01*
X165402308Y-125120456D01*
X165402318Y-125055831D01*
X165402507Y-125001191D01*
X165402886Y-124956034D01*
X165403466Y-124919859D01*
X165404257Y-124892164D01*
X165405270Y-124872448D01*
X165406516Y-124860207D01*
X165408005Y-124854942D01*
X165408269Y-124854735D01*
X165410828Y-124854022D01*
X165416157Y-124853357D01*
X165424592Y-124852739D01*
X165436468Y-124852167D01*
X165452122Y-124851637D01*
X165471889Y-124851150D01*
X165496106Y-124850704D01*
X165525107Y-124850296D01*
X165559229Y-124849925D01*
X165598808Y-124849590D01*
X165644178Y-124849288D01*
X165695677Y-124849020D01*
X165753640Y-124848781D01*
X165818403Y-124848572D01*
X165890302Y-124848391D01*
X165969671Y-124848235D01*
X166056848Y-124848104D01*
X166152168Y-124847996D01*
X166255967Y-124847908D01*
X166368581Y-124847841D01*
X166490345Y-124847790D01*
X166621595Y-124847757D01*
X166762667Y-124847738D01*
X166913897Y-124847732D01*
X168413806Y-124847732D01*
X168415166Y-125114009D01*
X168416525Y-125380287D01*
X169034342Y-125381620D01*
X169652158Y-125382954D01*
X169652158Y-124055457D01*
X169652158Y-122727961D01*
X169034342Y-122729295D01*
X168416525Y-122730628D01*
X168415166Y-122996905D01*
X168413806Y-123263183D01*
X166913897Y-123263183D01*
X166870945Y-123263183D01*
X166722564Y-123263173D01*
X166584247Y-123263150D01*
X166455660Y-123263112D01*
X166336466Y-123263057D01*
X166226329Y-123262984D01*
X166124914Y-123262891D01*
X166031885Y-123262776D01*
X165946905Y-123262639D01*
X165869640Y-123262476D01*
X165799753Y-123262287D01*
X165736908Y-123262070D01*
X165680771Y-123261824D01*
X165631004Y-123261546D01*
X165587272Y-123261236D01*
X165549239Y-123260891D01*
X165516570Y-123260510D01*
X165488929Y-123260091D01*
X165465979Y-123259634D01*
X165447386Y-123259135D01*
X165432812Y-123258594D01*
X165421923Y-123258009D01*
X165414383Y-123257378D01*
X165409855Y-123256700D01*
X165408005Y-123255973D01*
X165407987Y-123255951D01*
X165406501Y-123250612D01*
X165405258Y-123238293D01*
X165404247Y-123218492D01*
X165403459Y-123190707D01*
X165402881Y-123154436D01*
X165402504Y-123109179D01*
X165402317Y-123054432D01*
X165402309Y-122989695D01*
X165402597Y-122730628D01*
X164787211Y-122730628D01*
X164171824Y-122730628D01*
X163990808Y-122730628D01*
X163990808Y-122549611D01*
X164788329Y-122549611D01*
X165585850Y-122549611D01*
X165585850Y-122814577D01*
G37*
G36*
X171597428Y-127047358D02*
G01*
X171695806Y-127048785D01*
X171697225Y-127157657D01*
X171698643Y-127266529D01*
X172071284Y-127266529D01*
X172123911Y-127266540D01*
X172193868Y-127266616D01*
X172254619Y-127266803D01*
X172306932Y-127267145D01*
X172351576Y-127267686D01*
X172389322Y-127268472D01*
X172420939Y-127269546D01*
X172447196Y-127270952D01*
X172468862Y-127272735D01*
X172486706Y-127274940D01*
X172501499Y-127277609D01*
X172514008Y-127280788D01*
X172525005Y-127284521D01*
X172535257Y-127288852D01*
X172545535Y-127293826D01*
X172577877Y-127313914D01*
X172612417Y-127346359D01*
X172640607Y-127386790D01*
X172662051Y-127434725D01*
X172663616Y-127439312D01*
X172669676Y-127460083D01*
X172673803Y-127481495D01*
X172676509Y-127506828D01*
X172678303Y-127539366D01*
X172678385Y-127600573D01*
X172671966Y-127669199D01*
X172658070Y-127737831D01*
X172636213Y-127809578D01*
X172631410Y-127822134D01*
X172622338Y-127843256D01*
X172611213Y-127867357D01*
X172599081Y-127892343D01*
X172586993Y-127916114D01*
X172575994Y-127936575D01*
X172567134Y-127951629D01*
X172561460Y-127959178D01*
X172558221Y-127960268D01*
X172549329Y-127958949D01*
X172534515Y-127953813D01*
X172512681Y-127944460D01*
X172482729Y-127930489D01*
X172469608Y-127924254D01*
X172445892Y-127913140D01*
X172426432Y-127904227D01*
X172412960Y-127898301D01*
X172407206Y-127896151D01*
X172405153Y-127895622D01*
X172398000Y-127890545D01*
X172396918Y-127888480D01*
X172397843Y-127879359D01*
X172403751Y-127863318D01*
X172414963Y-127839388D01*
X172429182Y-127808155D01*
X172445881Y-127760897D01*
X172455989Y-127716093D01*
X172459445Y-127674835D01*
X172456189Y-127638213D01*
X172446160Y-127607319D01*
X172429295Y-127583243D01*
X172426417Y-127580380D01*
X172419972Y-127574325D01*
X172413299Y-127569129D01*
X172405609Y-127564726D01*
X172396112Y-127561051D01*
X172384018Y-127558038D01*
X172368539Y-127555620D01*
X172348883Y-127553734D01*
X172324261Y-127552311D01*
X172293885Y-127551288D01*
X172256963Y-127550599D01*
X172212706Y-127550177D01*
X172160324Y-127549957D01*
X172099029Y-127549873D01*
X172028029Y-127549859D01*
X171698430Y-127549859D01*
X171698430Y-127751147D01*
X171698430Y-127952434D01*
X171731223Y-127967136D01*
X171735787Y-127969189D01*
X171758046Y-127979306D01*
X171783890Y-127991173D01*
X171808614Y-128002630D01*
X171812033Y-128004221D01*
X171840048Y-128017118D01*
X171870653Y-128031019D01*
X171897810Y-128043180D01*
X171901339Y-128044746D01*
X171928914Y-128057117D01*
X171958540Y-128070583D01*
X171984383Y-128082497D01*
X171987776Y-128084076D01*
X172014532Y-128096404D01*
X172044198Y-128109920D01*
X172070956Y-128121971D01*
X172080280Y-128126155D01*
X172104583Y-128137160D01*
X172134051Y-128150596D01*
X172165783Y-128165140D01*
X172196881Y-128179467D01*
X172207590Y-128184407D01*
X172243062Y-128200680D01*
X172280595Y-128217787D01*
X172316333Y-128233974D01*
X172346416Y-128247486D01*
X172348946Y-128248615D01*
X172378048Y-128261657D01*
X172407452Y-128274915D01*
X172433861Y-128286897D01*
X172453976Y-128296112D01*
X172458839Y-128298351D01*
X172480515Y-128308211D01*
X172507894Y-128320542D01*
X172537961Y-128333988D01*
X172567702Y-128347196D01*
X172642077Y-128380090D01*
X172694481Y-128353567D01*
X172750610Y-128323272D01*
X172823459Y-128277102D01*
X172892138Y-128224728D01*
X172959557Y-128164070D01*
X172983592Y-128140016D01*
X173028890Y-128090004D01*
X173070011Y-128038385D01*
X173105267Y-127987349D01*
X173132968Y-127939089D01*
X173139772Y-127926704D01*
X173146864Y-127916237D01*
X173151195Y-127912855D01*
X173151591Y-127913066D01*
X173158317Y-127917647D01*
X173171865Y-127927350D01*
X173190898Y-127941204D01*
X173214080Y-127958237D01*
X173240075Y-127977478D01*
X173245380Y-127981425D01*
X173270613Y-128000439D01*
X173292451Y-128017273D01*
X173309623Y-128030922D01*
X173320863Y-128040381D01*
X173324902Y-128044648D01*
X173324902Y-128044702D01*
X173322410Y-128052589D01*
X173315771Y-128067296D01*
X173306142Y-128086630D01*
X173294676Y-128108397D01*
X173282529Y-128130405D01*
X173270856Y-128150458D01*
X173260812Y-128166364D01*
X173253077Y-128177566D01*
X173209456Y-128233695D01*
X173157198Y-128291121D01*
X173097555Y-128348691D01*
X173031780Y-128405252D01*
X172961125Y-128459651D01*
X172886841Y-128510735D01*
X172834808Y-128543258D01*
X172756109Y-128588906D01*
X172670447Y-128635058D01*
X172579738Y-128680787D01*
X172485899Y-128725167D01*
X172390844Y-128767269D01*
X172296489Y-128806167D01*
X172204751Y-128840933D01*
X172200968Y-128842300D01*
X172181624Y-128849333D01*
X172157844Y-128858022D01*
X172133918Y-128866800D01*
X172128314Y-128868851D01*
X172086353Y-128883723D01*
X172036887Y-128900574D01*
X171982173Y-128918685D01*
X171924469Y-128937330D01*
X171866034Y-128955789D01*
X171809126Y-128973337D01*
X171756003Y-128989253D01*
X171708924Y-129002813D01*
X171694435Y-129006839D01*
X171666080Y-129014568D01*
X171635523Y-129022746D01*
X171604525Y-129030917D01*
X171574848Y-129038625D01*
X171548253Y-129045414D01*
X171526502Y-129050827D01*
X171511357Y-129054410D01*
X171504580Y-129055705D01*
X171502703Y-129051527D01*
X171501097Y-129037317D01*
X171499957Y-129012933D01*
X171499276Y-128978272D01*
X171499050Y-128933231D01*
X171499050Y-128810757D01*
X171586934Y-128788390D01*
X171606533Y-128783379D01*
X171638279Y-128775171D01*
X171667662Y-128767472D01*
X171692079Y-128760965D01*
X171708924Y-128756336D01*
X171712997Y-128755179D01*
X171733000Y-128749497D01*
X171759320Y-128742020D01*
X171789006Y-128733587D01*
X171819107Y-128725036D01*
X171915783Y-128696470D01*
X172034203Y-128658206D01*
X172144990Y-128618573D01*
X172247192Y-128577914D01*
X172339857Y-128536575D01*
X172343039Y-128535046D01*
X172361469Y-128525191D01*
X172372750Y-128517253D01*
X172376043Y-128511959D01*
X172370512Y-128510033D01*
X172366263Y-128508763D01*
X172354000Y-128503814D01*
X172336129Y-128495995D01*
X172314831Y-128486241D01*
X172301661Y-128480133D01*
X172275474Y-128468205D01*
X172250835Y-128457224D01*
X172231708Y-128448969D01*
X172215911Y-128442293D01*
X172194995Y-128433295D01*
X172178517Y-128426036D01*
X172165820Y-128420403D01*
X172140443Y-128409369D01*
X172107348Y-128395151D01*
X172067692Y-128378234D01*
X172022632Y-128359105D01*
X171973325Y-128338251D01*
X171920927Y-128316156D01*
X171866595Y-128293308D01*
X171811485Y-128270192D01*
X171756754Y-128247295D01*
X171703558Y-128225104D01*
X171653054Y-128204103D01*
X171606400Y-128184780D01*
X171564750Y-128167620D01*
X171529262Y-128153110D01*
X171499136Y-128140858D01*
X171497781Y-127846671D01*
X171496426Y-127552483D01*
X171326618Y-127551098D01*
X171156809Y-127549712D01*
X171159426Y-127537980D01*
X171159674Y-127536923D01*
X171162521Y-127525979D01*
X171167510Y-127507663D01*
X171174012Y-127484255D01*
X171181401Y-127458039D01*
X171188973Y-127431260D01*
X171199093Y-127395260D01*
X171209025Y-127359734D01*
X171217421Y-127329492D01*
X171234084Y-127269153D01*
X171366567Y-127267751D01*
X171499050Y-127266349D01*
X171499050Y-127156140D01*
X171499050Y-127045930D01*
X171597428Y-127047358D01*
G37*
%TO.C,J1*%
D12*
X105560000Y-102850000D02*
X105560000Y-100000000D01*
X105560000Y-102850000D02*
X106560000Y-102850000D01*
X106560000Y-111000000D02*
X106560000Y-102850000D01*
X107560000Y-98500000D02*
X120760000Y-98500000D01*
X108560000Y-112500000D02*
X120760000Y-112500000D01*
X120760000Y-103700000D02*
X120760000Y-98500000D01*
X120760000Y-108200000D02*
X120760000Y-105900000D01*
X120760000Y-112500000D02*
X120760000Y-111500000D01*
X109460000Y-97673000D02*
G75*
G02*
X109260000Y-97673000I-100000J0D01*
G01*
X109260000Y-97673000D02*
G75*
G02*
X109460000Y-97673000I100000J0D01*
G01*
%TO.C,S1*%
D13*
X99700000Y-120790000D02*
X99700000Y-130790000D01*
X99700000Y-130790000D02*
X106100000Y-130790000D01*
X106100000Y-120790000D02*
X99700000Y-120790000D01*
X106100000Y-122270000D02*
X106100000Y-120790000D01*
X106100000Y-130790000D02*
X106100000Y-129310000D01*
D12*
X107850000Y-125790000D02*
G75*
G02*
X107650000Y-125790000I-100000J0D01*
G01*
X107650000Y-125790000D02*
G75*
G02*
X107850000Y-125790000I100000J0D01*
G01*
%TD*%
M02*
