%TF.GenerationSoftware,KiCad,Pcbnew,10.0.3*%
%TF.CreationDate,2026-05-20T16:40:04-07:00*%
%TF.ProjectId,Data-Gator_v1.6,44617461-2d47-4617-946f-725f76312e36,rev?*%
%TF.SameCoordinates,Original*%
%TF.FileFunction,Paste,Top*%
%TF.FilePolarity,Positive*%
%FSLAX46Y46*%
G04 Gerber Fmt 4.6, Leading zero omitted, Abs format (unit mm)*
G04 Created by KiCad (PCBNEW 10.0.3) date 2026-05-20 16:40:04*
%MOMM*%
%LPD*%
G01*
G04 APERTURE LIST*
G04 Aperture macros list*
%AMRoundRect*
0 Rectangle with rounded corners*
0 $1 Rounding radius*
0 $2 $3 $4 $5 $6 $7 $8 $9 X,Y pos of 4 corners*
0 Add a 4 corners polygon primitive as box body*
4,1,4,$2,$3,$4,$5,$6,$7,$8,$9,$2,$3,0*
0 Add four circle primitives for the rounded corners*
1,1,$1+$1,$2,$3*
1,1,$1+$1,$4,$5*
1,1,$1+$1,$6,$7*
1,1,$1+$1,$8,$9*
0 Add four rect primitives between the rounded corners*
20,1,$1+$1,$2,$3,$4,$5,0*
20,1,$1+$1,$4,$5,$6,$7,0*
20,1,$1+$1,$6,$7,$8,$9,0*
20,1,$1+$1,$8,$9,$2,$3,0*%
G04 Aperture macros list end*
%ADD10RoundRect,0.225000X-0.225000X-0.250000X0.225000X-0.250000X0.225000X0.250000X-0.225000X0.250000X0*%
%ADD11RoundRect,0.250000X-0.325000X-1.100000X0.325000X-1.100000X0.325000X1.100000X-0.325000X1.100000X0*%
%ADD12RoundRect,0.035000X0.700000X0.105000X-0.700000X0.105000X-0.700000X-0.105000X0.700000X-0.105000X0*%
%ADD13RoundRect,0.250000X0.250000X-0.275000X0.250000X0.275000X-0.250000X0.275000X-0.250000X-0.275000X0*%
%ADD14RoundRect,0.250000X0.275000X-0.850000X0.275000X0.850000X-0.275000X0.850000X-0.275000X-0.850000X0*%
%ADD15RoundRect,0.200000X-0.275000X0.200000X-0.275000X-0.200000X0.275000X-0.200000X0.275000X0.200000X0*%
%ADD16R,0.500000X1.005599*%
%ADD17RoundRect,0.035000X0.105000X-0.700000X0.105000X0.700000X-0.105000X0.700000X-0.105000X-0.700000X0*%
%ADD18RoundRect,0.200000X0.275000X-0.200000X0.275000X0.200000X-0.275000X0.200000X-0.275000X-0.200000X0*%
%ADD19RoundRect,0.250000X0.625000X-0.375000X0.625000X0.375000X-0.625000X0.375000X-0.625000X-0.375000X0*%
%ADD20RoundRect,0.200000X-0.200000X-0.275000X0.200000X-0.275000X0.200000X0.275000X-0.200000X0.275000X0*%
%ADD21R,1.500000X1.100000*%
%ADD22RoundRect,0.225000X0.250000X-0.225000X0.250000X0.225000X-0.250000X0.225000X-0.250000X-0.225000X0*%
%ADD23RoundRect,0.225000X-0.250000X0.225000X-0.250000X-0.225000X0.250000X-0.225000X0.250000X0.225000X0*%
%ADD24RoundRect,0.200000X0.200000X0.275000X-0.200000X0.275000X-0.200000X-0.275000X0.200000X-0.275000X0*%
G04 APERTURE END LIST*
D10*
%TO.C,C2*%
X102000000Y-122750000D03*
X103550000Y-122750000D03*
%TD*%
D11*
%TO.C,C3*%
X115572201Y-84452799D03*
X118522201Y-84452799D03*
%TD*%
D12*
%TO.C,U3*%
X137150000Y-86000000D03*
X137150000Y-85500000D03*
X137150000Y-85000000D03*
X137150000Y-84500000D03*
X137150000Y-84000000D03*
X132850000Y-84000000D03*
X132850000Y-84500000D03*
X132850000Y-85000000D03*
X132850000Y-85500000D03*
X132850000Y-86000000D03*
%TD*%
D11*
%TO.C,C1*%
X101525000Y-128250000D03*
X104475000Y-128250000D03*
%TD*%
D13*
%TO.C,J12*%
X166943000Y-116215000D03*
D14*
X165468000Y-114690000D03*
X168418000Y-114690000D03*
%TD*%
D15*
%TO.C,R3*%
X110547201Y-76627799D03*
X110547201Y-78277799D03*
%TD*%
D16*
%TO.C,U2*%
X116047201Y-76247201D03*
X115097200Y-76247201D03*
X114147199Y-76247201D03*
X114147199Y-78952799D03*
X116047201Y-78952799D03*
%TD*%
D17*
%TO.C,U4*%
X112500000Y-131000000D03*
X113000000Y-131000000D03*
X113500000Y-131000000D03*
X114000000Y-131000000D03*
X114500000Y-131000000D03*
X114500000Y-126700000D03*
X114000000Y-126700000D03*
X113500000Y-126700000D03*
X113000000Y-126700000D03*
X112500000Y-126700000D03*
%TD*%
D15*
%TO.C,R2*%
X138650000Y-123675000D03*
X138650000Y-125325000D03*
%TD*%
D18*
%TO.C,R14*%
X165000000Y-88825000D03*
X165000000Y-87175000D03*
%TD*%
%TO.C,R15*%
X165000000Y-92325000D03*
X165000000Y-90675000D03*
%TD*%
D19*
%TO.C,D1*%
X130150000Y-129900000D03*
X130150000Y-127100000D03*
%TD*%
D20*
%TO.C,R9*%
X141175000Y-85000000D03*
X142825000Y-85000000D03*
%TD*%
D21*
%TO.C,S2*%
X170050000Y-86960000D03*
X178950000Y-86960000D03*
X170050000Y-89500000D03*
X178950000Y-89500000D03*
X170050000Y-92040000D03*
X178950000Y-92040000D03*
%TD*%
D18*
%TO.C,R13*%
X165000000Y-85325000D03*
X165000000Y-83675000D03*
%TD*%
D20*
%TO.C,R1*%
X133325000Y-130000000D03*
X134975000Y-130000000D03*
%TD*%
%TO.C,R10*%
X142675000Y-82000000D03*
X144325000Y-82000000D03*
%TD*%
D22*
%TO.C,C5*%
X163500000Y-99275000D03*
X163500000Y-97725000D03*
%TD*%
D23*
%TO.C,C4*%
X110547201Y-83677799D03*
X110547201Y-85227799D03*
%TD*%
%TO.C,C6*%
X109500000Y-129725000D03*
X109500000Y-131275000D03*
%TD*%
D15*
%TO.C,R4*%
X122000000Y-129675000D03*
X122000000Y-131325000D03*
%TD*%
D20*
%TO.C,R11*%
X142675000Y-79000000D03*
X144325000Y-79000000D03*
%TD*%
%TO.C,R8*%
X141175000Y-88000000D03*
X142825000Y-88000000D03*
%TD*%
D15*
%TO.C,R12*%
X117500000Y-123027799D03*
X117500000Y-124677799D03*
%TD*%
D16*
%TO.C,U1*%
X111599998Y-124352799D03*
X112549999Y-124352799D03*
X113500000Y-124352799D03*
X113500000Y-121647201D03*
X111599998Y-121647201D03*
%TD*%
D24*
%TO.C,R17*%
X126330000Y-88765000D03*
X124680000Y-88765000D03*
%TD*%
%TO.C,R16*%
X126325000Y-85500000D03*
X124675000Y-85500000D03*
%TD*%
D19*
%TO.C,D2*%
X125500000Y-129900000D03*
X125500000Y-127100000D03*
%TD*%
D20*
%TO.C,R7*%
X154175000Y-80000000D03*
X155825000Y-80000000D03*
%TD*%
M02*
