%TF.GenerationSoftware,KiCad,Pcbnew,10.0.3*%
%TF.CreationDate,2026-05-20T16:45:18-07:00*%
%TF.ProjectId,Data-Gator_v1.6,44617461-2d47-4617-946f-725f76312e36,rev?*%
%TF.SameCoordinates,Original*%
%TF.FileFunction,Copper,L2,Inr*%
%TF.FilePolarity,Positive*%
%FSLAX46Y46*%
G04 Gerber Fmt 4.6, Leading zero omitted, Abs format (unit mm)*
G04 Created by KiCad (PCBNEW 10.0.3) date 2026-05-20 16:45:18*
%MOMM*%
%LPD*%
G01*
G04 APERTURE LIST*
%TA.AperFunction,ComponentPad*%
%ADD10R,1.350000X1.350000*%
%TD*%
%TA.AperFunction,ComponentPad*%
%ADD11C,1.350000*%
%TD*%
%TA.AperFunction,ComponentPad*%
%ADD12R,1.700000X1.700000*%
%TD*%
%TA.AperFunction,ComponentPad*%
%ADD13C,1.700000*%
%TD*%
%TA.AperFunction,ComponentPad*%
%ADD14O,1.800000X3.600000*%
%TD*%
%TA.AperFunction,ComponentPad*%
%ADD15R,1.308000X1.308000*%
%TD*%
%TA.AperFunction,ComponentPad*%
%ADD16C,1.308000*%
%TD*%
%TA.AperFunction,ViaPad*%
%ADD17C,0.600000*%
%TD*%
G04 APERTURE END LIST*
D10*
%TO.N,/MCU/LORA_RST*%
%TO.C,J6*%
X181195000Y-119255000D03*
D11*
%TO.N,GND*%
X181195000Y-121755000D03*
%TD*%
D10*
%TO.N,Net-(U3-AIN1)*%
%TO.C,J9*%
X147000000Y-73000000D03*
D11*
%TO.N,GND*%
X144500000Y-73000000D03*
%TO.N,/Sensors/PWR_OUT*%
X142000000Y-73000000D03*
%TD*%
D10*
%TO.N,/MCU/SDA*%
%TO.C,J5*%
X180500000Y-73000000D03*
D11*
%TO.N,/MCU/SCL*%
X178000000Y-73000000D03*
%TO.N,/Sensors/PWR_OUT*%
X175500000Y-73000000D03*
%TO.N,GND*%
X173000000Y-73000000D03*
%TD*%
D10*
%TO.N,Net-(U3-AIN0)*%
%TO.C,J8*%
X146975750Y-63500000D03*
D11*
%TO.N,GND*%
X144475750Y-63500000D03*
%TO.N,/Sensors/PWR_OUT*%
X141975750Y-63500000D03*
%TD*%
D10*
%TO.N,GND*%
%TO.C,J7*%
X156725750Y-127500000D03*
D11*
%TO.N,/Sensors/PWR_OUT*%
X154225750Y-127500000D03*
%TD*%
D10*
%TO.N,/MCU/SDA*%
%TO.C,J3*%
X165000000Y-73000000D03*
D11*
%TO.N,/MCU/SCL*%
X162500000Y-73000000D03*
%TO.N,/Sensors/PWR_OUT*%
X160000000Y-73000000D03*
%TO.N,GND*%
X157500000Y-73000000D03*
%TD*%
D10*
%TO.N,/MCU/SDA*%
%TO.C,J4*%
X165000000Y-63500000D03*
D11*
%TO.N,/MCU/SCL*%
X162500000Y-63500000D03*
%TO.N,/Sensors/PWR_OUT*%
X160000000Y-63500000D03*
%TO.N,GND*%
X157500000Y-63500000D03*
%TD*%
D12*
%TO.N,/MCU/SD_PWR_EN*%
%TO.C,J14*%
X168500000Y-109120000D03*
D13*
%TO.N,/MCU/D9*%
X168500000Y-106580000D03*
%TO.N,/MCU/D12*%
X168500000Y-104040000D03*
%TO.N,/MCU/D13*%
X168500000Y-101500000D03*
%TO.N,/MCU/A3*%
X168500000Y-98960000D03*
%TO.N,/MCU/A4*%
X168500000Y-96420000D03*
%TD*%
D10*
%TO.N,GND*%
%TO.C,J13*%
X181500000Y-104000000D03*
D11*
%TO.N,+3V3*%
X181500000Y-106500000D03*
%TO.N,/MCU/D10*%
X181500000Y-109000000D03*
%TO.N,/MCU/D11*%
X181500000Y-111500000D03*
%TD*%
D10*
%TO.N,/MCU/SDA*%
%TO.C,J2*%
X180500000Y-63500000D03*
D11*
%TO.N,/MCU/SCL*%
X178000000Y-63500000D03*
%TO.N,/Sensors/PWR_OUT*%
X175500000Y-63500000D03*
%TO.N,GND*%
X173000000Y-63500000D03*
%TD*%
D14*
%TO.N,/MCU/RESET*%
%TO.C,U5*%
X111500000Y-117300000D03*
%TO.N,+3V3*%
X114040000Y-117300000D03*
%TO.N,unconnected-(U5-NC-Pad3)*%
X116580000Y-117300000D03*
%TO.N,GND*%
X119120000Y-117300000D03*
%TO.N,unconnected-(U5-EN-Pad5)*%
X121660000Y-117300000D03*
%TO.N,/MCU/SCK*%
X124200000Y-117300000D03*
%TO.N,/MCU/MOSI*%
X126740000Y-117300000D03*
%TO.N,/MCU/MISO*%
X129280000Y-117300000D03*
%TO.N,unconnected-(U5-SCL-Pad9)*%
X131820000Y-117300000D03*
%TO.N,unconnected-(U5-SDA-Pad10)*%
X134360000Y-117300000D03*
%TO.N,/MCU/D9*%
X136900000Y-117300000D03*
%TO.N,/MCU/D7*%
X139440000Y-117300000D03*
%TO.N,/MCU/SD_PWR_EN*%
X141980000Y-117300000D03*
%TO.N,/MCU/LORA_RST*%
X144520000Y-117300000D03*
%TO.N,/MCU/PERF_PWR_EN*%
X147060000Y-117300000D03*
%TO.N,/MCU/DONE*%
X149600000Y-117300000D03*
%TO.N,unconnected-(U5-TX-Pad17)*%
X152140000Y-117300000D03*
%TO.N,unconnected-(U5-RX-Pad18)*%
X154680000Y-117300000D03*
%TO.N,/MCU/D10*%
X154680000Y-93200000D03*
%TO.N,/MCU/D11*%
X152140000Y-93200000D03*
%TO.N,/MCU/D12*%
X149600000Y-93200000D03*
%TO.N,/MCU/D13*%
X147060000Y-93200000D03*
%TO.N,/MCU/SEL_3*%
X144520000Y-93200000D03*
%TO.N,/MCU/SEL_2*%
X141980000Y-93200000D03*
%TO.N,/MCU/SEL_1*%
X139440000Y-93200000D03*
%TO.N,/MCU/A3*%
X136900000Y-93200000D03*
%TO.N,/MCU/A4*%
X134360000Y-93200000D03*
%TO.N,/MCU/SDA*%
X131820000Y-93200000D03*
%TO.N,/MCU/SCL*%
X129280000Y-93200000D03*
%TO.N,GND*%
X126740000Y-93200000D03*
%TO.N,+3V3*%
X124200000Y-93200000D03*
%TO.N,unconnected-(U5-VCC-Pad32)*%
X121660000Y-93200000D03*
%TD*%
D10*
%TO.N,Net-(U3-AIN2)*%
%TO.C,J10*%
X134000000Y-73000000D03*
D11*
%TO.N,GND*%
X131500000Y-73000000D03*
%TO.N,/Sensors/PWR_OUT*%
X129000000Y-73000000D03*
%TD*%
D12*
%TO.N,+3V3*%
%TO.C,J15*%
X120200000Y-69500000D03*
D13*
%TO.N,GND*%
X117660000Y-69500000D03*
%TO.N,/MCU/SCL*%
X115120000Y-69500000D03*
%TO.N,/MCU/SDA*%
X112580000Y-69500000D03*
%TO.N,unconnected-(J15-Pin_5-Pad5)*%
X110040000Y-69500000D03*
%TO.N,unconnected-(J15-Pin_6-Pad6)*%
X107500000Y-69500000D03*
%TD*%
D10*
%TO.N,Net-(U3-AIN3)*%
%TO.C,J11*%
X133975750Y-63500000D03*
D11*
%TO.N,GND*%
X131475750Y-63500000D03*
%TO.N,/Sensors/PWR_OUT*%
X128975750Y-63500000D03*
%TD*%
D15*
%TO.N,Net-(U4-~{RST})*%
%TO.C,S1*%
X106500000Y-125790000D03*
D16*
%TO.N,unconnected-(S1-Pad2)*%
X106500000Y-123250000D03*
%TO.N,/MCU/RESET*%
X106500000Y-128330000D03*
%TD*%
D17*
%TO.N,GND*%
X175000000Y-81500000D03*
X121000000Y-127000000D03*
X166500000Y-90500000D03*
X140500000Y-130000000D03*
X180500000Y-130000000D03*
X145000000Y-86000000D03*
X137000000Y-130000000D03*
X111000000Y-98000000D03*
X185500000Y-130000000D03*
X165500000Y-125000000D03*
X121000000Y-98000000D03*
X150000000Y-101500000D03*
X166500000Y-87000000D03*
X107500000Y-109000000D03*
X166000000Y-100000000D03*
X158500000Y-135000000D03*
X159000000Y-117500000D03*
X105000000Y-106000000D03*
X159500000Y-85000000D03*
X170500000Y-120000000D03*
X148500000Y-135000000D03*
X114000000Y-93000000D03*
X170500000Y-125000000D03*
X111500000Y-125852799D03*
X180000000Y-81500000D03*
X118500000Y-87000000D03*
X165500000Y-130000000D03*
X185000000Y-92500000D03*
X165500000Y-120000000D03*
X154000000Y-112500000D03*
X131000000Y-98000000D03*
X113000000Y-134850000D03*
X166500000Y-93500000D03*
X185500000Y-125000000D03*
X105000000Y-76500000D03*
X155000000Y-101500000D03*
X102000000Y-125250000D03*
X153500000Y-135000000D03*
X145500000Y-125000000D03*
X112500000Y-65000000D03*
X167000000Y-118000000D03*
X170000000Y-81500000D03*
X115097200Y-74500000D03*
X122500000Y-133000000D03*
X105000000Y-101000000D03*
X163500000Y-135000000D03*
X143500000Y-135000000D03*
X178000000Y-120500000D03*
X160500000Y-120000000D03*
X126000000Y-98000000D03*
X159000000Y-80000000D03*
X170500000Y-130000000D03*
X159000000Y-112500000D03*
X110547201Y-74952799D03*
X116000000Y-98000000D03*
X175500000Y-130000000D03*
X133530581Y-134947842D03*
X105000000Y-93200000D03*
X133000000Y-103000000D03*
X138500000Y-135000000D03*
X185000000Y-97500000D03*
X145500000Y-130000000D03*
X117500000Y-65000000D03*
X125000000Y-106500000D03*
X136500000Y-107000000D03*
X107500000Y-65000000D03*
X165000000Y-81500000D03*
X180000000Y-97500000D03*
X147500000Y-85000000D03*
X112047201Y-87452799D03*
X139500000Y-87000000D03*
X108000000Y-116000000D03*
X175000000Y-97500000D03*
%TO.N,/uSD/SD_PWR*%
X105500000Y-130500000D03*
%TO.N,/Sensors/PWR_OUT*%
X114047201Y-81452799D03*
%TO.N,/MCU/SD_PWR_EN*%
X142000000Y-123500000D03*
%TO.N,Net-(U3-AIN0)*%
X139500000Y-85500000D03*
%TO.N,Net-(U3-AIN1)*%
X139500000Y-84000000D03*
%TO.N,+3V3*%
X123500000Y-87000000D03*
X172500000Y-93500000D03*
X177000000Y-92000000D03*
X130500000Y-83000000D03*
X113000000Y-133350000D03*
X115500000Y-120500000D03*
X116000000Y-80000000D03*
X113000000Y-128850000D03*
X123000000Y-90000000D03*
%TO.N,/MCU/SDA*%
X132000000Y-89000000D03*
X129290000Y-86210000D03*
%TO.N,/MCU/SCL*%
X129500000Y-89000000D03*
%TO.N,/MCU/PERF_PWR_EN*%
X111500000Y-112000000D03*
X109547201Y-79952799D03*
X114500000Y-80000000D03*
X122000000Y-121500000D03*
%TO.N,/MCU/A4*%
X138785000Y-98425000D03*
X159000000Y-98425000D03*
%TO.N,/MCU/MOSI*%
X126500000Y-112000000D03*
%TO.N,/MCU/MISO*%
X129000000Y-114000000D03*
%TD*%
%TA.AperFunction,Conductor*%
%TO.N,GND*%
G36*
X186003032Y-60300648D02*
G01*
X186356532Y-60318015D01*
X186368640Y-60319208D01*
X186477576Y-60335367D01*
X186715717Y-60370692D01*
X186727635Y-60373062D01*
X187068008Y-60458321D01*
X187079646Y-60461852D01*
X187409996Y-60580054D01*
X187421237Y-60584710D01*
X187646857Y-60691419D01*
X187738433Y-60734731D01*
X187749150Y-60740459D01*
X188050102Y-60920843D01*
X188060220Y-60927603D01*
X188342049Y-61136622D01*
X188351455Y-61144342D01*
X188611434Y-61379974D01*
X188620025Y-61388565D01*
X188821512Y-61610871D01*
X188855657Y-61648544D01*
X188863377Y-61657950D01*
X189072396Y-61939779D01*
X189079156Y-61949897D01*
X189259533Y-62250837D01*
X189265270Y-62261570D01*
X189415289Y-62578762D01*
X189419945Y-62590003D01*
X189538147Y-62920353D01*
X189541680Y-62931998D01*
X189626934Y-63272351D01*
X189629308Y-63284287D01*
X189680791Y-63631359D01*
X189681984Y-63643468D01*
X189699351Y-63996966D01*
X189699500Y-64003051D01*
X189699500Y-135996948D01*
X189699351Y-136003033D01*
X189681984Y-136356531D01*
X189680791Y-136368640D01*
X189629308Y-136715712D01*
X189626934Y-136727648D01*
X189541680Y-137068001D01*
X189538147Y-137079646D01*
X189419945Y-137409996D01*
X189415289Y-137421237D01*
X189265270Y-137738429D01*
X189259533Y-137749162D01*
X189079156Y-138050102D01*
X189072396Y-138060220D01*
X188863377Y-138342049D01*
X188855657Y-138351455D01*
X188620032Y-138611427D01*
X188611427Y-138620032D01*
X188351455Y-138855657D01*
X188342049Y-138863377D01*
X188060220Y-139072396D01*
X188050102Y-139079156D01*
X187749162Y-139259533D01*
X187738429Y-139265270D01*
X187421237Y-139415289D01*
X187409996Y-139419945D01*
X187079646Y-139538147D01*
X187068001Y-139541680D01*
X186727648Y-139626934D01*
X186715712Y-139629308D01*
X186368640Y-139680791D01*
X186356531Y-139681984D01*
X186023016Y-139698369D01*
X186003031Y-139699351D01*
X185996949Y-139699500D01*
X104003051Y-139699500D01*
X103996968Y-139699351D01*
X103975811Y-139698311D01*
X103643468Y-139681984D01*
X103631359Y-139680791D01*
X103284287Y-139629308D01*
X103272351Y-139626934D01*
X102931998Y-139541680D01*
X102920353Y-139538147D01*
X102590003Y-139419945D01*
X102578762Y-139415289D01*
X102261570Y-139265270D01*
X102250842Y-139259535D01*
X101949897Y-139079156D01*
X101939779Y-139072396D01*
X101657950Y-138863377D01*
X101648544Y-138855657D01*
X101532295Y-138750295D01*
X101388565Y-138620025D01*
X101379974Y-138611434D01*
X101144342Y-138351455D01*
X101136622Y-138342049D01*
X100927603Y-138060220D01*
X100920843Y-138050102D01*
X100740459Y-137749150D01*
X100734729Y-137738429D01*
X100584710Y-137421237D01*
X100580054Y-137409996D01*
X100461852Y-137079646D01*
X100458319Y-137068001D01*
X100373062Y-136727635D01*
X100370691Y-136715712D01*
X100322799Y-136392849D01*
X100320702Y-136378711D01*
X101649500Y-136378711D01*
X101649500Y-136621288D01*
X101681161Y-136861785D01*
X101743947Y-137096104D01*
X101836773Y-137320205D01*
X101836776Y-137320212D01*
X101958064Y-137530289D01*
X101958066Y-137530292D01*
X101958067Y-137530293D01*
X102105733Y-137722736D01*
X102105739Y-137722743D01*
X102277256Y-137894260D01*
X102277262Y-137894265D01*
X102469711Y-138041936D01*
X102679788Y-138163224D01*
X102903900Y-138256054D01*
X103138211Y-138318838D01*
X103314519Y-138342049D01*
X103378711Y-138350500D01*
X103378712Y-138350500D01*
X103621289Y-138350500D01*
X103685481Y-138342049D01*
X103861789Y-138318838D01*
X104096100Y-138256054D01*
X104320212Y-138163224D01*
X104530289Y-138041936D01*
X104722738Y-137894265D01*
X104894265Y-137722738D01*
X105041936Y-137530289D01*
X105163224Y-137320212D01*
X105256054Y-137096100D01*
X105318838Y-136861789D01*
X105350500Y-136621288D01*
X105350500Y-136378712D01*
X105350500Y-136378711D01*
X114649500Y-136378711D01*
X114649500Y-136621288D01*
X114681161Y-136861785D01*
X114743947Y-137096104D01*
X114836773Y-137320205D01*
X114836776Y-137320212D01*
X114958064Y-137530289D01*
X114958066Y-137530292D01*
X114958067Y-137530293D01*
X115105733Y-137722736D01*
X115105739Y-137722743D01*
X115277256Y-137894260D01*
X115277262Y-137894265D01*
X115469711Y-138041936D01*
X115679788Y-138163224D01*
X115903900Y-138256054D01*
X116138211Y-138318838D01*
X116314519Y-138342049D01*
X116378711Y-138350500D01*
X116378712Y-138350500D01*
X116621289Y-138350500D01*
X116685481Y-138342049D01*
X116861789Y-138318838D01*
X117096100Y-138256054D01*
X117320212Y-138163224D01*
X117530289Y-138041936D01*
X117722738Y-137894265D01*
X117894265Y-137722738D01*
X118041936Y-137530289D01*
X118163224Y-137320212D01*
X118256054Y-137096100D01*
X118318838Y-136861789D01*
X118350500Y-136621288D01*
X118350500Y-136378712D01*
X118350500Y-136378711D01*
X169649500Y-136378711D01*
X169649500Y-136621288D01*
X169681161Y-136861785D01*
X169743947Y-137096104D01*
X169836773Y-137320205D01*
X169836776Y-137320212D01*
X169958064Y-137530289D01*
X169958066Y-137530292D01*
X169958067Y-137530293D01*
X170105733Y-137722736D01*
X170105739Y-137722743D01*
X170277256Y-137894260D01*
X170277262Y-137894265D01*
X170469711Y-138041936D01*
X170679788Y-138163224D01*
X170903900Y-138256054D01*
X171138211Y-138318838D01*
X171314519Y-138342049D01*
X171378711Y-138350500D01*
X171378712Y-138350500D01*
X171621289Y-138350500D01*
X171685481Y-138342049D01*
X171861789Y-138318838D01*
X172096100Y-138256054D01*
X172320212Y-138163224D01*
X172530289Y-138041936D01*
X172722738Y-137894265D01*
X172894265Y-137722738D01*
X173041936Y-137530289D01*
X173163224Y-137320212D01*
X173256054Y-137096100D01*
X173318838Y-136861789D01*
X173350500Y-136621288D01*
X173350500Y-136378712D01*
X173350500Y-136378711D01*
X184649500Y-136378711D01*
X184649500Y-136621288D01*
X184681161Y-136861785D01*
X184743947Y-137096104D01*
X184836773Y-137320205D01*
X184836776Y-137320212D01*
X184958064Y-137530289D01*
X184958066Y-137530292D01*
X184958067Y-137530293D01*
X185105733Y-137722736D01*
X185105739Y-137722743D01*
X185277256Y-137894260D01*
X185277262Y-137894265D01*
X185469711Y-138041936D01*
X185679788Y-138163224D01*
X185903900Y-138256054D01*
X186138211Y-138318838D01*
X186314519Y-138342049D01*
X186378711Y-138350500D01*
X186378712Y-138350500D01*
X186621289Y-138350500D01*
X186685481Y-138342049D01*
X186861789Y-138318838D01*
X187096100Y-138256054D01*
X187320212Y-138163224D01*
X187530289Y-138041936D01*
X187722738Y-137894265D01*
X187894265Y-137722738D01*
X188041936Y-137530289D01*
X188163224Y-137320212D01*
X188256054Y-137096100D01*
X188318838Y-136861789D01*
X188350500Y-136621288D01*
X188350500Y-136378712D01*
X188318838Y-136138211D01*
X188256054Y-135903900D01*
X188163224Y-135679788D01*
X188041936Y-135469711D01*
X187894265Y-135277262D01*
X187894260Y-135277256D01*
X187722743Y-135105739D01*
X187722736Y-135105733D01*
X187530293Y-134958067D01*
X187530292Y-134958066D01*
X187530289Y-134958064D01*
X187320212Y-134836776D01*
X187320205Y-134836773D01*
X187096104Y-134743947D01*
X186861785Y-134681161D01*
X186621289Y-134649500D01*
X186621288Y-134649500D01*
X186378712Y-134649500D01*
X186378711Y-134649500D01*
X186138214Y-134681161D01*
X185903895Y-134743947D01*
X185679794Y-134836773D01*
X185679785Y-134836777D01*
X185469706Y-134958067D01*
X185277263Y-135105733D01*
X185277256Y-135105739D01*
X185105739Y-135277256D01*
X185105733Y-135277263D01*
X184958067Y-135469706D01*
X184836777Y-135679785D01*
X184836773Y-135679794D01*
X184743947Y-135903895D01*
X184681161Y-136138214D01*
X184649500Y-136378711D01*
X173350500Y-136378711D01*
X173318838Y-136138211D01*
X173256054Y-135903900D01*
X173163224Y-135679788D01*
X173041936Y-135469711D01*
X172894265Y-135277262D01*
X172894260Y-135277256D01*
X172722743Y-135105739D01*
X172722736Y-135105733D01*
X172530293Y-134958067D01*
X172530292Y-134958066D01*
X172530289Y-134958064D01*
X172320212Y-134836776D01*
X172320205Y-134836773D01*
X172096104Y-134743947D01*
X171861785Y-134681161D01*
X171621289Y-134649500D01*
X171621288Y-134649500D01*
X171378712Y-134649500D01*
X171378711Y-134649500D01*
X171138214Y-134681161D01*
X170903895Y-134743947D01*
X170679794Y-134836773D01*
X170679785Y-134836777D01*
X170469706Y-134958067D01*
X170277263Y-135105733D01*
X170277256Y-135105739D01*
X170105739Y-135277256D01*
X170105733Y-135277263D01*
X169958067Y-135469706D01*
X169836777Y-135679785D01*
X169836773Y-135679794D01*
X169743947Y-135903895D01*
X169681161Y-136138214D01*
X169649500Y-136378711D01*
X118350500Y-136378711D01*
X118318838Y-136138211D01*
X118256054Y-135903900D01*
X118163224Y-135679788D01*
X118041936Y-135469711D01*
X117894265Y-135277262D01*
X117894260Y-135277256D01*
X117722743Y-135105739D01*
X117722736Y-135105733D01*
X117530293Y-134958067D01*
X117530292Y-134958066D01*
X117530289Y-134958064D01*
X117320212Y-134836776D01*
X117320205Y-134836773D01*
X117096104Y-134743947D01*
X116861785Y-134681161D01*
X116621289Y-134649500D01*
X116621288Y-134649500D01*
X116378712Y-134649500D01*
X116378711Y-134649500D01*
X116138214Y-134681161D01*
X115903895Y-134743947D01*
X115679794Y-134836773D01*
X115679785Y-134836777D01*
X115469706Y-134958067D01*
X115277263Y-135105733D01*
X115277256Y-135105739D01*
X115105739Y-135277256D01*
X115105733Y-135277263D01*
X114958067Y-135469706D01*
X114836777Y-135679785D01*
X114836773Y-135679794D01*
X114743947Y-135903895D01*
X114681161Y-136138214D01*
X114649500Y-136378711D01*
X105350500Y-136378711D01*
X105318838Y-136138211D01*
X105256054Y-135903900D01*
X105163224Y-135679788D01*
X105041936Y-135469711D01*
X104894265Y-135277262D01*
X104894260Y-135277256D01*
X104722743Y-135105739D01*
X104722736Y-135105733D01*
X104530293Y-134958067D01*
X104530292Y-134958066D01*
X104530289Y-134958064D01*
X104320212Y-134836776D01*
X104320205Y-134836773D01*
X104096104Y-134743947D01*
X103861785Y-134681161D01*
X103621289Y-134649500D01*
X103621288Y-134649500D01*
X103378712Y-134649500D01*
X103378711Y-134649500D01*
X103138214Y-134681161D01*
X102903895Y-134743947D01*
X102679794Y-134836773D01*
X102679785Y-134836777D01*
X102469706Y-134958067D01*
X102277263Y-135105733D01*
X102277256Y-135105739D01*
X102105739Y-135277256D01*
X102105733Y-135277263D01*
X101958067Y-135469706D01*
X101836777Y-135679785D01*
X101836773Y-135679794D01*
X101743947Y-135903895D01*
X101681161Y-136138214D01*
X101649500Y-136378711D01*
X100320702Y-136378711D01*
X100319208Y-136368642D01*
X100319208Y-136368640D01*
X100318015Y-136356530D01*
X100300649Y-136003032D01*
X100300500Y-135996948D01*
X100300500Y-133271153D01*
X112199500Y-133271153D01*
X112199500Y-133428846D01*
X112230261Y-133583489D01*
X112230264Y-133583501D01*
X112290602Y-133729172D01*
X112290609Y-133729185D01*
X112378210Y-133860288D01*
X112378213Y-133860292D01*
X112489707Y-133971786D01*
X112489711Y-133971789D01*
X112620814Y-134059390D01*
X112620827Y-134059397D01*
X112766498Y-134119735D01*
X112766503Y-134119737D01*
X112921153Y-134150499D01*
X112921156Y-134150500D01*
X112921158Y-134150500D01*
X113078844Y-134150500D01*
X113078845Y-134150499D01*
X113233497Y-134119737D01*
X113379179Y-134059394D01*
X113510289Y-133971789D01*
X113621789Y-133860289D01*
X113709394Y-133729179D01*
X113769737Y-133583497D01*
X113800500Y-133428842D01*
X113800500Y-133271158D01*
X113800500Y-133271155D01*
X113800499Y-133271153D01*
X113769738Y-133116510D01*
X113769737Y-133116503D01*
X113769735Y-133116498D01*
X113709397Y-132970827D01*
X113709390Y-132970814D01*
X113621789Y-132839711D01*
X113621786Y-132839707D01*
X113510292Y-132728213D01*
X113510288Y-132728210D01*
X113379185Y-132640609D01*
X113379172Y-132640602D01*
X113233501Y-132580264D01*
X113233489Y-132580261D01*
X113078845Y-132549500D01*
X113078842Y-132549500D01*
X112921158Y-132549500D01*
X112921155Y-132549500D01*
X112766510Y-132580261D01*
X112766498Y-132580264D01*
X112620827Y-132640602D01*
X112620814Y-132640609D01*
X112489711Y-132728210D01*
X112489707Y-132728213D01*
X112378213Y-132839707D01*
X112378210Y-132839711D01*
X112290609Y-132970814D01*
X112290602Y-132970827D01*
X112230264Y-133116498D01*
X112230261Y-133116510D01*
X112199500Y-133271153D01*
X100300500Y-133271153D01*
X100300500Y-130421153D01*
X104699500Y-130421153D01*
X104699500Y-130578846D01*
X104730261Y-130733489D01*
X104730264Y-130733501D01*
X104790602Y-130879172D01*
X104790609Y-130879185D01*
X104878210Y-131010288D01*
X104878213Y-131010292D01*
X104989707Y-131121786D01*
X104989711Y-131121789D01*
X105120814Y-131209390D01*
X105120827Y-131209397D01*
X105266498Y-131269735D01*
X105266503Y-131269737D01*
X105421153Y-131300499D01*
X105421156Y-131300500D01*
X105421158Y-131300500D01*
X105578844Y-131300500D01*
X105578845Y-131300499D01*
X105733497Y-131269737D01*
X105879179Y-131209394D01*
X106010289Y-131121789D01*
X106121789Y-131010289D01*
X106209394Y-130879179D01*
X106269737Y-130733497D01*
X106300500Y-130578842D01*
X106300500Y-130421158D01*
X106300500Y-130421155D01*
X106300499Y-130421153D01*
X106269738Y-130266510D01*
X106269737Y-130266503D01*
X106269735Y-130266498D01*
X106209397Y-130120827D01*
X106209390Y-130120814D01*
X106121789Y-129989711D01*
X106121786Y-129989707D01*
X106010292Y-129878213D01*
X106010288Y-129878210D01*
X105879185Y-129790609D01*
X105879172Y-129790602D01*
X105733501Y-129730264D01*
X105733489Y-129730261D01*
X105578845Y-129699500D01*
X105578842Y-129699500D01*
X105421158Y-129699500D01*
X105421155Y-129699500D01*
X105266510Y-129730261D01*
X105266498Y-129730264D01*
X105120827Y-129790602D01*
X105120814Y-129790609D01*
X104989711Y-129878210D01*
X104989707Y-129878213D01*
X104878213Y-129989707D01*
X104878210Y-129989711D01*
X104790609Y-130120814D01*
X104790602Y-130120827D01*
X104730264Y-130266498D01*
X104730261Y-130266510D01*
X104699500Y-130421153D01*
X100300500Y-130421153D01*
X100300500Y-123159139D01*
X105345500Y-123159139D01*
X105345500Y-123340861D01*
X105358218Y-123421158D01*
X105373928Y-123520347D01*
X105373928Y-123520350D01*
X105430081Y-123693171D01*
X105430083Y-123693174D01*
X105512583Y-123855090D01*
X105619397Y-124002106D01*
X105747894Y-124130603D01*
X105894910Y-124237417D01*
X106056826Y-124319917D01*
X106056828Y-124319918D01*
X106229649Y-124376071D01*
X106229653Y-124376072D01*
X106253640Y-124379871D01*
X106311451Y-124389027D01*
X106374585Y-124418956D01*
X106411517Y-124478267D01*
X106410519Y-124548130D01*
X106371910Y-124606362D01*
X106307946Y-124634477D01*
X106292053Y-124635500D01*
X105798129Y-124635500D01*
X105798123Y-124635501D01*
X105738516Y-124641908D01*
X105603671Y-124692202D01*
X105603664Y-124692206D01*
X105488455Y-124778452D01*
X105488452Y-124778455D01*
X105402206Y-124893664D01*
X105402202Y-124893671D01*
X105351908Y-125028517D01*
X105345501Y-125088116D01*
X105345501Y-125088123D01*
X105345500Y-125088135D01*
X105345500Y-126491870D01*
X105345501Y-126491876D01*
X105351908Y-126551483D01*
X105402202Y-126686328D01*
X105402206Y-126686335D01*
X105488452Y-126801544D01*
X105488455Y-126801547D01*
X105603664Y-126887793D01*
X105603671Y-126887797D01*
X105738517Y-126938091D01*
X105738516Y-126938091D01*
X105745444Y-126938835D01*
X105798127Y-126944500D01*
X106292053Y-126944499D01*
X106359090Y-126964183D01*
X106404845Y-127016987D01*
X106414789Y-127086146D01*
X106385764Y-127149702D01*
X106326986Y-127187476D01*
X106311450Y-127190972D01*
X106229650Y-127203928D01*
X106229649Y-127203928D01*
X106056828Y-127260081D01*
X106056825Y-127260083D01*
X105894909Y-127342583D01*
X105811030Y-127403525D01*
X105747894Y-127449397D01*
X105747892Y-127449399D01*
X105747891Y-127449399D01*
X105619399Y-127577891D01*
X105619399Y-127577892D01*
X105619397Y-127577894D01*
X105608776Y-127592513D01*
X105512583Y-127724909D01*
X105430083Y-127886825D01*
X105430081Y-127886828D01*
X105373928Y-128059649D01*
X105373928Y-128059652D01*
X105345500Y-128239139D01*
X105345500Y-128420860D01*
X105373928Y-128600347D01*
X105373928Y-128600350D01*
X105430081Y-128773171D01*
X105430083Y-128773174D01*
X105512583Y-128935090D01*
X105619397Y-129082106D01*
X105747894Y-129210603D01*
X105894910Y-129317417D01*
X106056826Y-129399917D01*
X106056828Y-129399918D01*
X106218029Y-129452294D01*
X106229654Y-129456072D01*
X106409139Y-129484500D01*
X106409140Y-129484500D01*
X106590860Y-129484500D01*
X106590861Y-129484500D01*
X106770346Y-129456072D01*
X106770349Y-129456071D01*
X106770350Y-129456071D01*
X106943171Y-129399918D01*
X106943171Y-129399917D01*
X106943174Y-129399917D01*
X107105090Y-129317417D01*
X107252106Y-129210603D01*
X107380603Y-129082106D01*
X107487417Y-128935090D01*
X107569917Y-128773174D01*
X107570574Y-128771153D01*
X112199500Y-128771153D01*
X112199500Y-128928846D01*
X112230261Y-129083489D01*
X112230264Y-129083501D01*
X112290602Y-129229172D01*
X112290609Y-129229185D01*
X112378210Y-129360288D01*
X112378213Y-129360292D01*
X112489707Y-129471786D01*
X112489711Y-129471789D01*
X112620814Y-129559390D01*
X112620827Y-129559397D01*
X112766498Y-129619735D01*
X112766503Y-129619737D01*
X112921153Y-129650499D01*
X112921156Y-129650500D01*
X112921158Y-129650500D01*
X113078844Y-129650500D01*
X113078845Y-129650499D01*
X113233497Y-129619737D01*
X113379179Y-129559394D01*
X113510289Y-129471789D01*
X113621789Y-129360289D01*
X113709394Y-129229179D01*
X113769737Y-129083497D01*
X113800500Y-128928842D01*
X113800500Y-128771158D01*
X113800500Y-128771155D01*
X113800499Y-128771153D01*
X113781373Y-128675000D01*
X113769737Y-128616503D01*
X113763045Y-128600346D01*
X113709397Y-128470827D01*
X113709390Y-128470814D01*
X113621789Y-128339711D01*
X113621786Y-128339707D01*
X113510292Y-128228213D01*
X113510288Y-128228210D01*
X113379185Y-128140609D01*
X113379172Y-128140602D01*
X113233501Y-128080264D01*
X113233489Y-128080261D01*
X113078845Y-128049500D01*
X113078842Y-128049500D01*
X112921158Y-128049500D01*
X112921155Y-128049500D01*
X112766510Y-128080261D01*
X112766498Y-128080264D01*
X112620827Y-128140602D01*
X112620814Y-128140609D01*
X112489711Y-128228210D01*
X112489707Y-128228213D01*
X112378213Y-128339707D01*
X112378210Y-128339711D01*
X112290609Y-128470814D01*
X112290602Y-128470827D01*
X112230264Y-128616498D01*
X112230261Y-128616510D01*
X112199500Y-128771153D01*
X107570574Y-128771153D01*
X107603897Y-128668596D01*
X107626071Y-128600350D01*
X107626071Y-128600349D01*
X107626072Y-128600346D01*
X107654500Y-128420861D01*
X107654500Y-128239139D01*
X107626072Y-128059654D01*
X107626071Y-128059650D01*
X107626071Y-128059649D01*
X107569918Y-127886828D01*
X107569916Y-127886825D01*
X107513074Y-127775264D01*
X107487417Y-127724910D01*
X107380603Y-127577894D01*
X107252106Y-127449397D01*
X107194421Y-127407486D01*
X153050250Y-127407486D01*
X153050250Y-127592513D01*
X153079195Y-127775265D01*
X153136369Y-127951232D01*
X153136370Y-127951235D01*
X153220372Y-128116096D01*
X153329129Y-128265787D01*
X153459963Y-128396621D01*
X153609654Y-128505378D01*
X153690513Y-128546577D01*
X153774514Y-128589379D01*
X153774517Y-128589380D01*
X153857979Y-128616498D01*
X153950486Y-128646555D01*
X154133236Y-128675500D01*
X154133237Y-128675500D01*
X154318263Y-128675500D01*
X154318264Y-128675500D01*
X154501014Y-128646555D01*
X154676985Y-128589379D01*
X154841846Y-128505378D01*
X154991537Y-128396621D01*
X155122371Y-128265787D01*
X155231128Y-128116096D01*
X155315129Y-127951235D01*
X155315130Y-127951232D01*
X155316265Y-127949005D01*
X155364240Y-127898209D01*
X155432061Y-127881414D01*
X155498195Y-127903951D01*
X155541647Y-127958666D01*
X155550750Y-128005300D01*
X155550750Y-128222844D01*
X155557151Y-128282372D01*
X155557153Y-128282379D01*
X155607395Y-128417086D01*
X155607399Y-128417093D01*
X155693559Y-128532187D01*
X155693562Y-128532190D01*
X155808656Y-128618350D01*
X155808663Y-128618354D01*
X155943370Y-128668596D01*
X155943377Y-128668598D01*
X156002905Y-128674999D01*
X156002922Y-128675000D01*
X156475750Y-128675000D01*
X156475750Y-127933012D01*
X156532757Y-127965925D01*
X156659924Y-128000000D01*
X156791576Y-128000000D01*
X156918743Y-127965925D01*
X156975750Y-127933012D01*
X156975750Y-128675000D01*
X157448578Y-128675000D01*
X157448594Y-128674999D01*
X157508122Y-128668598D01*
X157508129Y-128668596D01*
X157642836Y-128618354D01*
X157642843Y-128618350D01*
X157757937Y-128532190D01*
X157757940Y-128532187D01*
X157844100Y-128417093D01*
X157844104Y-128417086D01*
X157894346Y-128282379D01*
X157894348Y-128282372D01*
X157900749Y-128222844D01*
X157900750Y-128222827D01*
X157900750Y-127750000D01*
X157158762Y-127750000D01*
X157191675Y-127692993D01*
X157225750Y-127565826D01*
X157225750Y-127434174D01*
X157191675Y-127307007D01*
X157158762Y-127250000D01*
X157900750Y-127250000D01*
X157900750Y-126777172D01*
X157900749Y-126777155D01*
X157894348Y-126717627D01*
X157894346Y-126717620D01*
X157844104Y-126582913D01*
X157844100Y-126582906D01*
X157757940Y-126467812D01*
X157757937Y-126467809D01*
X157642843Y-126381649D01*
X157642836Y-126381645D01*
X157508129Y-126331403D01*
X157508122Y-126331401D01*
X157448594Y-126325000D01*
X156975750Y-126325000D01*
X156975750Y-127066988D01*
X156918743Y-127034075D01*
X156791576Y-127000000D01*
X156659924Y-127000000D01*
X156532757Y-127034075D01*
X156475750Y-127066988D01*
X156475750Y-126325000D01*
X156002905Y-126325000D01*
X155943377Y-126331401D01*
X155943370Y-126331403D01*
X155808663Y-126381645D01*
X155808656Y-126381649D01*
X155693562Y-126467809D01*
X155693559Y-126467812D01*
X155607399Y-126582906D01*
X155607395Y-126582913D01*
X155557153Y-126717620D01*
X155557151Y-126717627D01*
X155550750Y-126777155D01*
X155550750Y-126994699D01*
X155531065Y-127061738D01*
X155478261Y-127107493D01*
X155409103Y-127117437D01*
X155345547Y-127088412D01*
X155316265Y-127050994D01*
X155262002Y-126944498D01*
X155231128Y-126883904D01*
X155122371Y-126734213D01*
X154991537Y-126603379D01*
X154841846Y-126494622D01*
X154836433Y-126491864D01*
X154676985Y-126410620D01*
X154676982Y-126410619D01*
X154501015Y-126353445D01*
X154361847Y-126331403D01*
X154318264Y-126324500D01*
X154133236Y-126324500D01*
X154089665Y-126331401D01*
X153950484Y-126353445D01*
X153774517Y-126410619D01*
X153774514Y-126410620D01*
X153609653Y-126494622D01*
X153531393Y-126551482D01*
X153459963Y-126603379D01*
X153459961Y-126603381D01*
X153459960Y-126603381D01*
X153329131Y-126734210D01*
X153329131Y-126734211D01*
X153329129Y-126734213D01*
X153282422Y-126798499D01*
X153220372Y-126883903D01*
X153136370Y-127048764D01*
X153136369Y-127048767D01*
X153079195Y-127224734D01*
X153050250Y-127407486D01*
X107194421Y-127407486D01*
X107105090Y-127342583D01*
X106943174Y-127260083D01*
X106943171Y-127260081D01*
X106770348Y-127203928D01*
X106688548Y-127190972D01*
X106625413Y-127161043D01*
X106588482Y-127101731D01*
X106589480Y-127031868D01*
X106628090Y-126973636D01*
X106692054Y-126945522D01*
X106707940Y-126944499D01*
X107201872Y-126944499D01*
X107261483Y-126938091D01*
X107396331Y-126887796D01*
X107511546Y-126801546D01*
X107597796Y-126686331D01*
X107648091Y-126551483D01*
X107654500Y-126491873D01*
X107654499Y-125088128D01*
X107648091Y-125028517D01*
X107597796Y-124893669D01*
X107597795Y-124893668D01*
X107597793Y-124893664D01*
X107511547Y-124778455D01*
X107511544Y-124778452D01*
X107396335Y-124692206D01*
X107396328Y-124692202D01*
X107261482Y-124641908D01*
X107261483Y-124641908D01*
X107201883Y-124635501D01*
X107201881Y-124635500D01*
X107201873Y-124635500D01*
X107201865Y-124635500D01*
X106707948Y-124635500D01*
X106640909Y-124615815D01*
X106595154Y-124563011D01*
X106585210Y-124493853D01*
X106614235Y-124430297D01*
X106673013Y-124392523D01*
X106688547Y-124389027D01*
X106770346Y-124376072D01*
X106770347Y-124376071D01*
X106770350Y-124376071D01*
X106943171Y-124319918D01*
X106943171Y-124319917D01*
X106943174Y-124319917D01*
X107105090Y-124237417D01*
X107252106Y-124130603D01*
X107380603Y-124002106D01*
X107487417Y-123855090D01*
X107569917Y-123693174D01*
X107626072Y-123520346D01*
X107641783Y-123421153D01*
X141199500Y-123421153D01*
X141199500Y-123578846D01*
X141230261Y-123733489D01*
X141230264Y-123733501D01*
X141290602Y-123879172D01*
X141290609Y-123879185D01*
X141378210Y-124010288D01*
X141378213Y-124010292D01*
X141489707Y-124121786D01*
X141489711Y-124121789D01*
X141620814Y-124209390D01*
X141620827Y-124209397D01*
X141766498Y-124269735D01*
X141766503Y-124269737D01*
X141921153Y-124300499D01*
X141921156Y-124300500D01*
X141921158Y-124300500D01*
X142078844Y-124300500D01*
X142078845Y-124300499D01*
X142233497Y-124269737D01*
X142379179Y-124209394D01*
X142510289Y-124121789D01*
X142621789Y-124010289D01*
X142709394Y-123879179D01*
X142769737Y-123733497D01*
X142800500Y-123578842D01*
X142800500Y-123421158D01*
X142800500Y-123421155D01*
X142800499Y-123421153D01*
X142784528Y-123340861D01*
X142769737Y-123266503D01*
X142725266Y-123159139D01*
X142709397Y-123120827D01*
X142709390Y-123120814D01*
X142621789Y-122989711D01*
X142621786Y-122989707D01*
X142510292Y-122878213D01*
X142510288Y-122878210D01*
X142394475Y-122800826D01*
X142379184Y-122790609D01*
X142379172Y-122790602D01*
X142233501Y-122730264D01*
X142233489Y-122730261D01*
X142078845Y-122699500D01*
X142078842Y-122699500D01*
X141921158Y-122699500D01*
X141921155Y-122699500D01*
X141766510Y-122730261D01*
X141766498Y-122730264D01*
X141620827Y-122790602D01*
X141620814Y-122790609D01*
X141489711Y-122878210D01*
X141489707Y-122878213D01*
X141378213Y-122989707D01*
X141378210Y-122989711D01*
X141290609Y-123120814D01*
X141290602Y-123120827D01*
X141230264Y-123266498D01*
X141230261Y-123266510D01*
X141199500Y-123421153D01*
X107641783Y-123421153D01*
X107654500Y-123340861D01*
X107654500Y-123159139D01*
X107626072Y-122979654D01*
X107626071Y-122979650D01*
X107626071Y-122979649D01*
X107569918Y-122806828D01*
X107569916Y-122806825D01*
X107566860Y-122800826D01*
X107487417Y-122644910D01*
X107380603Y-122497894D01*
X107252106Y-122369397D01*
X107105090Y-122262583D01*
X106943174Y-122180083D01*
X106943171Y-122180081D01*
X106770348Y-122123928D01*
X106650689Y-122104976D01*
X106590861Y-122095500D01*
X106409139Y-122095500D01*
X106349310Y-122104976D01*
X106229652Y-122123928D01*
X106229649Y-122123928D01*
X106056828Y-122180081D01*
X106056825Y-122180083D01*
X105894909Y-122262583D01*
X105842723Y-122300499D01*
X105747894Y-122369397D01*
X105747892Y-122369399D01*
X105747891Y-122369399D01*
X105619399Y-122497891D01*
X105619399Y-122497892D01*
X105619397Y-122497894D01*
X105573525Y-122561030D01*
X105512583Y-122644909D01*
X105430083Y-122806825D01*
X105430081Y-122806828D01*
X105373928Y-122979649D01*
X105373928Y-122979652D01*
X105372335Y-122989711D01*
X105345500Y-123159139D01*
X100300500Y-123159139D01*
X100300500Y-121421153D01*
X121199500Y-121421153D01*
X121199500Y-121578846D01*
X121230261Y-121733489D01*
X121230264Y-121733501D01*
X121290602Y-121879172D01*
X121290609Y-121879185D01*
X121378210Y-122010288D01*
X121378213Y-122010292D01*
X121489707Y-122121786D01*
X121489711Y-122121789D01*
X121620814Y-122209390D01*
X121620827Y-122209397D01*
X121766498Y-122269735D01*
X121766503Y-122269737D01*
X121921153Y-122300499D01*
X121921156Y-122300500D01*
X121921158Y-122300500D01*
X122078844Y-122300500D01*
X122078845Y-122300499D01*
X122233497Y-122269737D01*
X122346166Y-122223067D01*
X122379172Y-122209397D01*
X122379172Y-122209396D01*
X122379179Y-122209394D01*
X122510289Y-122121789D01*
X122621789Y-122010289D01*
X122709394Y-121879179D01*
X122769737Y-121733497D01*
X122774212Y-121710996D01*
X122789636Y-121633462D01*
X122789636Y-121633461D01*
X122800499Y-121578846D01*
X122800500Y-121578844D01*
X122800500Y-121421155D01*
X122800499Y-121421153D01*
X122796579Y-121401446D01*
X122769737Y-121266503D01*
X122746080Y-121209390D01*
X122709397Y-121120827D01*
X122709390Y-121120814D01*
X122621789Y-120989711D01*
X122621786Y-120989707D01*
X122510292Y-120878213D01*
X122510288Y-120878210D01*
X122379185Y-120790609D01*
X122379172Y-120790602D01*
X122233501Y-120730264D01*
X122233489Y-120730261D01*
X122078845Y-120699500D01*
X122078842Y-120699500D01*
X121921158Y-120699500D01*
X121921155Y-120699500D01*
X121766510Y-120730261D01*
X121766498Y-120730264D01*
X121620827Y-120790602D01*
X121620814Y-120790609D01*
X121489711Y-120878210D01*
X121489707Y-120878213D01*
X121378213Y-120989707D01*
X121378210Y-120989711D01*
X121290609Y-121120814D01*
X121290602Y-121120827D01*
X121230264Y-121266498D01*
X121230261Y-121266510D01*
X121199500Y-121421153D01*
X100300500Y-121421153D01*
X100300500Y-120421153D01*
X114699500Y-120421153D01*
X114699500Y-120578846D01*
X114730261Y-120733489D01*
X114730264Y-120733501D01*
X114790602Y-120879172D01*
X114790609Y-120879185D01*
X114878210Y-121010288D01*
X114878213Y-121010292D01*
X114989707Y-121121786D01*
X114989711Y-121121789D01*
X115120814Y-121209390D01*
X115120827Y-121209397D01*
X115230924Y-121255000D01*
X115266503Y-121269737D01*
X115421153Y-121300499D01*
X115421156Y-121300500D01*
X115421158Y-121300500D01*
X115578844Y-121300500D01*
X115578845Y-121300499D01*
X115589179Y-121298443D01*
X115614287Y-121293450D01*
X115614292Y-121293449D01*
X115699800Y-121276439D01*
X115733497Y-121269737D01*
X115879179Y-121209394D01*
X116010289Y-121121789D01*
X116121789Y-121010289D01*
X116209394Y-120879179D01*
X116269737Y-120733497D01*
X116300500Y-120578842D01*
X116300500Y-120421158D01*
X116300500Y-120421155D01*
X116300499Y-120421153D01*
X116273923Y-120287547D01*
X116269737Y-120266503D01*
X116230729Y-120172328D01*
X116209397Y-120120827D01*
X116209390Y-120120814D01*
X116121789Y-119989711D01*
X116121786Y-119989707D01*
X116010292Y-119878213D01*
X116010288Y-119878210D01*
X115879185Y-119790609D01*
X115879172Y-119790602D01*
X115733501Y-119730264D01*
X115733489Y-119730261D01*
X115578845Y-119699500D01*
X115578842Y-119699500D01*
X115421158Y-119699500D01*
X115421155Y-119699500D01*
X115266510Y-119730261D01*
X115266498Y-119730264D01*
X115120827Y-119790602D01*
X115120814Y-119790609D01*
X114989711Y-119878210D01*
X114989707Y-119878213D01*
X114878213Y-119989707D01*
X114878210Y-119989711D01*
X114790609Y-120120814D01*
X114790602Y-120120827D01*
X114730264Y-120266498D01*
X114730261Y-120266510D01*
X114699500Y-120421153D01*
X100300500Y-120421153D01*
X100300500Y-116289778D01*
X110099500Y-116289778D01*
X110099500Y-118310222D01*
X110103847Y-118337669D01*
X110133985Y-118527952D01*
X110202103Y-118737603D01*
X110202104Y-118737606D01*
X110270122Y-118871096D01*
X110297129Y-118924100D01*
X110302187Y-118934025D01*
X110431752Y-119112358D01*
X110431756Y-119112363D01*
X110587636Y-119268243D01*
X110587641Y-119268247D01*
X110743192Y-119381260D01*
X110765978Y-119397815D01*
X110894375Y-119463237D01*
X110962393Y-119497895D01*
X110962396Y-119497896D01*
X111067221Y-119531955D01*
X111172049Y-119566015D01*
X111389778Y-119600500D01*
X111389779Y-119600500D01*
X111610221Y-119600500D01*
X111610222Y-119600500D01*
X111827951Y-119566015D01*
X112037606Y-119497895D01*
X112234022Y-119397815D01*
X112412365Y-119268242D01*
X112568242Y-119112365D01*
X112578804Y-119097826D01*
X112669682Y-118972745D01*
X112725011Y-118930079D01*
X112794625Y-118924100D01*
X112856420Y-118956705D01*
X112870318Y-118972745D01*
X112971752Y-119112358D01*
X112971756Y-119112363D01*
X113127636Y-119268243D01*
X113127641Y-119268247D01*
X113283192Y-119381260D01*
X113305978Y-119397815D01*
X113434375Y-119463237D01*
X113502393Y-119497895D01*
X113502396Y-119497896D01*
X113607221Y-119531955D01*
X113712049Y-119566015D01*
X113929778Y-119600500D01*
X113929779Y-119600500D01*
X114150221Y-119600500D01*
X114150222Y-119600500D01*
X114367951Y-119566015D01*
X114577606Y-119497895D01*
X114774022Y-119397815D01*
X114952365Y-119268242D01*
X115108242Y-119112365D01*
X115118804Y-119097826D01*
X115209682Y-118972745D01*
X115265011Y-118930079D01*
X115334625Y-118924100D01*
X115396420Y-118956705D01*
X115410318Y-118972745D01*
X115511752Y-119112358D01*
X115511756Y-119112363D01*
X115667636Y-119268243D01*
X115667641Y-119268247D01*
X115823192Y-119381260D01*
X115845978Y-119397815D01*
X115974375Y-119463237D01*
X116042393Y-119497895D01*
X116042396Y-119497896D01*
X116147221Y-119531955D01*
X116252049Y-119566015D01*
X116469778Y-119600500D01*
X116469779Y-119600500D01*
X116690221Y-119600500D01*
X116690222Y-119600500D01*
X116907951Y-119566015D01*
X117117606Y-119497895D01*
X117314022Y-119397815D01*
X117492365Y-119268242D01*
X117648242Y-119112365D01*
X117749991Y-118972317D01*
X117805320Y-118929653D01*
X117874933Y-118923674D01*
X117936729Y-118956279D01*
X117950627Y-118972318D01*
X118052142Y-119112041D01*
X118207958Y-119267857D01*
X118386239Y-119397386D01*
X118582589Y-119497432D01*
X118792164Y-119565526D01*
X119009819Y-119600000D01*
X119230181Y-119600000D01*
X119447835Y-119565526D01*
X119657410Y-119497432D01*
X119853760Y-119397386D01*
X120032041Y-119267857D01*
X120187857Y-119112041D01*
X120187862Y-119112035D01*
X120289372Y-118972319D01*
X120344702Y-118929653D01*
X120414315Y-118923674D01*
X120476110Y-118956279D01*
X120490008Y-118972319D01*
X120591752Y-119112358D01*
X120591756Y-119112363D01*
X120747636Y-119268243D01*
X120747641Y-119268247D01*
X120903192Y-119381260D01*
X120925978Y-119397815D01*
X121054375Y-119463237D01*
X121122393Y-119497895D01*
X121122396Y-119497896D01*
X121227221Y-119531955D01*
X121332049Y-119566015D01*
X121549778Y-119600500D01*
X121549779Y-119600500D01*
X121770221Y-119600500D01*
X121770222Y-119600500D01*
X121987951Y-119566015D01*
X122197606Y-119497895D01*
X122394022Y-119397815D01*
X122572365Y-119268242D01*
X122728242Y-119112365D01*
X122738804Y-119097826D01*
X122829682Y-118972745D01*
X122885011Y-118930079D01*
X122954625Y-118924100D01*
X123016420Y-118956705D01*
X123030318Y-118972745D01*
X123131752Y-119112358D01*
X123131756Y-119112363D01*
X123287636Y-119268243D01*
X123287641Y-119268247D01*
X123443192Y-119381260D01*
X123465978Y-119397815D01*
X123594375Y-119463237D01*
X123662393Y-119497895D01*
X123662396Y-119497896D01*
X123767221Y-119531955D01*
X123872049Y-119566015D01*
X124089778Y-119600500D01*
X124089779Y-119600500D01*
X124310221Y-119600500D01*
X124310222Y-119600500D01*
X124527951Y-119566015D01*
X124737606Y-119497895D01*
X124934022Y-119397815D01*
X125112365Y-119268242D01*
X125268242Y-119112365D01*
X125278804Y-119097826D01*
X125369682Y-118972745D01*
X125425011Y-118930079D01*
X125494625Y-118924100D01*
X125556420Y-118956705D01*
X125570318Y-118972745D01*
X125671752Y-119112358D01*
X125671756Y-119112363D01*
X125827636Y-119268243D01*
X125827641Y-119268247D01*
X125983192Y-119381260D01*
X126005978Y-119397815D01*
X126134375Y-119463237D01*
X126202393Y-119497895D01*
X126202396Y-119497896D01*
X126307221Y-119531955D01*
X126412049Y-119566015D01*
X126629778Y-119600500D01*
X126629779Y-119600500D01*
X126850221Y-119600500D01*
X126850222Y-119600500D01*
X127067951Y-119566015D01*
X127277606Y-119497895D01*
X127474022Y-119397815D01*
X127652365Y-119268242D01*
X127808242Y-119112365D01*
X127818804Y-119097826D01*
X127909682Y-118972745D01*
X127965011Y-118930079D01*
X128034625Y-118924100D01*
X128096420Y-118956705D01*
X128110318Y-118972745D01*
X128211752Y-119112358D01*
X128211756Y-119112363D01*
X128367636Y-119268243D01*
X128367641Y-119268247D01*
X128523192Y-119381260D01*
X128545978Y-119397815D01*
X128674375Y-119463237D01*
X128742393Y-119497895D01*
X128742396Y-119497896D01*
X128847221Y-119531955D01*
X128952049Y-119566015D01*
X129169778Y-119600500D01*
X129169779Y-119600500D01*
X129390221Y-119600500D01*
X129390222Y-119600500D01*
X129607951Y-119566015D01*
X129817606Y-119497895D01*
X130014022Y-119397815D01*
X130192365Y-119268242D01*
X130348242Y-119112365D01*
X130358804Y-119097826D01*
X130449682Y-118972745D01*
X130505011Y-118930079D01*
X130574625Y-118924100D01*
X130636420Y-118956705D01*
X130650318Y-118972745D01*
X130751752Y-119112358D01*
X130751756Y-119112363D01*
X130907636Y-119268243D01*
X130907641Y-119268247D01*
X131063192Y-119381260D01*
X131085978Y-119397815D01*
X131214375Y-119463237D01*
X131282393Y-119497895D01*
X131282396Y-119497896D01*
X131387221Y-119531955D01*
X131492049Y-119566015D01*
X131709778Y-119600500D01*
X131709779Y-119600500D01*
X131930221Y-119600500D01*
X131930222Y-119600500D01*
X132147951Y-119566015D01*
X132357606Y-119497895D01*
X132554022Y-119397815D01*
X132732365Y-119268242D01*
X132888242Y-119112365D01*
X132898804Y-119097826D01*
X132989682Y-118972745D01*
X133045011Y-118930079D01*
X133114625Y-118924100D01*
X133176420Y-118956705D01*
X133190318Y-118972745D01*
X133291752Y-119112358D01*
X133291756Y-119112363D01*
X133447636Y-119268243D01*
X133447641Y-119268247D01*
X133603192Y-119381260D01*
X133625978Y-119397815D01*
X133754375Y-119463237D01*
X133822393Y-119497895D01*
X133822396Y-119497896D01*
X133927221Y-119531955D01*
X134032049Y-119566015D01*
X134249778Y-119600500D01*
X134249779Y-119600500D01*
X134470221Y-119600500D01*
X134470222Y-119600500D01*
X134687951Y-119566015D01*
X134897606Y-119497895D01*
X135094022Y-119397815D01*
X135272365Y-119268242D01*
X135428242Y-119112365D01*
X135438804Y-119097826D01*
X135529682Y-118972745D01*
X135585011Y-118930079D01*
X135654625Y-118924100D01*
X135716420Y-118956705D01*
X135730318Y-118972745D01*
X135831752Y-119112358D01*
X135831756Y-119112363D01*
X135987636Y-119268243D01*
X135987641Y-119268247D01*
X136143192Y-119381260D01*
X136165978Y-119397815D01*
X136294375Y-119463237D01*
X136362393Y-119497895D01*
X136362396Y-119497896D01*
X136467221Y-119531955D01*
X136572049Y-119566015D01*
X136789778Y-119600500D01*
X136789779Y-119600500D01*
X137010221Y-119600500D01*
X137010222Y-119600500D01*
X137227951Y-119566015D01*
X137437606Y-119497895D01*
X137634022Y-119397815D01*
X137812365Y-119268242D01*
X137968242Y-119112365D01*
X137978804Y-119097826D01*
X138069682Y-118972745D01*
X138125011Y-118930079D01*
X138194625Y-118924100D01*
X138256420Y-118956705D01*
X138270318Y-118972745D01*
X138371752Y-119112358D01*
X138371756Y-119112363D01*
X138527636Y-119268243D01*
X138527641Y-119268247D01*
X138683192Y-119381260D01*
X138705978Y-119397815D01*
X138834375Y-119463237D01*
X138902393Y-119497895D01*
X138902396Y-119497896D01*
X139007221Y-119531955D01*
X139112049Y-119566015D01*
X139329778Y-119600500D01*
X139329779Y-119600500D01*
X139550221Y-119600500D01*
X139550222Y-119600500D01*
X139767951Y-119566015D01*
X139977606Y-119497895D01*
X140174022Y-119397815D01*
X140352365Y-119268242D01*
X140508242Y-119112365D01*
X140518804Y-119097826D01*
X140609682Y-118972745D01*
X140665011Y-118930079D01*
X140734625Y-118924100D01*
X140796420Y-118956705D01*
X140810318Y-118972745D01*
X140911752Y-119112358D01*
X140911756Y-119112363D01*
X141067636Y-119268243D01*
X141067641Y-119268247D01*
X141223192Y-119381260D01*
X141245978Y-119397815D01*
X141374375Y-119463237D01*
X141442393Y-119497895D01*
X141442396Y-119497896D01*
X141547221Y-119531955D01*
X141652049Y-119566015D01*
X141869778Y-119600500D01*
X141869779Y-119600500D01*
X142090221Y-119600500D01*
X142090222Y-119600500D01*
X142307951Y-119566015D01*
X142517606Y-119497895D01*
X142714022Y-119397815D01*
X142892365Y-119268242D01*
X143048242Y-119112365D01*
X143058804Y-119097826D01*
X143149682Y-118972745D01*
X143205011Y-118930079D01*
X143274625Y-118924100D01*
X143336420Y-118956705D01*
X143350318Y-118972745D01*
X143451752Y-119112358D01*
X143451756Y-119112363D01*
X143607636Y-119268243D01*
X143607641Y-119268247D01*
X143763192Y-119381260D01*
X143785978Y-119397815D01*
X143914375Y-119463237D01*
X143982393Y-119497895D01*
X143982396Y-119497896D01*
X144087221Y-119531955D01*
X144192049Y-119566015D01*
X144409778Y-119600500D01*
X144409779Y-119600500D01*
X144630221Y-119600500D01*
X144630222Y-119600500D01*
X144847951Y-119566015D01*
X145057606Y-119497895D01*
X145254022Y-119397815D01*
X145432365Y-119268242D01*
X145588242Y-119112365D01*
X145598804Y-119097826D01*
X145689682Y-118972745D01*
X145745011Y-118930079D01*
X145814625Y-118924100D01*
X145876420Y-118956705D01*
X145890318Y-118972745D01*
X145991752Y-119112358D01*
X145991756Y-119112363D01*
X146147636Y-119268243D01*
X146147641Y-119268247D01*
X146303192Y-119381260D01*
X146325978Y-119397815D01*
X146454375Y-119463237D01*
X146522393Y-119497895D01*
X146522396Y-119497896D01*
X146627221Y-119531955D01*
X146732049Y-119566015D01*
X146949778Y-119600500D01*
X146949779Y-119600500D01*
X147170221Y-119600500D01*
X147170222Y-119600500D01*
X147387951Y-119566015D01*
X147597606Y-119497895D01*
X147794022Y-119397815D01*
X147972365Y-119268242D01*
X148128242Y-119112365D01*
X148138804Y-119097826D01*
X148229682Y-118972745D01*
X148285011Y-118930079D01*
X148354625Y-118924100D01*
X148416420Y-118956705D01*
X148430318Y-118972745D01*
X148531752Y-119112358D01*
X148531756Y-119112363D01*
X148687636Y-119268243D01*
X148687641Y-119268247D01*
X148843192Y-119381260D01*
X148865978Y-119397815D01*
X148994375Y-119463237D01*
X149062393Y-119497895D01*
X149062396Y-119497896D01*
X149167221Y-119531955D01*
X149272049Y-119566015D01*
X149489778Y-119600500D01*
X149489779Y-119600500D01*
X149710221Y-119600500D01*
X149710222Y-119600500D01*
X149927951Y-119566015D01*
X150137606Y-119497895D01*
X150334022Y-119397815D01*
X150512365Y-119268242D01*
X150668242Y-119112365D01*
X150678804Y-119097826D01*
X150769682Y-118972745D01*
X150825011Y-118930079D01*
X150894625Y-118924100D01*
X150956420Y-118956705D01*
X150970318Y-118972745D01*
X151071752Y-119112358D01*
X151071756Y-119112363D01*
X151227636Y-119268243D01*
X151227641Y-119268247D01*
X151383192Y-119381260D01*
X151405978Y-119397815D01*
X151534375Y-119463237D01*
X151602393Y-119497895D01*
X151602396Y-119497896D01*
X151707221Y-119531955D01*
X151812049Y-119566015D01*
X152029778Y-119600500D01*
X152029779Y-119600500D01*
X152250221Y-119600500D01*
X152250222Y-119600500D01*
X152467951Y-119566015D01*
X152677606Y-119497895D01*
X152874022Y-119397815D01*
X153052365Y-119268242D01*
X153208242Y-119112365D01*
X153218804Y-119097826D01*
X153309682Y-118972745D01*
X153365011Y-118930079D01*
X153434625Y-118924100D01*
X153496420Y-118956705D01*
X153510318Y-118972745D01*
X153611752Y-119112358D01*
X153611756Y-119112363D01*
X153767636Y-119268243D01*
X153767641Y-119268247D01*
X153923192Y-119381260D01*
X153945978Y-119397815D01*
X154074375Y-119463237D01*
X154142393Y-119497895D01*
X154142396Y-119497896D01*
X154247221Y-119531955D01*
X154352049Y-119566015D01*
X154569778Y-119600500D01*
X154569779Y-119600500D01*
X154790221Y-119600500D01*
X154790222Y-119600500D01*
X155007951Y-119566015D01*
X155217606Y-119497895D01*
X155414022Y-119397815D01*
X155592365Y-119268242D01*
X155748242Y-119112365D01*
X155877815Y-118934022D01*
X155977895Y-118737606D01*
X156044656Y-118532135D01*
X180019500Y-118532135D01*
X180019500Y-119977870D01*
X180019501Y-119977876D01*
X180025908Y-120037483D01*
X180076202Y-120172328D01*
X180076206Y-120172335D01*
X180162452Y-120287544D01*
X180162455Y-120287547D01*
X180277664Y-120373793D01*
X180277671Y-120373797D01*
X180412517Y-120424091D01*
X180412516Y-120424091D01*
X180419444Y-120424835D01*
X180472127Y-120430500D01*
X180689821Y-120430499D01*
X180756859Y-120450183D01*
X180802614Y-120502987D01*
X180812558Y-120572145D01*
X180783533Y-120635701D01*
X180746116Y-120664983D01*
X180579169Y-120750048D01*
X180558568Y-120765015D01*
X181065591Y-121272037D01*
X181002007Y-121289075D01*
X180887993Y-121354901D01*
X180794901Y-121447993D01*
X180729075Y-121562007D01*
X180712037Y-121625590D01*
X180205015Y-121118568D01*
X180190049Y-121139167D01*
X180106084Y-121303956D01*
X180106083Y-121303959D01*
X180048933Y-121479852D01*
X180020000Y-121662526D01*
X180020000Y-121847473D01*
X180048933Y-122030147D01*
X180106083Y-122206040D01*
X180106084Y-122206043D01*
X180190050Y-122370834D01*
X180205015Y-122391430D01*
X180205016Y-122391431D01*
X180712037Y-121884409D01*
X180729075Y-121947993D01*
X180794901Y-122062007D01*
X180887993Y-122155099D01*
X181002007Y-122220925D01*
X181065590Y-122237962D01*
X180558568Y-122744983D01*
X180558568Y-122744984D01*
X180579165Y-122759949D01*
X180743956Y-122843915D01*
X180743959Y-122843916D01*
X180919852Y-122901066D01*
X181102527Y-122930000D01*
X181287473Y-122930000D01*
X181470147Y-122901066D01*
X181646040Y-122843916D01*
X181646043Y-122843915D01*
X181810836Y-122759947D01*
X181810845Y-122759942D01*
X181831430Y-122744984D01*
X181831431Y-122744983D01*
X181324410Y-122237962D01*
X181387993Y-122220925D01*
X181502007Y-122155099D01*
X181595099Y-122062007D01*
X181660925Y-121947993D01*
X181677962Y-121884409D01*
X182184983Y-122391430D01*
X182184984Y-122391430D01*
X182199942Y-122370845D01*
X182199947Y-122370836D01*
X182283915Y-122206043D01*
X182283916Y-122206040D01*
X182341066Y-122030147D01*
X182370000Y-121847473D01*
X182370000Y-121662526D01*
X182341066Y-121479852D01*
X182283916Y-121303959D01*
X182283915Y-121303956D01*
X182199949Y-121139165D01*
X182184983Y-121118568D01*
X181677962Y-121625589D01*
X181660925Y-121562007D01*
X181595099Y-121447993D01*
X181502007Y-121354901D01*
X181387993Y-121289075D01*
X181324409Y-121272037D01*
X181831431Y-120765016D01*
X181831430Y-120765015D01*
X181810834Y-120750050D01*
X181643882Y-120664984D01*
X181593086Y-120617010D01*
X181576291Y-120549189D01*
X181598828Y-120483054D01*
X181653543Y-120439602D01*
X181700176Y-120430499D01*
X181917872Y-120430499D01*
X181977483Y-120424091D01*
X182112331Y-120373796D01*
X182227546Y-120287546D01*
X182313796Y-120172331D01*
X182364091Y-120037483D01*
X182370500Y-119977873D01*
X182370499Y-118532128D01*
X182364091Y-118472517D01*
X182313796Y-118337669D01*
X182313795Y-118337668D01*
X182313793Y-118337664D01*
X182227547Y-118222455D01*
X182227544Y-118222452D01*
X182112335Y-118136206D01*
X182112328Y-118136202D01*
X181977482Y-118085908D01*
X181977483Y-118085908D01*
X181917883Y-118079501D01*
X181917881Y-118079500D01*
X181917873Y-118079500D01*
X181917864Y-118079500D01*
X180472129Y-118079500D01*
X180472123Y-118079501D01*
X180412516Y-118085908D01*
X180277671Y-118136202D01*
X180277664Y-118136206D01*
X180162455Y-118222452D01*
X180162452Y-118222455D01*
X180076206Y-118337664D01*
X180076202Y-118337671D01*
X180025908Y-118472517D01*
X180019949Y-118527951D01*
X180019501Y-118532123D01*
X180019500Y-118532135D01*
X156044656Y-118532135D01*
X156046015Y-118527951D01*
X156080500Y-118310222D01*
X156080500Y-116289778D01*
X156046015Y-116072049D01*
X155977895Y-115862394D01*
X155977895Y-115862393D01*
X155943237Y-115794375D01*
X155877815Y-115665978D01*
X155849681Y-115627254D01*
X155748247Y-115487641D01*
X155748243Y-115487636D01*
X155592363Y-115331756D01*
X155592358Y-115331752D01*
X155414025Y-115202187D01*
X155414024Y-115202186D01*
X155414022Y-115202185D01*
X155351096Y-115170122D01*
X155217606Y-115102104D01*
X155217603Y-115102103D01*
X155007952Y-115033985D01*
X154899086Y-115016742D01*
X154790222Y-114999500D01*
X154569778Y-114999500D01*
X154497201Y-115010995D01*
X154352047Y-115033985D01*
X154142396Y-115102103D01*
X154142393Y-115102104D01*
X153945974Y-115202187D01*
X153767641Y-115331752D01*
X153767636Y-115331756D01*
X153611756Y-115487636D01*
X153611752Y-115487641D01*
X153510318Y-115627254D01*
X153454988Y-115669920D01*
X153385375Y-115675899D01*
X153323580Y-115643293D01*
X153309682Y-115627254D01*
X153208247Y-115487641D01*
X153208243Y-115487636D01*
X153052363Y-115331756D01*
X153052358Y-115331752D01*
X152874025Y-115202187D01*
X152874024Y-115202186D01*
X152874022Y-115202185D01*
X152811096Y-115170122D01*
X152677606Y-115102104D01*
X152677603Y-115102103D01*
X152467952Y-115033985D01*
X152359086Y-115016742D01*
X152250222Y-114999500D01*
X152029778Y-114999500D01*
X151957201Y-115010995D01*
X151812047Y-115033985D01*
X151602396Y-115102103D01*
X151602393Y-115102104D01*
X151405974Y-115202187D01*
X151227641Y-115331752D01*
X151227636Y-115331756D01*
X151071756Y-115487636D01*
X151071752Y-115487641D01*
X150970318Y-115627254D01*
X150914988Y-115669920D01*
X150845375Y-115675899D01*
X150783580Y-115643293D01*
X150769682Y-115627254D01*
X150668247Y-115487641D01*
X150668243Y-115487636D01*
X150512363Y-115331756D01*
X150512358Y-115331752D01*
X150334025Y-115202187D01*
X150334024Y-115202186D01*
X150334022Y-115202185D01*
X150271096Y-115170122D01*
X150137606Y-115102104D01*
X150137603Y-115102103D01*
X149927952Y-115033985D01*
X149819086Y-115016742D01*
X149710222Y-114999500D01*
X149489778Y-114999500D01*
X149417201Y-115010995D01*
X149272047Y-115033985D01*
X149062396Y-115102103D01*
X149062393Y-115102104D01*
X148865974Y-115202187D01*
X148687641Y-115331752D01*
X148687636Y-115331756D01*
X148531756Y-115487636D01*
X148531752Y-115487641D01*
X148430318Y-115627254D01*
X148374988Y-115669920D01*
X148305375Y-115675899D01*
X148243580Y-115643293D01*
X148229682Y-115627254D01*
X148128247Y-115487641D01*
X148128243Y-115487636D01*
X147972363Y-115331756D01*
X147972358Y-115331752D01*
X147794025Y-115202187D01*
X147794024Y-115202186D01*
X147794022Y-115202185D01*
X147731096Y-115170122D01*
X147597606Y-115102104D01*
X147597603Y-115102103D01*
X147387952Y-115033985D01*
X147279086Y-115016742D01*
X147170222Y-114999500D01*
X146949778Y-114999500D01*
X146877201Y-115010995D01*
X146732047Y-115033985D01*
X146522396Y-115102103D01*
X146522393Y-115102104D01*
X146325974Y-115202187D01*
X146147641Y-115331752D01*
X146147636Y-115331756D01*
X145991756Y-115487636D01*
X145991752Y-115487641D01*
X145890318Y-115627254D01*
X145834988Y-115669920D01*
X145765375Y-115675899D01*
X145703580Y-115643293D01*
X145689682Y-115627254D01*
X145588247Y-115487641D01*
X145588243Y-115487636D01*
X145432363Y-115331756D01*
X145432358Y-115331752D01*
X145254025Y-115202187D01*
X145254024Y-115202186D01*
X145254022Y-115202185D01*
X145191096Y-115170122D01*
X145057606Y-115102104D01*
X145057603Y-115102103D01*
X144847952Y-115033985D01*
X144739086Y-115016742D01*
X144630222Y-114999500D01*
X144409778Y-114999500D01*
X144337201Y-115010995D01*
X144192047Y-115033985D01*
X143982396Y-115102103D01*
X143982393Y-115102104D01*
X143785974Y-115202187D01*
X143607641Y-115331752D01*
X143607636Y-115331756D01*
X143451756Y-115487636D01*
X143451752Y-115487641D01*
X143350318Y-115627254D01*
X143294988Y-115669920D01*
X143225375Y-115675899D01*
X143163580Y-115643293D01*
X143149682Y-115627254D01*
X143048247Y-115487641D01*
X143048243Y-115487636D01*
X142892363Y-115331756D01*
X142892358Y-115331752D01*
X142714025Y-115202187D01*
X142714024Y-115202186D01*
X142714022Y-115202185D01*
X142651096Y-115170122D01*
X142517606Y-115102104D01*
X142517603Y-115102103D01*
X142307952Y-115033985D01*
X142199086Y-115016742D01*
X142090222Y-114999500D01*
X141869778Y-114999500D01*
X141797201Y-115010995D01*
X141652047Y-115033985D01*
X141442396Y-115102103D01*
X141442393Y-115102104D01*
X141245974Y-115202187D01*
X141067641Y-115331752D01*
X141067636Y-115331756D01*
X140911756Y-115487636D01*
X140911752Y-115487641D01*
X140810318Y-115627254D01*
X140754988Y-115669920D01*
X140685375Y-115675899D01*
X140623580Y-115643293D01*
X140609682Y-115627254D01*
X140508247Y-115487641D01*
X140508243Y-115487636D01*
X140352363Y-115331756D01*
X140352358Y-115331752D01*
X140174025Y-115202187D01*
X140174024Y-115202186D01*
X140174022Y-115202185D01*
X140111096Y-115170122D01*
X139977606Y-115102104D01*
X139977603Y-115102103D01*
X139767952Y-115033985D01*
X139659086Y-115016742D01*
X139550222Y-114999500D01*
X139329778Y-114999500D01*
X139257201Y-115010995D01*
X139112047Y-115033985D01*
X138902396Y-115102103D01*
X138902393Y-115102104D01*
X138705974Y-115202187D01*
X138527641Y-115331752D01*
X138527636Y-115331756D01*
X138371756Y-115487636D01*
X138371752Y-115487641D01*
X138270318Y-115627254D01*
X138214988Y-115669920D01*
X138145375Y-115675899D01*
X138083580Y-115643293D01*
X138069682Y-115627254D01*
X137968247Y-115487641D01*
X137968243Y-115487636D01*
X137812363Y-115331756D01*
X137812358Y-115331752D01*
X137634025Y-115202187D01*
X137634024Y-115202186D01*
X137634022Y-115202185D01*
X137571096Y-115170122D01*
X137437606Y-115102104D01*
X137437603Y-115102103D01*
X137227952Y-115033985D01*
X137119086Y-115016742D01*
X137010222Y-114999500D01*
X136789778Y-114999500D01*
X136717201Y-115010995D01*
X136572047Y-115033985D01*
X136362396Y-115102103D01*
X136362393Y-115102104D01*
X136165974Y-115202187D01*
X135987641Y-115331752D01*
X135987636Y-115331756D01*
X135831756Y-115487636D01*
X135831752Y-115487641D01*
X135730318Y-115627254D01*
X135674988Y-115669920D01*
X135605375Y-115675899D01*
X135543580Y-115643293D01*
X135529682Y-115627254D01*
X135428247Y-115487641D01*
X135428243Y-115487636D01*
X135272363Y-115331756D01*
X135272358Y-115331752D01*
X135094025Y-115202187D01*
X135094024Y-115202186D01*
X135094022Y-115202185D01*
X135031096Y-115170122D01*
X134897606Y-115102104D01*
X134897603Y-115102103D01*
X134687952Y-115033985D01*
X134579086Y-115016742D01*
X134470222Y-114999500D01*
X134249778Y-114999500D01*
X134177201Y-115010995D01*
X134032047Y-115033985D01*
X133822396Y-115102103D01*
X133822393Y-115102104D01*
X133625974Y-115202187D01*
X133447641Y-115331752D01*
X133447636Y-115331756D01*
X133291756Y-115487636D01*
X133291752Y-115487641D01*
X133190318Y-115627254D01*
X133134988Y-115669920D01*
X133065375Y-115675899D01*
X133003580Y-115643293D01*
X132989682Y-115627254D01*
X132888247Y-115487641D01*
X132888243Y-115487636D01*
X132732363Y-115331756D01*
X132732358Y-115331752D01*
X132554025Y-115202187D01*
X132554024Y-115202186D01*
X132554022Y-115202185D01*
X132491096Y-115170122D01*
X132357606Y-115102104D01*
X132357603Y-115102103D01*
X132147952Y-115033985D01*
X132039086Y-115016742D01*
X131930222Y-114999500D01*
X131709778Y-114999500D01*
X131637201Y-115010995D01*
X131492047Y-115033985D01*
X131282396Y-115102103D01*
X131282393Y-115102104D01*
X131085974Y-115202187D01*
X130907641Y-115331752D01*
X130907636Y-115331756D01*
X130751756Y-115487636D01*
X130751752Y-115487641D01*
X130650318Y-115627254D01*
X130594988Y-115669920D01*
X130525375Y-115675899D01*
X130463580Y-115643293D01*
X130449682Y-115627254D01*
X130348247Y-115487641D01*
X130348243Y-115487636D01*
X130192363Y-115331756D01*
X130192358Y-115331752D01*
X130014025Y-115202187D01*
X130014024Y-115202186D01*
X130014022Y-115202185D01*
X129951096Y-115170122D01*
X129817606Y-115102104D01*
X129817603Y-115102103D01*
X129607952Y-115033985D01*
X129499086Y-115016742D01*
X129390222Y-114999500D01*
X129302190Y-114999500D01*
X129235151Y-114979815D01*
X129189396Y-114927011D01*
X129179452Y-114857853D01*
X129208477Y-114794297D01*
X129254738Y-114760939D01*
X129379172Y-114709397D01*
X129379172Y-114709396D01*
X129379179Y-114709394D01*
X129510289Y-114621789D01*
X129621789Y-114510289D01*
X129709394Y-114379179D01*
X129769737Y-114233497D01*
X129800500Y-114078842D01*
X129800500Y-113921158D01*
X129800500Y-113921155D01*
X129800499Y-113921153D01*
X129769738Y-113766510D01*
X129769737Y-113766503D01*
X129769735Y-113766498D01*
X129709397Y-113620827D01*
X129709390Y-113620814D01*
X129621789Y-113489711D01*
X129621786Y-113489707D01*
X129510292Y-113378213D01*
X129510288Y-113378210D01*
X129379185Y-113290609D01*
X129379172Y-113290602D01*
X129233501Y-113230264D01*
X129233489Y-113230261D01*
X129078845Y-113199500D01*
X129078842Y-113199500D01*
X128921158Y-113199500D01*
X128921155Y-113199500D01*
X128766510Y-113230261D01*
X128766498Y-113230264D01*
X128620827Y-113290602D01*
X128620814Y-113290609D01*
X128489711Y-113378210D01*
X128489707Y-113378213D01*
X128378213Y-113489707D01*
X128378210Y-113489711D01*
X128290609Y-113620814D01*
X128290602Y-113620827D01*
X128230264Y-113766498D01*
X128230261Y-113766510D01*
X128199500Y-113921153D01*
X128199500Y-114078846D01*
X128230261Y-114233489D01*
X128230264Y-114233501D01*
X128290602Y-114379172D01*
X128290609Y-114379185D01*
X128378210Y-114510288D01*
X128378213Y-114510292D01*
X128489707Y-114621786D01*
X128489711Y-114621789D01*
X128620814Y-114709390D01*
X128620827Y-114709397D01*
X128766498Y-114769735D01*
X128766503Y-114769737D01*
X128832565Y-114782877D01*
X128919979Y-114800266D01*
X128981890Y-114832651D01*
X129016464Y-114893367D01*
X129012725Y-114963136D01*
X128971858Y-115019808D01*
X128934106Y-115039814D01*
X128742396Y-115102103D01*
X128742393Y-115102104D01*
X128545974Y-115202187D01*
X128367641Y-115331752D01*
X128367636Y-115331756D01*
X128211756Y-115487636D01*
X128211752Y-115487641D01*
X128110318Y-115627254D01*
X128054988Y-115669920D01*
X127985375Y-115675899D01*
X127923580Y-115643293D01*
X127909682Y-115627254D01*
X127808247Y-115487641D01*
X127808243Y-115487636D01*
X127652363Y-115331756D01*
X127652358Y-115331752D01*
X127474025Y-115202187D01*
X127474024Y-115202186D01*
X127474022Y-115202185D01*
X127411096Y-115170122D01*
X127277606Y-115102104D01*
X127277603Y-115102103D01*
X127067952Y-115033985D01*
X126959086Y-115016742D01*
X126850222Y-114999500D01*
X126629778Y-114999500D01*
X126557201Y-115010995D01*
X126412047Y-115033985D01*
X126202396Y-115102103D01*
X126202393Y-115102104D01*
X126005974Y-115202187D01*
X125827641Y-115331752D01*
X125827636Y-115331756D01*
X125671756Y-115487636D01*
X125671752Y-115487641D01*
X125570318Y-115627254D01*
X125514988Y-115669920D01*
X125445375Y-115675899D01*
X125383580Y-115643293D01*
X125369682Y-115627254D01*
X125268247Y-115487641D01*
X125268243Y-115487636D01*
X125112363Y-115331756D01*
X125112358Y-115331752D01*
X124934025Y-115202187D01*
X124934024Y-115202186D01*
X124934022Y-115202185D01*
X124871096Y-115170122D01*
X124737606Y-115102104D01*
X124737603Y-115102103D01*
X124527952Y-115033985D01*
X124419086Y-115016742D01*
X124310222Y-114999500D01*
X124089778Y-114999500D01*
X124017201Y-115010995D01*
X123872047Y-115033985D01*
X123662396Y-115102103D01*
X123662393Y-115102104D01*
X123465974Y-115202187D01*
X123287641Y-115331752D01*
X123287636Y-115331756D01*
X123131756Y-115487636D01*
X123131752Y-115487641D01*
X123030318Y-115627254D01*
X122974988Y-115669920D01*
X122905375Y-115675899D01*
X122843580Y-115643293D01*
X122829682Y-115627254D01*
X122728247Y-115487641D01*
X122728243Y-115487636D01*
X122572363Y-115331756D01*
X122572358Y-115331752D01*
X122394025Y-115202187D01*
X122394024Y-115202186D01*
X122394022Y-115202185D01*
X122331096Y-115170122D01*
X122197606Y-115102104D01*
X122197603Y-115102103D01*
X121987952Y-115033985D01*
X121879086Y-115016742D01*
X121770222Y-114999500D01*
X121549778Y-114999500D01*
X121477201Y-115010995D01*
X121332047Y-115033985D01*
X121122396Y-115102103D01*
X121122393Y-115102104D01*
X120925974Y-115202187D01*
X120747641Y-115331752D01*
X120747636Y-115331756D01*
X120591756Y-115487636D01*
X120490008Y-115627681D01*
X120434678Y-115670346D01*
X120365065Y-115676325D01*
X120303270Y-115643719D01*
X120289372Y-115627680D01*
X120187862Y-115487964D01*
X120187857Y-115487958D01*
X120032041Y-115332142D01*
X119853760Y-115202613D01*
X119657410Y-115102567D01*
X119447835Y-115034473D01*
X119230181Y-115000000D01*
X119009819Y-115000000D01*
X118792164Y-115034473D01*
X118582589Y-115102567D01*
X118386239Y-115202613D01*
X118207958Y-115332142D01*
X118052142Y-115487958D01*
X118052142Y-115487959D01*
X117950627Y-115627681D01*
X117895297Y-115670346D01*
X117825683Y-115676325D01*
X117763888Y-115643719D01*
X117749991Y-115627680D01*
X117648247Y-115487641D01*
X117648243Y-115487636D01*
X117492363Y-115331756D01*
X117492358Y-115331752D01*
X117314025Y-115202187D01*
X117314024Y-115202186D01*
X117314022Y-115202185D01*
X117251096Y-115170122D01*
X117117606Y-115102104D01*
X117117603Y-115102103D01*
X116907952Y-115033985D01*
X116799086Y-115016742D01*
X116690222Y-114999500D01*
X116469778Y-114999500D01*
X116397201Y-115010995D01*
X116252047Y-115033985D01*
X116042396Y-115102103D01*
X116042393Y-115102104D01*
X115845974Y-115202187D01*
X115667641Y-115331752D01*
X115667636Y-115331756D01*
X115511756Y-115487636D01*
X115511752Y-115487641D01*
X115410318Y-115627254D01*
X115354988Y-115669920D01*
X115285375Y-115675899D01*
X115223580Y-115643293D01*
X115209682Y-115627254D01*
X115108247Y-115487641D01*
X115108243Y-115487636D01*
X114952363Y-115331756D01*
X114952358Y-115331752D01*
X114774025Y-115202187D01*
X114774024Y-115202186D01*
X114774022Y-115202185D01*
X114711096Y-115170122D01*
X114577606Y-115102104D01*
X114577603Y-115102103D01*
X114367952Y-115033985D01*
X114259086Y-115016742D01*
X114150222Y-114999500D01*
X113929778Y-114999500D01*
X113857201Y-115010995D01*
X113712047Y-115033985D01*
X113502396Y-115102103D01*
X113502393Y-115102104D01*
X113305974Y-115202187D01*
X113127641Y-115331752D01*
X113127636Y-115331756D01*
X112971756Y-115487636D01*
X112971752Y-115487641D01*
X112870318Y-115627254D01*
X112814988Y-115669920D01*
X112745375Y-115675899D01*
X112683580Y-115643293D01*
X112669682Y-115627254D01*
X112568247Y-115487641D01*
X112568243Y-115487636D01*
X112412363Y-115331756D01*
X112412358Y-115331752D01*
X112234025Y-115202187D01*
X112234024Y-115202186D01*
X112234022Y-115202185D01*
X112171096Y-115170122D01*
X112037606Y-115102104D01*
X112037603Y-115102103D01*
X111827952Y-115033985D01*
X111719086Y-115016742D01*
X111610222Y-114999500D01*
X111389778Y-114999500D01*
X111317201Y-115010995D01*
X111172047Y-115033985D01*
X110962396Y-115102103D01*
X110962393Y-115102104D01*
X110765974Y-115202187D01*
X110587641Y-115331752D01*
X110587636Y-115331756D01*
X110431756Y-115487636D01*
X110431752Y-115487641D01*
X110302187Y-115665974D01*
X110202104Y-115862393D01*
X110202103Y-115862396D01*
X110133985Y-116072047D01*
X110099500Y-116289778D01*
X100300500Y-116289778D01*
X100300500Y-111921153D01*
X110699500Y-111921153D01*
X110699500Y-112078846D01*
X110730261Y-112233489D01*
X110730264Y-112233501D01*
X110790602Y-112379172D01*
X110790609Y-112379185D01*
X110878210Y-112510288D01*
X110878213Y-112510292D01*
X110989707Y-112621786D01*
X110989711Y-112621789D01*
X111120814Y-112709390D01*
X111120827Y-112709397D01*
X111266498Y-112769735D01*
X111266503Y-112769737D01*
X111421153Y-112800499D01*
X111421156Y-112800500D01*
X111421158Y-112800500D01*
X111578844Y-112800500D01*
X111578845Y-112800499D01*
X111733497Y-112769737D01*
X111879179Y-112709394D01*
X112010289Y-112621789D01*
X112121789Y-112510289D01*
X112209394Y-112379179D01*
X112269737Y-112233497D01*
X112300500Y-112078842D01*
X112300500Y-111921158D01*
X112300500Y-111921155D01*
X112300499Y-111921153D01*
X125699500Y-111921153D01*
X125699500Y-112078846D01*
X125730261Y-112233489D01*
X125730264Y-112233501D01*
X125790602Y-112379172D01*
X125790609Y-112379185D01*
X125878210Y-112510288D01*
X125878213Y-112510292D01*
X125989707Y-112621786D01*
X125989711Y-112621789D01*
X126120814Y-112709390D01*
X126120827Y-112709397D01*
X126266498Y-112769735D01*
X126266503Y-112769737D01*
X126421153Y-112800499D01*
X126421156Y-112800500D01*
X126421158Y-112800500D01*
X126578844Y-112800500D01*
X126578845Y-112800499D01*
X126733497Y-112769737D01*
X126879179Y-112709394D01*
X127010289Y-112621789D01*
X127121789Y-112510289D01*
X127209394Y-112379179D01*
X127269737Y-112233497D01*
X127300500Y-112078842D01*
X127300500Y-111921158D01*
X127300500Y-111921155D01*
X127300499Y-111921153D01*
X127271480Y-111775265D01*
X127269737Y-111766503D01*
X127269735Y-111766498D01*
X127209397Y-111620827D01*
X127209390Y-111620814D01*
X127121789Y-111489711D01*
X127121786Y-111489707D01*
X127010292Y-111378213D01*
X127010288Y-111378210D01*
X126879185Y-111290609D01*
X126879172Y-111290602D01*
X126733501Y-111230264D01*
X126733489Y-111230261D01*
X126578845Y-111199500D01*
X126578842Y-111199500D01*
X126421158Y-111199500D01*
X126421155Y-111199500D01*
X126266510Y-111230261D01*
X126266498Y-111230264D01*
X126120827Y-111290602D01*
X126120814Y-111290609D01*
X125989711Y-111378210D01*
X125989707Y-111378213D01*
X125878213Y-111489707D01*
X125878210Y-111489711D01*
X125790609Y-111620814D01*
X125790602Y-111620827D01*
X125730264Y-111766498D01*
X125730261Y-111766510D01*
X125699500Y-111921153D01*
X112300499Y-111921153D01*
X112271480Y-111775265D01*
X112269737Y-111766503D01*
X112269735Y-111766498D01*
X112209397Y-111620827D01*
X112209390Y-111620814D01*
X112121789Y-111489711D01*
X112121786Y-111489707D01*
X112010292Y-111378213D01*
X112010288Y-111378210D01*
X111879185Y-111290609D01*
X111879172Y-111290602D01*
X111733501Y-111230264D01*
X111733489Y-111230261D01*
X111578845Y-111199500D01*
X111578842Y-111199500D01*
X111421158Y-111199500D01*
X111421155Y-111199500D01*
X111266510Y-111230261D01*
X111266498Y-111230264D01*
X111120827Y-111290602D01*
X111120814Y-111290609D01*
X110989711Y-111378210D01*
X110989707Y-111378213D01*
X110878213Y-111489707D01*
X110878210Y-111489711D01*
X110790609Y-111620814D01*
X110790602Y-111620827D01*
X110730264Y-111766498D01*
X110730261Y-111766510D01*
X110699500Y-111921153D01*
X100300500Y-111921153D01*
X100300500Y-98346153D01*
X137984500Y-98346153D01*
X137984500Y-98503846D01*
X138015261Y-98658489D01*
X138015264Y-98658501D01*
X138075602Y-98804172D01*
X138075609Y-98804185D01*
X138163210Y-98935288D01*
X138163213Y-98935292D01*
X138274707Y-99046786D01*
X138274711Y-99046789D01*
X138405814Y-99134390D01*
X138405827Y-99134397D01*
X138551498Y-99194735D01*
X138551503Y-99194737D01*
X138706153Y-99225499D01*
X138706156Y-99225500D01*
X138706158Y-99225500D01*
X138863844Y-99225500D01*
X138863845Y-99225499D01*
X139018497Y-99194737D01*
X139164179Y-99134394D01*
X139295289Y-99046789D01*
X139406789Y-98935289D01*
X139494394Y-98804179D01*
X139554737Y-98658497D01*
X139585500Y-98503842D01*
X139585500Y-98346158D01*
X139585500Y-98346155D01*
X139585499Y-98346153D01*
X158199500Y-98346153D01*
X158199500Y-98503846D01*
X158230261Y-98658489D01*
X158230264Y-98658501D01*
X158290602Y-98804172D01*
X158290609Y-98804185D01*
X158378210Y-98935288D01*
X158378213Y-98935292D01*
X158489707Y-99046786D01*
X158489711Y-99046789D01*
X158620814Y-99134390D01*
X158620827Y-99134397D01*
X158766498Y-99194735D01*
X158766503Y-99194737D01*
X158921153Y-99225499D01*
X158921156Y-99225500D01*
X158921158Y-99225500D01*
X159078844Y-99225500D01*
X159078845Y-99225499D01*
X159233497Y-99194737D01*
X159379179Y-99134394D01*
X159510289Y-99046789D01*
X159621789Y-98935289D01*
X159709394Y-98804179D01*
X159769737Y-98658497D01*
X159800500Y-98503842D01*
X159800500Y-98346158D01*
X159800500Y-98346155D01*
X159800499Y-98346153D01*
X159769738Y-98191510D01*
X159769737Y-98191503D01*
X159723640Y-98080213D01*
X159709397Y-98045827D01*
X159709390Y-98045814D01*
X159621789Y-97914711D01*
X159621786Y-97914707D01*
X159510292Y-97803213D01*
X159510288Y-97803210D01*
X159379185Y-97715609D01*
X159379172Y-97715602D01*
X159233501Y-97655264D01*
X159233489Y-97655261D01*
X159078845Y-97624500D01*
X159078842Y-97624500D01*
X158921158Y-97624500D01*
X158921155Y-97624500D01*
X158766510Y-97655261D01*
X158766498Y-97655264D01*
X158620827Y-97715602D01*
X158620814Y-97715609D01*
X158489711Y-97803210D01*
X158489707Y-97803213D01*
X158378213Y-97914707D01*
X158378210Y-97914711D01*
X158290609Y-98045814D01*
X158290602Y-98045827D01*
X158230264Y-98191498D01*
X158230261Y-98191510D01*
X158199500Y-98346153D01*
X139585499Y-98346153D01*
X139554738Y-98191510D01*
X139554737Y-98191503D01*
X139508640Y-98080213D01*
X139494397Y-98045827D01*
X139494390Y-98045814D01*
X139406789Y-97914711D01*
X139406786Y-97914707D01*
X139295292Y-97803213D01*
X139295288Y-97803210D01*
X139164185Y-97715609D01*
X139164172Y-97715602D01*
X139018501Y-97655264D01*
X139018489Y-97655261D01*
X138863845Y-97624500D01*
X138863842Y-97624500D01*
X138706158Y-97624500D01*
X138706155Y-97624500D01*
X138551510Y-97655261D01*
X138551498Y-97655264D01*
X138405827Y-97715602D01*
X138405814Y-97715609D01*
X138274711Y-97803210D01*
X138274707Y-97803213D01*
X138163213Y-97914707D01*
X138163210Y-97914711D01*
X138075609Y-98045814D01*
X138075602Y-98045827D01*
X138015264Y-98191498D01*
X138015261Y-98191510D01*
X137984500Y-98346153D01*
X100300500Y-98346153D01*
X100300500Y-96313713D01*
X167149500Y-96313713D01*
X167149500Y-96526286D01*
X167182753Y-96736239D01*
X167248444Y-96938414D01*
X167344951Y-97127820D01*
X167469890Y-97299786D01*
X167620213Y-97450109D01*
X167792182Y-97575050D01*
X167800946Y-97579516D01*
X167851742Y-97627491D01*
X167868536Y-97695312D01*
X167845998Y-97761447D01*
X167800946Y-97800484D01*
X167792182Y-97804949D01*
X167620213Y-97929890D01*
X167469890Y-98080213D01*
X167344951Y-98252179D01*
X167248444Y-98441585D01*
X167182753Y-98643760D01*
X167149500Y-98853713D01*
X167149500Y-99066286D01*
X167182753Y-99276239D01*
X167248444Y-99478414D01*
X167344951Y-99667820D01*
X167469890Y-99839786D01*
X167620213Y-99990109D01*
X167792182Y-100115050D01*
X167800946Y-100119516D01*
X167851742Y-100167491D01*
X167868536Y-100235312D01*
X167845998Y-100301447D01*
X167800946Y-100340484D01*
X167792182Y-100344949D01*
X167620213Y-100469890D01*
X167469890Y-100620213D01*
X167344951Y-100792179D01*
X167248444Y-100981585D01*
X167182753Y-101183760D01*
X167149500Y-101393713D01*
X167149500Y-101606286D01*
X167182753Y-101816239D01*
X167248444Y-102018414D01*
X167344951Y-102207820D01*
X167469890Y-102379786D01*
X167620213Y-102530109D01*
X167792182Y-102655050D01*
X167800946Y-102659516D01*
X167851742Y-102707491D01*
X167868536Y-102775312D01*
X167845998Y-102841447D01*
X167800946Y-102880484D01*
X167792182Y-102884949D01*
X167620213Y-103009890D01*
X167469890Y-103160213D01*
X167344951Y-103332179D01*
X167248444Y-103521585D01*
X167182753Y-103723760D01*
X167149500Y-103933713D01*
X167149500Y-104146286D01*
X167182753Y-104356239D01*
X167248444Y-104558414D01*
X167344951Y-104747820D01*
X167469890Y-104919786D01*
X167620213Y-105070109D01*
X167792182Y-105195050D01*
X167800946Y-105199516D01*
X167851742Y-105247491D01*
X167868536Y-105315312D01*
X167845998Y-105381447D01*
X167800946Y-105420484D01*
X167792182Y-105424949D01*
X167620213Y-105549890D01*
X167469890Y-105700213D01*
X167344951Y-105872179D01*
X167248444Y-106061585D01*
X167182753Y-106263760D01*
X167149500Y-106473713D01*
X167149500Y-106686286D01*
X167182753Y-106896239D01*
X167248444Y-107098414D01*
X167344951Y-107287820D01*
X167469890Y-107459786D01*
X167583430Y-107573326D01*
X167616915Y-107634649D01*
X167611931Y-107704341D01*
X167570059Y-107760274D01*
X167539083Y-107777189D01*
X167407669Y-107826203D01*
X167407664Y-107826206D01*
X167292455Y-107912452D01*
X167292452Y-107912455D01*
X167206206Y-108027664D01*
X167206202Y-108027671D01*
X167155908Y-108162517D01*
X167149501Y-108222116D01*
X167149501Y-108222123D01*
X167149500Y-108222135D01*
X167149500Y-110017870D01*
X167149501Y-110017876D01*
X167155908Y-110077483D01*
X167206202Y-110212328D01*
X167206206Y-110212335D01*
X167292452Y-110327544D01*
X167292455Y-110327547D01*
X167407664Y-110413793D01*
X167407671Y-110413797D01*
X167542517Y-110464091D01*
X167542516Y-110464091D01*
X167549444Y-110464835D01*
X167602127Y-110470500D01*
X169397872Y-110470499D01*
X169457483Y-110464091D01*
X169592331Y-110413796D01*
X169707546Y-110327546D01*
X169793796Y-110212331D01*
X169844091Y-110077483D01*
X169850500Y-110017873D01*
X169850499Y-108222128D01*
X169844091Y-108162517D01*
X169793796Y-108027669D01*
X169793795Y-108027668D01*
X169793793Y-108027664D01*
X169707547Y-107912455D01*
X169707544Y-107912452D01*
X169592335Y-107826206D01*
X169592328Y-107826202D01*
X169460917Y-107777189D01*
X169404983Y-107735318D01*
X169380566Y-107669853D01*
X169395418Y-107601580D01*
X169416563Y-107573332D01*
X169530104Y-107459792D01*
X169655051Y-107287816D01*
X169751557Y-107098412D01*
X169817246Y-106896243D01*
X169850500Y-106686287D01*
X169850500Y-106473713D01*
X169840011Y-106407486D01*
X180324500Y-106407486D01*
X180324500Y-106592513D01*
X180353445Y-106775265D01*
X180410619Y-106951232D01*
X180410620Y-106951235D01*
X180494622Y-107116096D01*
X180603379Y-107265787D01*
X180734213Y-107396621D01*
X180883904Y-107505378D01*
X180964763Y-107546577D01*
X181048764Y-107589379D01*
X181048767Y-107589380D01*
X181180151Y-107632069D01*
X181237826Y-107671506D01*
X181265025Y-107735865D01*
X181253110Y-107804711D01*
X181205866Y-107856187D01*
X181180151Y-107867931D01*
X181048767Y-107910619D01*
X181048764Y-107910620D01*
X180883903Y-107994622D01*
X180838416Y-108027671D01*
X180734213Y-108103379D01*
X180734211Y-108103381D01*
X180734210Y-108103381D01*
X180603381Y-108234210D01*
X180603381Y-108234211D01*
X180603379Y-108234213D01*
X180556672Y-108298499D01*
X180494622Y-108383903D01*
X180410620Y-108548764D01*
X180410619Y-108548767D01*
X180353445Y-108724734D01*
X180324500Y-108907486D01*
X180324500Y-109092513D01*
X180353445Y-109275265D01*
X180410619Y-109451232D01*
X180410620Y-109451235D01*
X180494622Y-109616096D01*
X180603379Y-109765787D01*
X180734213Y-109896621D01*
X180883904Y-110005378D01*
X180964763Y-110046577D01*
X181048764Y-110089379D01*
X181048767Y-110089380D01*
X181180151Y-110132069D01*
X181237826Y-110171506D01*
X181265025Y-110235865D01*
X181253110Y-110304711D01*
X181205866Y-110356187D01*
X181180151Y-110367931D01*
X181048767Y-110410619D01*
X181048764Y-110410620D01*
X180883903Y-110494622D01*
X180798499Y-110556672D01*
X180734213Y-110603379D01*
X180734211Y-110603381D01*
X180734210Y-110603381D01*
X180603381Y-110734210D01*
X180603381Y-110734211D01*
X180603379Y-110734213D01*
X180556672Y-110798499D01*
X180494622Y-110883903D01*
X180410620Y-111048764D01*
X180410619Y-111048767D01*
X180353445Y-111224734D01*
X180329137Y-111378210D01*
X180324500Y-111407486D01*
X180324500Y-111592514D01*
X180328984Y-111620827D01*
X180353445Y-111775265D01*
X180410619Y-111951232D01*
X180410620Y-111951235D01*
X180475640Y-112078842D01*
X180494622Y-112116096D01*
X180603379Y-112265787D01*
X180734213Y-112396621D01*
X180883904Y-112505378D01*
X180964763Y-112546577D01*
X181048764Y-112589379D01*
X181048767Y-112589380D01*
X181136750Y-112617967D01*
X181224736Y-112646555D01*
X181407486Y-112675500D01*
X181407487Y-112675500D01*
X181592513Y-112675500D01*
X181592514Y-112675500D01*
X181775264Y-112646555D01*
X181951235Y-112589379D01*
X182116096Y-112505378D01*
X182265787Y-112396621D01*
X182396621Y-112265787D01*
X182505378Y-112116096D01*
X182589379Y-111951235D01*
X182646555Y-111775264D01*
X182675500Y-111592514D01*
X182675500Y-111407486D01*
X182646555Y-111224736D01*
X182589379Y-111048765D01*
X182589379Y-111048764D01*
X182505377Y-110883903D01*
X182396621Y-110734213D01*
X182265787Y-110603379D01*
X182116096Y-110494622D01*
X181951235Y-110410620D01*
X181951232Y-110410619D01*
X181819848Y-110367931D01*
X181762173Y-110328494D01*
X181734974Y-110264135D01*
X181746888Y-110195289D01*
X181794132Y-110143813D01*
X181819848Y-110132069D01*
X181951232Y-110089380D01*
X181951235Y-110089379D01*
X181974584Y-110077482D01*
X182116096Y-110005378D01*
X182265787Y-109896621D01*
X182396621Y-109765787D01*
X182505378Y-109616096D01*
X182589379Y-109451235D01*
X182646555Y-109275264D01*
X182675500Y-109092514D01*
X182675500Y-108907486D01*
X182646555Y-108724736D01*
X182589379Y-108548765D01*
X182589379Y-108548764D01*
X182505377Y-108383903D01*
X182396621Y-108234213D01*
X182265787Y-108103379D01*
X182116096Y-107994622D01*
X181951235Y-107910620D01*
X181951232Y-107910619D01*
X181819848Y-107867931D01*
X181762173Y-107828494D01*
X181734974Y-107764135D01*
X181746888Y-107695289D01*
X181794132Y-107643813D01*
X181819848Y-107632069D01*
X181951232Y-107589380D01*
X181951235Y-107589379D01*
X182116096Y-107505378D01*
X182265787Y-107396621D01*
X182396621Y-107265787D01*
X182505378Y-107116096D01*
X182589379Y-106951235D01*
X182646555Y-106775264D01*
X182675500Y-106592514D01*
X182675500Y-106407486D01*
X182646555Y-106224736D01*
X182617967Y-106136750D01*
X182589380Y-106048767D01*
X182589379Y-106048764D01*
X182505377Y-105883903D01*
X182496859Y-105872179D01*
X182396621Y-105734213D01*
X182265787Y-105603379D01*
X182116096Y-105494622D01*
X181949006Y-105409485D01*
X181898210Y-105361510D01*
X181881415Y-105293689D01*
X181903953Y-105227554D01*
X181958668Y-105184103D01*
X182005301Y-105175000D01*
X182222828Y-105175000D01*
X182222844Y-105174999D01*
X182282372Y-105168598D01*
X182282379Y-105168596D01*
X182417086Y-105118354D01*
X182417093Y-105118350D01*
X182532187Y-105032190D01*
X182532190Y-105032187D01*
X182618350Y-104917093D01*
X182618354Y-104917086D01*
X182668596Y-104782379D01*
X182668598Y-104782372D01*
X182674999Y-104722844D01*
X182675000Y-104722827D01*
X182675000Y-104250000D01*
X181933012Y-104250000D01*
X181965925Y-104192993D01*
X182000000Y-104065826D01*
X182000000Y-103934174D01*
X181965925Y-103807007D01*
X181933012Y-103750000D01*
X182675000Y-103750000D01*
X182675000Y-103277172D01*
X182674999Y-103277155D01*
X182668598Y-103217627D01*
X182668596Y-103217620D01*
X182618354Y-103082913D01*
X182618350Y-103082906D01*
X182532190Y-102967812D01*
X182532187Y-102967809D01*
X182417093Y-102881649D01*
X182417086Y-102881645D01*
X182282379Y-102831403D01*
X182282372Y-102831401D01*
X182222844Y-102825000D01*
X181750000Y-102825000D01*
X181750000Y-103566988D01*
X181692993Y-103534075D01*
X181565826Y-103500000D01*
X181434174Y-103500000D01*
X181307007Y-103534075D01*
X181250000Y-103566988D01*
X181250000Y-102825000D01*
X180777155Y-102825000D01*
X180717627Y-102831401D01*
X180717620Y-102831403D01*
X180582913Y-102881645D01*
X180582906Y-102881649D01*
X180467812Y-102967809D01*
X180467809Y-102967812D01*
X180381649Y-103082906D01*
X180381645Y-103082913D01*
X180331403Y-103217620D01*
X180331401Y-103217627D01*
X180325000Y-103277155D01*
X180325000Y-103750000D01*
X181066988Y-103750000D01*
X181034075Y-103807007D01*
X181000000Y-103934174D01*
X181000000Y-104065826D01*
X181034075Y-104192993D01*
X181066988Y-104250000D01*
X180325000Y-104250000D01*
X180325000Y-104722844D01*
X180331401Y-104782372D01*
X180331403Y-104782379D01*
X180381645Y-104917086D01*
X180381649Y-104917093D01*
X180467809Y-105032187D01*
X180467812Y-105032190D01*
X180582906Y-105118350D01*
X180582913Y-105118354D01*
X180717620Y-105168596D01*
X180717627Y-105168598D01*
X180777155Y-105174999D01*
X180777172Y-105175000D01*
X180994699Y-105175000D01*
X181061738Y-105194685D01*
X181107493Y-105247489D01*
X181117437Y-105316647D01*
X181088412Y-105380203D01*
X181050994Y-105409485D01*
X180883903Y-105494622D01*
X180807834Y-105549890D01*
X180734213Y-105603379D01*
X180734211Y-105603381D01*
X180734210Y-105603381D01*
X180603381Y-105734210D01*
X180603381Y-105734211D01*
X180603379Y-105734213D01*
X180556672Y-105798499D01*
X180494622Y-105883903D01*
X180410620Y-106048764D01*
X180410619Y-106048767D01*
X180353445Y-106224734D01*
X180324500Y-106407486D01*
X169840011Y-106407486D01*
X169817246Y-106263757D01*
X169751557Y-106061588D01*
X169655051Y-105872184D01*
X169655049Y-105872181D01*
X169655048Y-105872179D01*
X169530109Y-105700213D01*
X169379786Y-105549890D01*
X169207820Y-105424951D01*
X169207115Y-105424591D01*
X169199054Y-105420485D01*
X169148259Y-105372512D01*
X169131463Y-105304692D01*
X169153999Y-105238556D01*
X169199054Y-105199515D01*
X169207816Y-105195051D01*
X169244226Y-105168598D01*
X169379786Y-105070109D01*
X169379788Y-105070106D01*
X169379792Y-105070104D01*
X169530104Y-104919792D01*
X169530106Y-104919788D01*
X169530109Y-104919786D01*
X169655048Y-104747820D01*
X169655047Y-104747820D01*
X169655051Y-104747816D01*
X169751557Y-104558412D01*
X169817246Y-104356243D01*
X169850500Y-104146287D01*
X169850500Y-103933713D01*
X169817246Y-103723757D01*
X169751557Y-103521588D01*
X169655051Y-103332184D01*
X169655049Y-103332182D01*
X169655047Y-103332177D01*
X169530109Y-103160213D01*
X169379786Y-103009890D01*
X169207820Y-102884951D01*
X169201339Y-102881649D01*
X169199054Y-102880485D01*
X169148259Y-102832512D01*
X169131463Y-102764692D01*
X169153999Y-102698556D01*
X169199054Y-102659515D01*
X169207816Y-102655051D01*
X169229789Y-102639086D01*
X169379786Y-102530109D01*
X169379788Y-102530106D01*
X169379792Y-102530104D01*
X169530104Y-102379792D01*
X169530106Y-102379788D01*
X169530109Y-102379786D01*
X169655048Y-102207820D01*
X169655047Y-102207820D01*
X169655051Y-102207816D01*
X169751557Y-102018412D01*
X169817246Y-101816243D01*
X169850500Y-101606287D01*
X169850500Y-101393713D01*
X169817246Y-101183757D01*
X169751557Y-100981588D01*
X169655051Y-100792184D01*
X169655049Y-100792181D01*
X169655048Y-100792179D01*
X169530109Y-100620213D01*
X169379786Y-100469890D01*
X169207820Y-100344951D01*
X169207115Y-100344591D01*
X169199054Y-100340485D01*
X169148259Y-100292512D01*
X169131463Y-100224692D01*
X169153999Y-100158556D01*
X169199054Y-100119515D01*
X169207816Y-100115051D01*
X169229789Y-100099086D01*
X169379786Y-99990109D01*
X169379788Y-99990106D01*
X169379792Y-99990104D01*
X169530104Y-99839792D01*
X169530106Y-99839788D01*
X169530109Y-99839786D01*
X169655048Y-99667820D01*
X169655047Y-99667820D01*
X169655051Y-99667816D01*
X169751557Y-99478412D01*
X169817246Y-99276243D01*
X169850500Y-99066287D01*
X169850500Y-98853713D01*
X169817246Y-98643757D01*
X169751557Y-98441588D01*
X169655051Y-98252184D01*
X169655049Y-98252181D01*
X169655048Y-98252179D01*
X169530109Y-98080213D01*
X169379786Y-97929890D01*
X169207820Y-97804951D01*
X169204403Y-97803210D01*
X169199054Y-97800485D01*
X169148259Y-97752512D01*
X169131463Y-97684692D01*
X169153999Y-97618556D01*
X169199054Y-97579515D01*
X169207816Y-97575051D01*
X169229789Y-97559086D01*
X169379786Y-97450109D01*
X169379788Y-97450106D01*
X169379792Y-97450104D01*
X169530104Y-97299792D01*
X169530106Y-97299788D01*
X169530109Y-97299786D01*
X169655048Y-97127820D01*
X169655047Y-97127820D01*
X169655051Y-97127816D01*
X169751557Y-96938412D01*
X169817246Y-96736243D01*
X169850500Y-96526287D01*
X169850500Y-96313713D01*
X169817246Y-96103757D01*
X169751557Y-95901588D01*
X169655051Y-95712184D01*
X169655049Y-95712181D01*
X169655048Y-95712179D01*
X169530109Y-95540213D01*
X169379786Y-95389890D01*
X169207820Y-95264951D01*
X169018414Y-95168444D01*
X169018413Y-95168443D01*
X169018412Y-95168443D01*
X168816243Y-95102754D01*
X168816241Y-95102753D01*
X168816240Y-95102753D01*
X168654957Y-95077208D01*
X168606287Y-95069500D01*
X168393713Y-95069500D01*
X168345042Y-95077208D01*
X168183760Y-95102753D01*
X167981585Y-95168444D01*
X167792179Y-95264951D01*
X167620213Y-95389890D01*
X167469890Y-95540213D01*
X167344951Y-95712179D01*
X167248444Y-95901585D01*
X167182753Y-96103760D01*
X167149500Y-96313713D01*
X100300500Y-96313713D01*
X100300500Y-92189778D01*
X120259500Y-92189778D01*
X120259500Y-94210222D01*
X120273799Y-94300499D01*
X120293985Y-94427952D01*
X120362103Y-94637603D01*
X120362104Y-94637606D01*
X120430122Y-94771096D01*
X120457129Y-94824100D01*
X120462187Y-94834025D01*
X120591752Y-95012358D01*
X120591756Y-95012363D01*
X120747636Y-95168243D01*
X120747641Y-95168247D01*
X120880744Y-95264951D01*
X120925978Y-95297815D01*
X121054375Y-95363237D01*
X121122393Y-95397895D01*
X121122396Y-95397896D01*
X121227221Y-95431955D01*
X121332049Y-95466015D01*
X121549778Y-95500500D01*
X121549779Y-95500500D01*
X121770221Y-95500500D01*
X121770222Y-95500500D01*
X121987951Y-95466015D01*
X122197606Y-95397895D01*
X122394022Y-95297815D01*
X122572365Y-95168242D01*
X122728242Y-95012365D01*
X122738804Y-94997826D01*
X122829682Y-94872745D01*
X122885011Y-94830079D01*
X122954625Y-94824100D01*
X123016420Y-94856705D01*
X123030318Y-94872745D01*
X123131752Y-95012358D01*
X123131756Y-95012363D01*
X123287636Y-95168243D01*
X123287641Y-95168247D01*
X123420744Y-95264951D01*
X123465978Y-95297815D01*
X123594375Y-95363237D01*
X123662393Y-95397895D01*
X123662396Y-95397896D01*
X123767221Y-95431955D01*
X123872049Y-95466015D01*
X124089778Y-95500500D01*
X124089779Y-95500500D01*
X124310221Y-95500500D01*
X124310222Y-95500500D01*
X124527951Y-95466015D01*
X124737606Y-95397895D01*
X124934022Y-95297815D01*
X125112365Y-95168242D01*
X125268242Y-95012365D01*
X125369991Y-94872317D01*
X125425320Y-94829653D01*
X125494933Y-94823674D01*
X125556729Y-94856279D01*
X125570627Y-94872318D01*
X125672142Y-95012041D01*
X125827958Y-95167857D01*
X126006239Y-95297386D01*
X126202589Y-95397432D01*
X126412164Y-95465526D01*
X126629819Y-95500000D01*
X126850181Y-95500000D01*
X127067835Y-95465526D01*
X127277410Y-95397432D01*
X127473760Y-95297386D01*
X127652041Y-95167857D01*
X127807857Y-95012041D01*
X127807862Y-95012035D01*
X127909372Y-94872319D01*
X127964702Y-94829653D01*
X128034315Y-94823674D01*
X128096110Y-94856279D01*
X128110008Y-94872319D01*
X128211752Y-95012358D01*
X128211756Y-95012363D01*
X128367636Y-95168243D01*
X128367641Y-95168247D01*
X128500744Y-95264951D01*
X128545978Y-95297815D01*
X128674375Y-95363237D01*
X128742393Y-95397895D01*
X128742396Y-95397896D01*
X128847221Y-95431955D01*
X128952049Y-95466015D01*
X129169778Y-95500500D01*
X129169779Y-95500500D01*
X129390221Y-95500500D01*
X129390222Y-95500500D01*
X129607951Y-95466015D01*
X129817606Y-95397895D01*
X130014022Y-95297815D01*
X130192365Y-95168242D01*
X130348242Y-95012365D01*
X130358804Y-94997826D01*
X130449682Y-94872745D01*
X130505011Y-94830079D01*
X130574625Y-94824100D01*
X130636420Y-94856705D01*
X130650318Y-94872745D01*
X130751752Y-95012358D01*
X130751756Y-95012363D01*
X130907636Y-95168243D01*
X130907641Y-95168247D01*
X131040744Y-95264951D01*
X131085978Y-95297815D01*
X131214375Y-95363237D01*
X131282393Y-95397895D01*
X131282396Y-95397896D01*
X131387221Y-95431955D01*
X131492049Y-95466015D01*
X131709778Y-95500500D01*
X131709779Y-95500500D01*
X131930221Y-95500500D01*
X131930222Y-95500500D01*
X132147951Y-95466015D01*
X132357606Y-95397895D01*
X132554022Y-95297815D01*
X132732365Y-95168242D01*
X132888242Y-95012365D01*
X132898804Y-94997826D01*
X132989682Y-94872745D01*
X133045011Y-94830079D01*
X133114625Y-94824100D01*
X133176420Y-94856705D01*
X133190318Y-94872745D01*
X133291752Y-95012358D01*
X133291756Y-95012363D01*
X133447636Y-95168243D01*
X133447641Y-95168247D01*
X133580744Y-95264951D01*
X133625978Y-95297815D01*
X133754375Y-95363237D01*
X133822393Y-95397895D01*
X133822396Y-95397896D01*
X133927221Y-95431955D01*
X134032049Y-95466015D01*
X134249778Y-95500500D01*
X134249779Y-95500500D01*
X134470221Y-95500500D01*
X134470222Y-95500500D01*
X134687951Y-95466015D01*
X134897606Y-95397895D01*
X135094022Y-95297815D01*
X135272365Y-95168242D01*
X135428242Y-95012365D01*
X135438804Y-94997826D01*
X135529682Y-94872745D01*
X135585011Y-94830079D01*
X135654625Y-94824100D01*
X135716420Y-94856705D01*
X135730318Y-94872745D01*
X135831752Y-95012358D01*
X135831756Y-95012363D01*
X135987636Y-95168243D01*
X135987641Y-95168247D01*
X136120744Y-95264951D01*
X136165978Y-95297815D01*
X136294375Y-95363237D01*
X136362393Y-95397895D01*
X136362396Y-95397896D01*
X136467221Y-95431955D01*
X136572049Y-95466015D01*
X136789778Y-95500500D01*
X136789779Y-95500500D01*
X137010221Y-95500500D01*
X137010222Y-95500500D01*
X137227951Y-95466015D01*
X137437606Y-95397895D01*
X137634022Y-95297815D01*
X137812365Y-95168242D01*
X137968242Y-95012365D01*
X137978804Y-94997826D01*
X138069682Y-94872745D01*
X138125011Y-94830079D01*
X138194625Y-94824100D01*
X138256420Y-94856705D01*
X138270318Y-94872745D01*
X138371752Y-95012358D01*
X138371756Y-95012363D01*
X138527636Y-95168243D01*
X138527641Y-95168247D01*
X138660744Y-95264951D01*
X138705978Y-95297815D01*
X138834375Y-95363237D01*
X138902393Y-95397895D01*
X138902396Y-95397896D01*
X139007221Y-95431955D01*
X139112049Y-95466015D01*
X139329778Y-95500500D01*
X139329779Y-95500500D01*
X139550221Y-95500500D01*
X139550222Y-95500500D01*
X139767951Y-95466015D01*
X139977606Y-95397895D01*
X140174022Y-95297815D01*
X140352365Y-95168242D01*
X140508242Y-95012365D01*
X140518804Y-94997826D01*
X140609682Y-94872745D01*
X140665011Y-94830079D01*
X140734625Y-94824100D01*
X140796420Y-94856705D01*
X140810318Y-94872745D01*
X140911752Y-95012358D01*
X140911756Y-95012363D01*
X141067636Y-95168243D01*
X141067641Y-95168247D01*
X141200744Y-95264951D01*
X141245978Y-95297815D01*
X141374375Y-95363237D01*
X141442393Y-95397895D01*
X141442396Y-95397896D01*
X141547221Y-95431955D01*
X141652049Y-95466015D01*
X141869778Y-95500500D01*
X141869779Y-95500500D01*
X142090221Y-95500500D01*
X142090222Y-95500500D01*
X142307951Y-95466015D01*
X142517606Y-95397895D01*
X142714022Y-95297815D01*
X142892365Y-95168242D01*
X143048242Y-95012365D01*
X143058804Y-94997826D01*
X143149682Y-94872745D01*
X143205011Y-94830079D01*
X143274625Y-94824100D01*
X143336420Y-94856705D01*
X143350318Y-94872745D01*
X143451752Y-95012358D01*
X143451756Y-95012363D01*
X143607636Y-95168243D01*
X143607641Y-95168247D01*
X143740744Y-95264951D01*
X143785978Y-95297815D01*
X143914375Y-95363237D01*
X143982393Y-95397895D01*
X143982396Y-95397896D01*
X144087221Y-95431955D01*
X144192049Y-95466015D01*
X144409778Y-95500500D01*
X144409779Y-95500500D01*
X144630221Y-95500500D01*
X144630222Y-95500500D01*
X144847951Y-95466015D01*
X145057606Y-95397895D01*
X145254022Y-95297815D01*
X145432365Y-95168242D01*
X145588242Y-95012365D01*
X145598804Y-94997826D01*
X145689682Y-94872745D01*
X145745011Y-94830079D01*
X145814625Y-94824100D01*
X145876420Y-94856705D01*
X145890318Y-94872745D01*
X145991752Y-95012358D01*
X145991756Y-95012363D01*
X146147636Y-95168243D01*
X146147641Y-95168247D01*
X146280744Y-95264951D01*
X146325978Y-95297815D01*
X146454375Y-95363237D01*
X146522393Y-95397895D01*
X146522396Y-95397896D01*
X146627221Y-95431955D01*
X146732049Y-95466015D01*
X146949778Y-95500500D01*
X146949779Y-95500500D01*
X147170221Y-95500500D01*
X147170222Y-95500500D01*
X147387951Y-95466015D01*
X147597606Y-95397895D01*
X147794022Y-95297815D01*
X147972365Y-95168242D01*
X148128242Y-95012365D01*
X148138804Y-94997826D01*
X148229682Y-94872745D01*
X148285011Y-94830079D01*
X148354625Y-94824100D01*
X148416420Y-94856705D01*
X148430318Y-94872745D01*
X148531752Y-95012358D01*
X148531756Y-95012363D01*
X148687636Y-95168243D01*
X148687641Y-95168247D01*
X148820744Y-95264951D01*
X148865978Y-95297815D01*
X148994375Y-95363237D01*
X149062393Y-95397895D01*
X149062396Y-95397896D01*
X149167221Y-95431955D01*
X149272049Y-95466015D01*
X149489778Y-95500500D01*
X149489779Y-95500500D01*
X149710221Y-95500500D01*
X149710222Y-95500500D01*
X149927951Y-95466015D01*
X150137606Y-95397895D01*
X150334022Y-95297815D01*
X150512365Y-95168242D01*
X150668242Y-95012365D01*
X150678804Y-94997826D01*
X150769682Y-94872745D01*
X150825011Y-94830079D01*
X150894625Y-94824100D01*
X150956420Y-94856705D01*
X150970318Y-94872745D01*
X151071752Y-95012358D01*
X151071756Y-95012363D01*
X151227636Y-95168243D01*
X151227641Y-95168247D01*
X151360744Y-95264951D01*
X151405978Y-95297815D01*
X151534375Y-95363237D01*
X151602393Y-95397895D01*
X151602396Y-95397896D01*
X151707221Y-95431955D01*
X151812049Y-95466015D01*
X152029778Y-95500500D01*
X152029779Y-95500500D01*
X152250221Y-95500500D01*
X152250222Y-95500500D01*
X152467951Y-95466015D01*
X152677606Y-95397895D01*
X152874022Y-95297815D01*
X153052365Y-95168242D01*
X153208242Y-95012365D01*
X153218804Y-94997826D01*
X153309682Y-94872745D01*
X153365011Y-94830079D01*
X153434625Y-94824100D01*
X153496420Y-94856705D01*
X153510318Y-94872745D01*
X153611752Y-95012358D01*
X153611756Y-95012363D01*
X153767636Y-95168243D01*
X153767641Y-95168247D01*
X153900744Y-95264951D01*
X153945978Y-95297815D01*
X154074375Y-95363237D01*
X154142393Y-95397895D01*
X154142396Y-95397896D01*
X154247221Y-95431955D01*
X154352049Y-95466015D01*
X154569778Y-95500500D01*
X154569779Y-95500500D01*
X154790221Y-95500500D01*
X154790222Y-95500500D01*
X155007951Y-95466015D01*
X155217606Y-95397895D01*
X155414022Y-95297815D01*
X155592365Y-95168242D01*
X155748242Y-95012365D01*
X155877815Y-94834022D01*
X155977895Y-94637606D01*
X156046015Y-94427951D01*
X156080500Y-94210222D01*
X156080500Y-93421153D01*
X171699500Y-93421153D01*
X171699500Y-93578846D01*
X171730261Y-93733489D01*
X171730264Y-93733501D01*
X171790602Y-93879172D01*
X171790609Y-93879185D01*
X171878210Y-94010288D01*
X171878213Y-94010292D01*
X171989707Y-94121786D01*
X171989711Y-94121789D01*
X172120814Y-94209390D01*
X172120827Y-94209397D01*
X172266498Y-94269735D01*
X172266503Y-94269737D01*
X172421153Y-94300499D01*
X172421156Y-94300500D01*
X172421158Y-94300500D01*
X172578844Y-94300500D01*
X172578845Y-94300499D01*
X172733497Y-94269737D01*
X172877180Y-94210222D01*
X172879172Y-94209397D01*
X172879172Y-94209396D01*
X172879179Y-94209394D01*
X173010289Y-94121789D01*
X173121789Y-94010289D01*
X173209394Y-93879179D01*
X173269737Y-93733497D01*
X173300500Y-93578842D01*
X173300500Y-93421158D01*
X173300500Y-93421155D01*
X173300499Y-93421153D01*
X173269738Y-93266510D01*
X173269737Y-93266503D01*
X173269735Y-93266498D01*
X173209397Y-93120827D01*
X173209390Y-93120814D01*
X173121789Y-92989711D01*
X173121786Y-92989707D01*
X173010292Y-92878213D01*
X173010288Y-92878210D01*
X172879185Y-92790609D01*
X172879172Y-92790602D01*
X172733501Y-92730264D01*
X172733489Y-92730261D01*
X172578845Y-92699500D01*
X172578842Y-92699500D01*
X172421158Y-92699500D01*
X172421155Y-92699500D01*
X172266510Y-92730261D01*
X172266498Y-92730264D01*
X172120827Y-92790602D01*
X172120814Y-92790609D01*
X171989711Y-92878210D01*
X171989707Y-92878213D01*
X171878213Y-92989707D01*
X171878210Y-92989711D01*
X171790609Y-93120814D01*
X171790602Y-93120827D01*
X171730264Y-93266498D01*
X171730261Y-93266510D01*
X171699500Y-93421153D01*
X156080500Y-93421153D01*
X156080500Y-92189778D01*
X156046015Y-91972049D01*
X156046014Y-91972045D01*
X156039951Y-91953383D01*
X156029479Y-91921153D01*
X176199500Y-91921153D01*
X176199500Y-92078846D01*
X176230261Y-92233489D01*
X176230264Y-92233501D01*
X176290602Y-92379172D01*
X176290609Y-92379185D01*
X176378210Y-92510288D01*
X176378213Y-92510292D01*
X176489707Y-92621786D01*
X176489711Y-92621789D01*
X176620814Y-92709390D01*
X176620827Y-92709397D01*
X176766498Y-92769735D01*
X176766503Y-92769737D01*
X176921153Y-92800499D01*
X176921156Y-92800500D01*
X176921158Y-92800500D01*
X177078844Y-92800500D01*
X177078845Y-92800499D01*
X177233497Y-92769737D01*
X177379179Y-92709394D01*
X177510289Y-92621789D01*
X177621789Y-92510289D01*
X177709394Y-92379179D01*
X177769737Y-92233497D01*
X177800500Y-92078842D01*
X177800500Y-91921158D01*
X177800500Y-91921155D01*
X177800499Y-91921153D01*
X177769738Y-91766510D01*
X177769737Y-91766503D01*
X177745358Y-91707647D01*
X177709397Y-91620827D01*
X177709390Y-91620814D01*
X177621789Y-91489711D01*
X177621786Y-91489707D01*
X177510292Y-91378213D01*
X177510288Y-91378210D01*
X177379185Y-91290609D01*
X177379172Y-91290602D01*
X177233501Y-91230264D01*
X177233489Y-91230261D01*
X177078845Y-91199500D01*
X177078842Y-91199500D01*
X176921158Y-91199500D01*
X176921155Y-91199500D01*
X176766510Y-91230261D01*
X176766498Y-91230264D01*
X176620827Y-91290602D01*
X176620814Y-91290609D01*
X176489711Y-91378210D01*
X176489707Y-91378213D01*
X176378213Y-91489707D01*
X176378210Y-91489711D01*
X176290609Y-91620814D01*
X176290602Y-91620827D01*
X176230264Y-91766498D01*
X176230261Y-91766510D01*
X176199500Y-91921153D01*
X156029479Y-91921153D01*
X155977896Y-91762396D01*
X155977895Y-91762393D01*
X155905759Y-91620821D01*
X155877815Y-91565978D01*
X155822401Y-91489707D01*
X155748247Y-91387641D01*
X155748243Y-91387636D01*
X155592363Y-91231756D01*
X155592358Y-91231752D01*
X155414025Y-91102187D01*
X155414024Y-91102186D01*
X155414022Y-91102185D01*
X155351096Y-91070122D01*
X155217606Y-91002104D01*
X155217603Y-91002103D01*
X155007952Y-90933985D01*
X154899086Y-90916742D01*
X154790222Y-90899500D01*
X154569778Y-90899500D01*
X154497201Y-90910995D01*
X154352047Y-90933985D01*
X154142396Y-91002103D01*
X154142393Y-91002104D01*
X153945974Y-91102187D01*
X153767641Y-91231752D01*
X153767636Y-91231756D01*
X153611756Y-91387636D01*
X153611752Y-91387641D01*
X153510318Y-91527254D01*
X153454988Y-91569920D01*
X153385375Y-91575899D01*
X153323580Y-91543293D01*
X153309682Y-91527254D01*
X153208247Y-91387641D01*
X153208243Y-91387636D01*
X153052363Y-91231756D01*
X153052358Y-91231752D01*
X152874025Y-91102187D01*
X152874024Y-91102186D01*
X152874022Y-91102185D01*
X152811096Y-91070122D01*
X152677606Y-91002104D01*
X152677603Y-91002103D01*
X152467952Y-90933985D01*
X152359086Y-90916742D01*
X152250222Y-90899500D01*
X152029778Y-90899500D01*
X151957201Y-90910995D01*
X151812047Y-90933985D01*
X151602396Y-91002103D01*
X151602393Y-91002104D01*
X151405974Y-91102187D01*
X151227641Y-91231752D01*
X151227636Y-91231756D01*
X151071756Y-91387636D01*
X151071752Y-91387641D01*
X150970318Y-91527254D01*
X150914988Y-91569920D01*
X150845375Y-91575899D01*
X150783580Y-91543293D01*
X150769682Y-91527254D01*
X150668247Y-91387641D01*
X150668243Y-91387636D01*
X150512363Y-91231756D01*
X150512358Y-91231752D01*
X150334025Y-91102187D01*
X150334024Y-91102186D01*
X150334022Y-91102185D01*
X150271096Y-91070122D01*
X150137606Y-91002104D01*
X150137603Y-91002103D01*
X149927952Y-90933985D01*
X149819086Y-90916742D01*
X149710222Y-90899500D01*
X149489778Y-90899500D01*
X149417201Y-90910995D01*
X149272047Y-90933985D01*
X149062396Y-91002103D01*
X149062393Y-91002104D01*
X148865974Y-91102187D01*
X148687641Y-91231752D01*
X148687636Y-91231756D01*
X148531756Y-91387636D01*
X148531752Y-91387641D01*
X148430318Y-91527254D01*
X148374988Y-91569920D01*
X148305375Y-91575899D01*
X148243580Y-91543293D01*
X148229682Y-91527254D01*
X148128247Y-91387641D01*
X148128243Y-91387636D01*
X147972363Y-91231756D01*
X147972358Y-91231752D01*
X147794025Y-91102187D01*
X147794024Y-91102186D01*
X147794022Y-91102185D01*
X147731096Y-91070122D01*
X147597606Y-91002104D01*
X147597603Y-91002103D01*
X147387952Y-90933985D01*
X147279086Y-90916742D01*
X147170222Y-90899500D01*
X146949778Y-90899500D01*
X146877201Y-90910995D01*
X146732047Y-90933985D01*
X146522396Y-91002103D01*
X146522393Y-91002104D01*
X146325974Y-91102187D01*
X146147641Y-91231752D01*
X146147636Y-91231756D01*
X145991756Y-91387636D01*
X145991752Y-91387641D01*
X145890318Y-91527254D01*
X145834988Y-91569920D01*
X145765375Y-91575899D01*
X145703580Y-91543293D01*
X145689682Y-91527254D01*
X145588247Y-91387641D01*
X145588243Y-91387636D01*
X145432363Y-91231756D01*
X145432358Y-91231752D01*
X145254025Y-91102187D01*
X145254024Y-91102186D01*
X145254022Y-91102185D01*
X145191096Y-91070122D01*
X145057606Y-91002104D01*
X145057603Y-91002103D01*
X144847952Y-90933985D01*
X144739086Y-90916742D01*
X144630222Y-90899500D01*
X144409778Y-90899500D01*
X144337201Y-90910995D01*
X144192047Y-90933985D01*
X143982396Y-91002103D01*
X143982393Y-91002104D01*
X143785974Y-91102187D01*
X143607641Y-91231752D01*
X143607636Y-91231756D01*
X143451756Y-91387636D01*
X143451752Y-91387641D01*
X143350318Y-91527254D01*
X143294988Y-91569920D01*
X143225375Y-91575899D01*
X143163580Y-91543293D01*
X143149682Y-91527254D01*
X143048247Y-91387641D01*
X143048243Y-91387636D01*
X142892363Y-91231756D01*
X142892358Y-91231752D01*
X142714025Y-91102187D01*
X142714024Y-91102186D01*
X142714022Y-91102185D01*
X142651096Y-91070122D01*
X142517606Y-91002104D01*
X142517603Y-91002103D01*
X142307952Y-90933985D01*
X142199086Y-90916742D01*
X142090222Y-90899500D01*
X141869778Y-90899500D01*
X141797201Y-90910995D01*
X141652047Y-90933985D01*
X141442396Y-91002103D01*
X141442393Y-91002104D01*
X141245974Y-91102187D01*
X141067641Y-91231752D01*
X141067636Y-91231756D01*
X140911756Y-91387636D01*
X140911752Y-91387641D01*
X140810318Y-91527254D01*
X140754988Y-91569920D01*
X140685375Y-91575899D01*
X140623580Y-91543293D01*
X140609682Y-91527254D01*
X140508247Y-91387641D01*
X140508243Y-91387636D01*
X140352363Y-91231756D01*
X140352358Y-91231752D01*
X140174025Y-91102187D01*
X140174024Y-91102186D01*
X140174022Y-91102185D01*
X140111096Y-91070122D01*
X139977606Y-91002104D01*
X139977603Y-91002103D01*
X139767952Y-90933985D01*
X139659086Y-90916742D01*
X139550222Y-90899500D01*
X139329778Y-90899500D01*
X139257201Y-90910995D01*
X139112047Y-90933985D01*
X138902396Y-91002103D01*
X138902393Y-91002104D01*
X138705974Y-91102187D01*
X138527641Y-91231752D01*
X138527636Y-91231756D01*
X138371756Y-91387636D01*
X138371752Y-91387641D01*
X138270318Y-91527254D01*
X138214988Y-91569920D01*
X138145375Y-91575899D01*
X138083580Y-91543293D01*
X138069682Y-91527254D01*
X137968247Y-91387641D01*
X137968243Y-91387636D01*
X137812363Y-91231756D01*
X137812358Y-91231752D01*
X137634025Y-91102187D01*
X137634024Y-91102186D01*
X137634022Y-91102185D01*
X137571096Y-91070122D01*
X137437606Y-91002104D01*
X137437603Y-91002103D01*
X137227952Y-90933985D01*
X137119086Y-90916742D01*
X137010222Y-90899500D01*
X136789778Y-90899500D01*
X136717201Y-90910995D01*
X136572047Y-90933985D01*
X136362396Y-91002103D01*
X136362393Y-91002104D01*
X136165974Y-91102187D01*
X135987641Y-91231752D01*
X135987636Y-91231756D01*
X135831756Y-91387636D01*
X135831752Y-91387641D01*
X135730318Y-91527254D01*
X135674988Y-91569920D01*
X135605375Y-91575899D01*
X135543580Y-91543293D01*
X135529682Y-91527254D01*
X135428247Y-91387641D01*
X135428243Y-91387636D01*
X135272363Y-91231756D01*
X135272358Y-91231752D01*
X135094025Y-91102187D01*
X135094024Y-91102186D01*
X135094022Y-91102185D01*
X135031096Y-91070122D01*
X134897606Y-91002104D01*
X134897603Y-91002103D01*
X134687952Y-90933985D01*
X134579086Y-90916742D01*
X134470222Y-90899500D01*
X134249778Y-90899500D01*
X134177201Y-90910995D01*
X134032047Y-90933985D01*
X133822396Y-91002103D01*
X133822393Y-91002104D01*
X133625974Y-91102187D01*
X133447641Y-91231752D01*
X133447636Y-91231756D01*
X133291756Y-91387636D01*
X133291752Y-91387641D01*
X133190318Y-91527254D01*
X133134988Y-91569920D01*
X133065375Y-91575899D01*
X133003580Y-91543293D01*
X132989682Y-91527254D01*
X132888247Y-91387641D01*
X132888243Y-91387636D01*
X132732363Y-91231756D01*
X132732358Y-91231752D01*
X132554025Y-91102187D01*
X132554024Y-91102186D01*
X132554022Y-91102185D01*
X132491096Y-91070122D01*
X132357606Y-91002104D01*
X132357603Y-91002103D01*
X132147952Y-90933985D01*
X132039086Y-90916742D01*
X131930222Y-90899500D01*
X131709778Y-90899500D01*
X131637201Y-90910995D01*
X131492047Y-90933985D01*
X131282396Y-91002103D01*
X131282393Y-91002104D01*
X131085974Y-91102187D01*
X130907641Y-91231752D01*
X130907636Y-91231756D01*
X130751756Y-91387636D01*
X130751752Y-91387641D01*
X130650318Y-91527254D01*
X130594988Y-91569920D01*
X130525375Y-91575899D01*
X130463580Y-91543293D01*
X130449682Y-91527254D01*
X130348247Y-91387641D01*
X130348243Y-91387636D01*
X130192363Y-91231756D01*
X130192358Y-91231752D01*
X130014025Y-91102187D01*
X130014024Y-91102186D01*
X130014022Y-91102185D01*
X129951096Y-91070122D01*
X129817606Y-91002104D01*
X129817603Y-91002103D01*
X129607952Y-90933985D01*
X129499086Y-90916742D01*
X129390222Y-90899500D01*
X129169778Y-90899500D01*
X129097201Y-90910995D01*
X128952047Y-90933985D01*
X128742396Y-91002103D01*
X128742393Y-91002104D01*
X128545974Y-91102187D01*
X128367641Y-91231752D01*
X128367636Y-91231756D01*
X128211756Y-91387636D01*
X128110008Y-91527681D01*
X128054678Y-91570346D01*
X127985065Y-91576325D01*
X127923270Y-91543719D01*
X127909372Y-91527680D01*
X127807862Y-91387964D01*
X127807857Y-91387958D01*
X127652041Y-91232142D01*
X127473760Y-91102613D01*
X127277410Y-91002567D01*
X127067835Y-90934473D01*
X126850181Y-90900000D01*
X126629819Y-90900000D01*
X126412164Y-90934473D01*
X126202589Y-91002567D01*
X126006239Y-91102613D01*
X125827958Y-91232142D01*
X125672142Y-91387958D01*
X125672142Y-91387959D01*
X125570627Y-91527681D01*
X125515297Y-91570346D01*
X125445683Y-91576325D01*
X125383888Y-91543719D01*
X125369991Y-91527680D01*
X125268247Y-91387641D01*
X125268243Y-91387636D01*
X125112363Y-91231756D01*
X125112358Y-91231752D01*
X124934025Y-91102187D01*
X124934024Y-91102186D01*
X124934022Y-91102185D01*
X124871096Y-91070122D01*
X124737606Y-91002104D01*
X124737603Y-91002103D01*
X124527952Y-90933985D01*
X124419086Y-90916742D01*
X124310222Y-90899500D01*
X124089778Y-90899500D01*
X124017201Y-90910995D01*
X123872047Y-90933985D01*
X123662396Y-91002103D01*
X123662393Y-91002104D01*
X123465974Y-91102187D01*
X123287641Y-91231752D01*
X123287636Y-91231756D01*
X123131756Y-91387636D01*
X123131752Y-91387641D01*
X123030318Y-91527254D01*
X122974988Y-91569920D01*
X122905375Y-91575899D01*
X122843580Y-91543293D01*
X122829682Y-91527254D01*
X122728247Y-91387641D01*
X122728243Y-91387636D01*
X122572363Y-91231756D01*
X122572358Y-91231752D01*
X122394025Y-91102187D01*
X122394024Y-91102186D01*
X122394022Y-91102185D01*
X122331096Y-91070122D01*
X122197606Y-91002104D01*
X122197603Y-91002103D01*
X121987952Y-90933985D01*
X121879086Y-90916742D01*
X121770222Y-90899500D01*
X121549778Y-90899500D01*
X121477201Y-90910995D01*
X121332047Y-90933985D01*
X121122396Y-91002103D01*
X121122393Y-91002104D01*
X120925974Y-91102187D01*
X120747641Y-91231752D01*
X120747636Y-91231756D01*
X120591756Y-91387636D01*
X120591752Y-91387641D01*
X120462187Y-91565974D01*
X120362104Y-91762393D01*
X120362103Y-91762396D01*
X120293985Y-91972047D01*
X120277070Y-92078844D01*
X120259500Y-92189778D01*
X100300500Y-92189778D01*
X100300500Y-89921153D01*
X122199500Y-89921153D01*
X122199500Y-90078846D01*
X122230261Y-90233489D01*
X122230264Y-90233501D01*
X122290602Y-90379172D01*
X122290609Y-90379185D01*
X122378210Y-90510288D01*
X122378213Y-90510292D01*
X122489707Y-90621786D01*
X122489711Y-90621789D01*
X122620814Y-90709390D01*
X122620827Y-90709397D01*
X122766498Y-90769735D01*
X122766503Y-90769737D01*
X122921153Y-90800499D01*
X122921156Y-90800500D01*
X122921158Y-90800500D01*
X123078844Y-90800500D01*
X123078845Y-90800499D01*
X123233497Y-90769737D01*
X123379179Y-90709394D01*
X123510289Y-90621789D01*
X123621789Y-90510289D01*
X123709394Y-90379179D01*
X123769737Y-90233497D01*
X123800500Y-90078842D01*
X123800500Y-89921158D01*
X123800500Y-89921155D01*
X123800499Y-89921153D01*
X123769738Y-89766510D01*
X123769737Y-89766503D01*
X123709794Y-89621786D01*
X123709397Y-89620827D01*
X123709390Y-89620814D01*
X123621789Y-89489711D01*
X123621786Y-89489707D01*
X123510292Y-89378213D01*
X123510288Y-89378210D01*
X123379185Y-89290609D01*
X123379172Y-89290602D01*
X123233501Y-89230264D01*
X123233489Y-89230261D01*
X123078845Y-89199500D01*
X123078842Y-89199500D01*
X122921158Y-89199500D01*
X122921155Y-89199500D01*
X122766510Y-89230261D01*
X122766498Y-89230264D01*
X122620827Y-89290602D01*
X122620814Y-89290609D01*
X122489711Y-89378210D01*
X122489707Y-89378213D01*
X122378213Y-89489707D01*
X122378210Y-89489711D01*
X122290609Y-89620814D01*
X122290602Y-89620827D01*
X122230264Y-89766498D01*
X122230261Y-89766510D01*
X122199500Y-89921153D01*
X100300500Y-89921153D01*
X100300500Y-88921153D01*
X128699500Y-88921153D01*
X128699500Y-89078846D01*
X128730261Y-89233489D01*
X128730264Y-89233501D01*
X128790602Y-89379172D01*
X128790609Y-89379185D01*
X128878210Y-89510288D01*
X128878213Y-89510292D01*
X128989707Y-89621786D01*
X128989711Y-89621789D01*
X129120814Y-89709390D01*
X129120827Y-89709397D01*
X129258683Y-89766498D01*
X129266503Y-89769737D01*
X129421153Y-89800499D01*
X129421156Y-89800500D01*
X129421158Y-89800500D01*
X129578844Y-89800500D01*
X129578845Y-89800499D01*
X129733497Y-89769737D01*
X129879179Y-89709394D01*
X130010289Y-89621789D01*
X130121789Y-89510289D01*
X130209394Y-89379179D01*
X130269737Y-89233497D01*
X130300500Y-89078842D01*
X130300500Y-88921158D01*
X130300500Y-88921155D01*
X130300499Y-88921153D01*
X131199500Y-88921153D01*
X131199500Y-89078846D01*
X131230261Y-89233489D01*
X131230264Y-89233501D01*
X131290602Y-89379172D01*
X131290609Y-89379185D01*
X131378210Y-89510288D01*
X131378213Y-89510292D01*
X131489707Y-89621786D01*
X131489711Y-89621789D01*
X131620814Y-89709390D01*
X131620827Y-89709397D01*
X131758683Y-89766498D01*
X131766503Y-89769737D01*
X131921153Y-89800499D01*
X131921156Y-89800500D01*
X131921158Y-89800500D01*
X132078844Y-89800500D01*
X132078845Y-89800499D01*
X132233497Y-89769737D01*
X132379179Y-89709394D01*
X132510289Y-89621789D01*
X132621789Y-89510289D01*
X132709394Y-89379179D01*
X132769737Y-89233497D01*
X132800500Y-89078842D01*
X132800500Y-88921158D01*
X132800500Y-88921155D01*
X132800499Y-88921153D01*
X132769738Y-88766510D01*
X132769737Y-88766503D01*
X132769735Y-88766498D01*
X132709397Y-88620827D01*
X132709390Y-88620814D01*
X132621789Y-88489711D01*
X132621786Y-88489707D01*
X132510292Y-88378213D01*
X132510288Y-88378210D01*
X132379185Y-88290609D01*
X132379172Y-88290602D01*
X132233501Y-88230264D01*
X132233489Y-88230261D01*
X132078845Y-88199500D01*
X132078842Y-88199500D01*
X131921158Y-88199500D01*
X131921155Y-88199500D01*
X131766510Y-88230261D01*
X131766498Y-88230264D01*
X131620827Y-88290602D01*
X131620814Y-88290609D01*
X131489711Y-88378210D01*
X131489707Y-88378213D01*
X131378213Y-88489707D01*
X131378210Y-88489711D01*
X131290609Y-88620814D01*
X131290602Y-88620827D01*
X131230264Y-88766498D01*
X131230261Y-88766510D01*
X131199500Y-88921153D01*
X130300499Y-88921153D01*
X130269738Y-88766510D01*
X130269737Y-88766503D01*
X130269735Y-88766498D01*
X130209397Y-88620827D01*
X130209390Y-88620814D01*
X130121789Y-88489711D01*
X130121786Y-88489707D01*
X130010292Y-88378213D01*
X130010288Y-88378210D01*
X129879185Y-88290609D01*
X129879172Y-88290602D01*
X129733501Y-88230264D01*
X129733489Y-88230261D01*
X129578845Y-88199500D01*
X129578842Y-88199500D01*
X129421158Y-88199500D01*
X129421155Y-88199500D01*
X129266510Y-88230261D01*
X129266498Y-88230264D01*
X129120827Y-88290602D01*
X129120814Y-88290609D01*
X128989711Y-88378210D01*
X128989707Y-88378213D01*
X128878213Y-88489707D01*
X128878210Y-88489711D01*
X128790609Y-88620814D01*
X128790602Y-88620827D01*
X128730264Y-88766498D01*
X128730261Y-88766510D01*
X128699500Y-88921153D01*
X100300500Y-88921153D01*
X100300500Y-86378711D01*
X101649500Y-86378711D01*
X101649500Y-86621288D01*
X101681161Y-86861785D01*
X101743947Y-87096104D01*
X101800859Y-87233501D01*
X101836776Y-87320212D01*
X101958064Y-87530289D01*
X101958066Y-87530292D01*
X101958067Y-87530293D01*
X102105733Y-87722736D01*
X102105739Y-87722743D01*
X102277256Y-87894260D01*
X102277262Y-87894265D01*
X102469711Y-88041936D01*
X102679788Y-88163224D01*
X102903900Y-88256054D01*
X103138211Y-88318838D01*
X103318586Y-88342584D01*
X103378711Y-88350500D01*
X103378712Y-88350500D01*
X103621289Y-88350500D01*
X103669388Y-88344167D01*
X103861789Y-88318838D01*
X104096100Y-88256054D01*
X104320212Y-88163224D01*
X104530289Y-88041936D01*
X104722738Y-87894265D01*
X104894265Y-87722738D01*
X105041936Y-87530289D01*
X105163224Y-87320212D01*
X105256054Y-87096100D01*
X105302931Y-86921153D01*
X122699500Y-86921153D01*
X122699500Y-87078846D01*
X122730261Y-87233489D01*
X122730264Y-87233501D01*
X122790602Y-87379172D01*
X122790609Y-87379185D01*
X122878210Y-87510288D01*
X122878213Y-87510292D01*
X122989707Y-87621786D01*
X122989711Y-87621789D01*
X123120814Y-87709390D01*
X123120827Y-87709397D01*
X123266498Y-87769735D01*
X123266503Y-87769737D01*
X123421153Y-87800499D01*
X123421156Y-87800500D01*
X123421158Y-87800500D01*
X123578844Y-87800500D01*
X123578845Y-87800499D01*
X123733497Y-87769737D01*
X123879179Y-87709394D01*
X124010289Y-87621789D01*
X124121789Y-87510289D01*
X124209394Y-87379179D01*
X124269737Y-87233497D01*
X124300500Y-87078842D01*
X124300500Y-86921158D01*
X124300500Y-86921155D01*
X124300499Y-86921153D01*
X124282723Y-86831789D01*
X124269737Y-86766503D01*
X124250594Y-86720288D01*
X124209397Y-86620827D01*
X124209390Y-86620814D01*
X124121789Y-86489711D01*
X124121786Y-86489707D01*
X124010292Y-86378213D01*
X124010288Y-86378210D01*
X123879185Y-86290609D01*
X123879172Y-86290602D01*
X123756109Y-86239628D01*
X123756106Y-86239628D01*
X123733497Y-86230263D01*
X123733492Y-86230262D01*
X123733489Y-86230261D01*
X123578845Y-86199500D01*
X123578842Y-86199500D01*
X123421158Y-86199500D01*
X123421155Y-86199500D01*
X123266510Y-86230261D01*
X123266498Y-86230264D01*
X123120827Y-86290602D01*
X123120814Y-86290609D01*
X122989711Y-86378210D01*
X122989707Y-86378213D01*
X122878213Y-86489707D01*
X122878210Y-86489711D01*
X122790609Y-86620814D01*
X122790602Y-86620827D01*
X122730264Y-86766498D01*
X122730261Y-86766510D01*
X122699500Y-86921153D01*
X105302931Y-86921153D01*
X105318838Y-86861789D01*
X105350500Y-86621288D01*
X105350500Y-86378712D01*
X105318838Y-86138211D01*
X105316947Y-86131153D01*
X128489500Y-86131153D01*
X128489500Y-86288846D01*
X128520261Y-86443489D01*
X128520264Y-86443501D01*
X128580602Y-86589172D01*
X128580609Y-86589185D01*
X128668210Y-86720288D01*
X128668213Y-86720292D01*
X128779707Y-86831786D01*
X128779711Y-86831789D01*
X128910814Y-86919390D01*
X128910827Y-86919397D01*
X129056498Y-86979735D01*
X129056503Y-86979737D01*
X129211153Y-87010499D01*
X129211156Y-87010500D01*
X129211158Y-87010500D01*
X129368844Y-87010500D01*
X129368845Y-87010499D01*
X129523497Y-86979737D01*
X129636166Y-86933067D01*
X129669172Y-86919397D01*
X129669172Y-86919396D01*
X129669179Y-86919394D01*
X129800289Y-86831789D01*
X129911789Y-86720289D01*
X129999394Y-86589179D01*
X130059737Y-86443497D01*
X130072624Y-86378711D01*
X184649500Y-86378711D01*
X184649500Y-86621288D01*
X184681161Y-86861785D01*
X184743947Y-87096104D01*
X184800859Y-87233501D01*
X184836776Y-87320212D01*
X184958064Y-87530289D01*
X184958066Y-87530292D01*
X184958067Y-87530293D01*
X185105733Y-87722736D01*
X185105739Y-87722743D01*
X185277256Y-87894260D01*
X185277262Y-87894265D01*
X185469711Y-88041936D01*
X185679788Y-88163224D01*
X185903900Y-88256054D01*
X186138211Y-88318838D01*
X186318586Y-88342584D01*
X186378711Y-88350500D01*
X186378712Y-88350500D01*
X186621289Y-88350500D01*
X186669388Y-88344167D01*
X186861789Y-88318838D01*
X187096100Y-88256054D01*
X187320212Y-88163224D01*
X187530289Y-88041936D01*
X187722738Y-87894265D01*
X187894265Y-87722738D01*
X188041936Y-87530289D01*
X188163224Y-87320212D01*
X188256054Y-87096100D01*
X188318838Y-86861789D01*
X188350500Y-86621288D01*
X188350500Y-86378712D01*
X188318838Y-86138211D01*
X188256054Y-85903900D01*
X188163224Y-85679788D01*
X188041936Y-85469711D01*
X187894265Y-85277262D01*
X187894260Y-85277256D01*
X187722743Y-85105739D01*
X187722736Y-85105733D01*
X187530293Y-84958067D01*
X187530292Y-84958066D01*
X187530289Y-84958064D01*
X187358661Y-84858974D01*
X187320214Y-84836777D01*
X187320205Y-84836773D01*
X187096104Y-84743947D01*
X186861785Y-84681161D01*
X186621289Y-84649500D01*
X186621288Y-84649500D01*
X186378712Y-84649500D01*
X186378711Y-84649500D01*
X186138214Y-84681161D01*
X185903895Y-84743947D01*
X185679794Y-84836773D01*
X185679785Y-84836777D01*
X185469706Y-84958067D01*
X185277263Y-85105733D01*
X185277256Y-85105739D01*
X185105739Y-85277256D01*
X185105733Y-85277263D01*
X184958067Y-85469706D01*
X184836777Y-85679785D01*
X184836773Y-85679794D01*
X184743947Y-85903895D01*
X184681161Y-86138214D01*
X184649500Y-86378711D01*
X130072624Y-86378711D01*
X130090500Y-86288842D01*
X130090500Y-86131158D01*
X130090500Y-86131155D01*
X130090499Y-86131153D01*
X130059738Y-85976510D01*
X130059737Y-85976503D01*
X130019427Y-85879185D01*
X129999397Y-85830827D01*
X129999390Y-85830814D01*
X129911789Y-85699711D01*
X129911786Y-85699707D01*
X129800292Y-85588213D01*
X129800288Y-85588210D01*
X129669185Y-85500609D01*
X129669172Y-85500602D01*
X129523501Y-85440264D01*
X129523489Y-85440261D01*
X129368845Y-85409500D01*
X129368842Y-85409500D01*
X129211158Y-85409500D01*
X129211155Y-85409500D01*
X129056510Y-85440261D01*
X129056498Y-85440264D01*
X128910827Y-85500602D01*
X128910814Y-85500609D01*
X128779711Y-85588210D01*
X128779707Y-85588213D01*
X128668213Y-85699707D01*
X128668210Y-85699711D01*
X128580609Y-85830814D01*
X128580602Y-85830827D01*
X128520264Y-85976498D01*
X128520261Y-85976510D01*
X128489500Y-86131153D01*
X105316947Y-86131153D01*
X105256054Y-85903900D01*
X105163224Y-85679788D01*
X105041936Y-85469711D01*
X104894265Y-85277262D01*
X104894260Y-85277256D01*
X104722743Y-85105739D01*
X104722736Y-85105733D01*
X104530293Y-84958067D01*
X104530292Y-84958066D01*
X104530289Y-84958064D01*
X104358661Y-84858974D01*
X104320214Y-84836777D01*
X104320205Y-84836773D01*
X104096104Y-84743947D01*
X103861785Y-84681161D01*
X103621289Y-84649500D01*
X103621288Y-84649500D01*
X103378712Y-84649500D01*
X103378711Y-84649500D01*
X103138214Y-84681161D01*
X102903895Y-84743947D01*
X102679794Y-84836773D01*
X102679785Y-84836777D01*
X102469706Y-84958067D01*
X102277263Y-85105733D01*
X102277256Y-85105739D01*
X102105739Y-85277256D01*
X102105733Y-85277263D01*
X101958067Y-85469706D01*
X101836777Y-85679785D01*
X101836773Y-85679794D01*
X101743947Y-85903895D01*
X101681161Y-86138214D01*
X101649500Y-86378711D01*
X100300500Y-86378711D01*
X100300500Y-83921153D01*
X138699500Y-83921153D01*
X138699500Y-84078846D01*
X138730261Y-84233489D01*
X138730264Y-84233501D01*
X138790602Y-84379172D01*
X138790609Y-84379185D01*
X138878210Y-84510288D01*
X138878213Y-84510292D01*
X138989707Y-84621786D01*
X138989710Y-84621788D01*
X138989711Y-84621789D01*
X139015219Y-84638833D01*
X139027289Y-84646898D01*
X139072093Y-84700511D01*
X139080800Y-84769836D01*
X139050645Y-84832863D01*
X139027289Y-84853102D01*
X138989707Y-84878213D01*
X138878213Y-84989707D01*
X138878210Y-84989711D01*
X138790609Y-85120814D01*
X138790602Y-85120827D01*
X138730264Y-85266498D01*
X138730261Y-85266510D01*
X138699500Y-85421153D01*
X138699500Y-85578846D01*
X138730261Y-85733489D01*
X138730264Y-85733501D01*
X138790602Y-85879172D01*
X138790609Y-85879185D01*
X138878210Y-86010288D01*
X138878213Y-86010292D01*
X138989707Y-86121786D01*
X138989711Y-86121789D01*
X139120814Y-86209390D01*
X139120827Y-86209397D01*
X139266498Y-86269735D01*
X139266503Y-86269737D01*
X139421153Y-86300499D01*
X139421156Y-86300500D01*
X139421158Y-86300500D01*
X139578844Y-86300500D01*
X139578845Y-86300499D01*
X139733497Y-86269737D01*
X139745856Y-86264617D01*
X139756783Y-86260092D01*
X139879172Y-86209397D01*
X139879172Y-86209396D01*
X139879179Y-86209394D01*
X140010289Y-86121789D01*
X140121789Y-86010289D01*
X140209394Y-85879179D01*
X140269737Y-85733497D01*
X140300500Y-85578842D01*
X140300500Y-85421158D01*
X140300500Y-85421155D01*
X140300499Y-85421153D01*
X140269738Y-85266510D01*
X140269737Y-85266503D01*
X140269735Y-85266498D01*
X140209397Y-85120827D01*
X140209390Y-85120814D01*
X140121789Y-84989711D01*
X140121786Y-84989707D01*
X140010292Y-84878213D01*
X140010284Y-84878207D01*
X139972712Y-84853102D01*
X139927906Y-84799490D01*
X139919199Y-84730165D01*
X139949353Y-84667138D01*
X139972712Y-84646898D01*
X139999279Y-84629145D01*
X140010289Y-84621789D01*
X140121789Y-84510289D01*
X140209394Y-84379179D01*
X140269737Y-84233497D01*
X140300500Y-84078842D01*
X140300500Y-83921158D01*
X140300500Y-83921155D01*
X140300499Y-83921153D01*
X140269738Y-83766510D01*
X140269737Y-83766503D01*
X140209794Y-83621786D01*
X140209397Y-83620827D01*
X140209390Y-83620814D01*
X140121789Y-83489711D01*
X140121786Y-83489707D01*
X140010292Y-83378213D01*
X140010288Y-83378210D01*
X139879185Y-83290609D01*
X139879172Y-83290602D01*
X139733501Y-83230264D01*
X139733489Y-83230261D01*
X139578845Y-83199500D01*
X139578842Y-83199500D01*
X139421158Y-83199500D01*
X139421155Y-83199500D01*
X139266510Y-83230261D01*
X139266498Y-83230264D01*
X139120827Y-83290602D01*
X139120814Y-83290609D01*
X138989711Y-83378210D01*
X138989707Y-83378213D01*
X138878213Y-83489707D01*
X138878210Y-83489711D01*
X138790609Y-83620814D01*
X138790602Y-83620827D01*
X138730264Y-83766498D01*
X138730261Y-83766510D01*
X138699500Y-83921153D01*
X100300500Y-83921153D01*
X100300500Y-82921153D01*
X129699500Y-82921153D01*
X129699500Y-83078846D01*
X129730261Y-83233489D01*
X129730264Y-83233501D01*
X129790602Y-83379172D01*
X129790609Y-83379185D01*
X129878210Y-83510288D01*
X129878213Y-83510292D01*
X129989707Y-83621786D01*
X129989711Y-83621789D01*
X130120814Y-83709390D01*
X130120827Y-83709397D01*
X130258683Y-83766498D01*
X130266503Y-83769737D01*
X130421153Y-83800499D01*
X130421156Y-83800500D01*
X130421158Y-83800500D01*
X130578844Y-83800500D01*
X130578845Y-83800499D01*
X130589179Y-83798443D01*
X130614287Y-83793450D01*
X130614292Y-83793449D01*
X130699800Y-83776439D01*
X130733497Y-83769737D01*
X130879179Y-83709394D01*
X131010289Y-83621789D01*
X131121789Y-83510289D01*
X131209394Y-83379179D01*
X131269737Y-83233497D01*
X131300500Y-83078842D01*
X131300500Y-82921158D01*
X131300500Y-82921155D01*
X131300499Y-82921153D01*
X131269738Y-82766510D01*
X131269737Y-82766503D01*
X131269735Y-82766498D01*
X131209397Y-82620827D01*
X131209390Y-82620814D01*
X131121789Y-82489711D01*
X131121786Y-82489707D01*
X131010292Y-82378213D01*
X131010288Y-82378210D01*
X130879185Y-82290609D01*
X130879172Y-82290602D01*
X130733501Y-82230264D01*
X130733489Y-82230261D01*
X130578845Y-82199500D01*
X130578842Y-82199500D01*
X130421158Y-82199500D01*
X130421155Y-82199500D01*
X130266510Y-82230261D01*
X130266498Y-82230264D01*
X130120827Y-82290602D01*
X130120814Y-82290609D01*
X129989711Y-82378210D01*
X129989707Y-82378213D01*
X129878213Y-82489707D01*
X129878210Y-82489711D01*
X129790609Y-82620814D01*
X129790602Y-82620827D01*
X129730264Y-82766498D01*
X129730261Y-82766510D01*
X129699500Y-82921153D01*
X100300500Y-82921153D01*
X100300500Y-81373952D01*
X113246701Y-81373952D01*
X113246701Y-81531645D01*
X113277462Y-81686288D01*
X113277465Y-81686300D01*
X113337803Y-81831971D01*
X113337810Y-81831984D01*
X113425411Y-81963087D01*
X113425414Y-81963091D01*
X113536908Y-82074585D01*
X113536912Y-82074588D01*
X113668015Y-82162189D01*
X113668028Y-82162196D01*
X113813699Y-82222534D01*
X113813704Y-82222536D01*
X113968354Y-82253298D01*
X113968357Y-82253299D01*
X113968359Y-82253299D01*
X114126045Y-82253299D01*
X114126046Y-82253298D01*
X114280698Y-82222536D01*
X114426380Y-82162193D01*
X114557490Y-82074588D01*
X114668990Y-81963088D01*
X114756595Y-81831978D01*
X114816938Y-81686296D01*
X114847701Y-81531641D01*
X114847701Y-81373957D01*
X114847701Y-81373954D01*
X114847700Y-81373952D01*
X114816939Y-81219309D01*
X114816938Y-81219302D01*
X114816936Y-81219297D01*
X114756598Y-81073626D01*
X114756591Y-81073613D01*
X114676499Y-80953747D01*
X114655621Y-80887069D01*
X114674106Y-80819689D01*
X114726084Y-80772999D01*
X114732149Y-80770295D01*
X114733495Y-80769737D01*
X114733497Y-80769737D01*
X114797073Y-80743403D01*
X114879173Y-80709397D01*
X114879176Y-80709395D01*
X114879179Y-80709394D01*
X115010289Y-80621789D01*
X115121789Y-80510289D01*
X115129298Y-80499051D01*
X115146898Y-80472712D01*
X115200510Y-80427906D01*
X115269835Y-80419199D01*
X115332862Y-80449353D01*
X115353102Y-80472712D01*
X115378207Y-80510284D01*
X115378213Y-80510292D01*
X115489707Y-80621786D01*
X115489711Y-80621789D01*
X115620814Y-80709390D01*
X115620827Y-80709397D01*
X115766498Y-80769735D01*
X115766503Y-80769737D01*
X115921153Y-80800499D01*
X115921156Y-80800500D01*
X115921158Y-80800500D01*
X116078844Y-80800500D01*
X116078845Y-80800499D01*
X116233497Y-80769737D01*
X116379179Y-80709394D01*
X116510289Y-80621789D01*
X116621789Y-80510289D01*
X116709394Y-80379179D01*
X116769737Y-80233497D01*
X116800500Y-80078842D01*
X116800500Y-79921158D01*
X116800500Y-79921155D01*
X116800499Y-79921153D01*
X116769738Y-79766510D01*
X116769737Y-79766503D01*
X116750000Y-79718853D01*
X116709397Y-79620827D01*
X116709390Y-79620814D01*
X116621789Y-79489711D01*
X116621786Y-79489707D01*
X116510292Y-79378213D01*
X116510288Y-79378210D01*
X116379185Y-79290609D01*
X116379172Y-79290602D01*
X116233501Y-79230264D01*
X116233489Y-79230261D01*
X116078845Y-79199500D01*
X116078842Y-79199500D01*
X115921158Y-79199500D01*
X115921155Y-79199500D01*
X115766510Y-79230261D01*
X115766498Y-79230264D01*
X115620827Y-79290602D01*
X115620814Y-79290609D01*
X115489711Y-79378210D01*
X115489707Y-79378213D01*
X115378213Y-79489707D01*
X115353102Y-79527289D01*
X115299489Y-79572093D01*
X115230164Y-79580800D01*
X115167137Y-79550645D01*
X115146898Y-79527289D01*
X115121786Y-79489707D01*
X115010292Y-79378213D01*
X115010288Y-79378210D01*
X114879185Y-79290609D01*
X114879172Y-79290602D01*
X114733501Y-79230264D01*
X114733489Y-79230261D01*
X114578845Y-79199500D01*
X114578842Y-79199500D01*
X114421158Y-79199500D01*
X114421155Y-79199500D01*
X114266510Y-79230261D01*
X114266498Y-79230264D01*
X114120827Y-79290602D01*
X114120814Y-79290609D01*
X113989711Y-79378210D01*
X113989707Y-79378213D01*
X113878213Y-79489707D01*
X113878210Y-79489711D01*
X113790609Y-79620814D01*
X113790602Y-79620827D01*
X113730264Y-79766498D01*
X113730261Y-79766510D01*
X113699500Y-79921153D01*
X113699500Y-80078846D01*
X113730261Y-80233489D01*
X113730264Y-80233501D01*
X113790602Y-80379172D01*
X113790609Y-80379185D01*
X113870701Y-80499051D01*
X113891579Y-80565729D01*
X113873094Y-80633109D01*
X113821115Y-80679799D01*
X113815052Y-80682503D01*
X113668024Y-80743403D01*
X113668015Y-80743408D01*
X113536912Y-80831009D01*
X113536908Y-80831012D01*
X113425414Y-80942506D01*
X113425411Y-80942510D01*
X113337810Y-81073613D01*
X113337803Y-81073626D01*
X113277465Y-81219297D01*
X113277462Y-81219309D01*
X113246701Y-81373952D01*
X100300500Y-81373952D01*
X100300500Y-79873952D01*
X108746701Y-79873952D01*
X108746701Y-80031645D01*
X108777462Y-80186288D01*
X108777465Y-80186300D01*
X108837803Y-80331971D01*
X108837810Y-80331984D01*
X108925411Y-80463087D01*
X108925414Y-80463091D01*
X109036908Y-80574585D01*
X109036912Y-80574588D01*
X109168015Y-80662189D01*
X109168028Y-80662196D01*
X109281976Y-80709394D01*
X109313704Y-80722536D01*
X109468354Y-80753298D01*
X109468357Y-80753299D01*
X109468359Y-80753299D01*
X109626045Y-80753299D01*
X109626046Y-80753298D01*
X109780698Y-80722536D01*
X109926380Y-80662193D01*
X110057490Y-80574588D01*
X110168990Y-80463088D01*
X110256595Y-80331978D01*
X110316938Y-80186296D01*
X110347701Y-80031641D01*
X110347701Y-79873957D01*
X110347701Y-79873954D01*
X110347700Y-79873952D01*
X110316939Y-79719309D01*
X110316938Y-79719302D01*
X110276149Y-79620827D01*
X110256598Y-79573626D01*
X110256591Y-79573613D01*
X110168990Y-79442510D01*
X110168987Y-79442506D01*
X110057493Y-79331012D01*
X110057489Y-79331009D01*
X109926386Y-79243408D01*
X109926373Y-79243401D01*
X109780702Y-79183063D01*
X109780690Y-79183060D01*
X109626046Y-79152299D01*
X109626043Y-79152299D01*
X109468359Y-79152299D01*
X109468356Y-79152299D01*
X109313711Y-79183060D01*
X109313699Y-79183063D01*
X109168028Y-79243401D01*
X109168015Y-79243408D01*
X109036912Y-79331009D01*
X109036908Y-79331012D01*
X108925414Y-79442506D01*
X108925411Y-79442510D01*
X108837810Y-79573613D01*
X108837803Y-79573626D01*
X108777465Y-79719297D01*
X108777462Y-79719309D01*
X108746701Y-79873952D01*
X100300500Y-79873952D01*
X100300500Y-72907486D01*
X127824500Y-72907486D01*
X127824500Y-73092513D01*
X127853445Y-73275265D01*
X127910619Y-73451232D01*
X127910620Y-73451235D01*
X127938105Y-73505176D01*
X127994622Y-73616096D01*
X128103379Y-73765787D01*
X128234213Y-73896621D01*
X128383904Y-74005378D01*
X128437224Y-74032546D01*
X128548764Y-74089379D01*
X128548767Y-74089380D01*
X128636750Y-74117967D01*
X128724736Y-74146555D01*
X128907486Y-74175500D01*
X128907487Y-74175500D01*
X129092513Y-74175500D01*
X129092514Y-74175500D01*
X129275264Y-74146555D01*
X129451235Y-74089379D01*
X129616096Y-74005378D01*
X129765787Y-73896621D01*
X129896621Y-73765787D01*
X130005378Y-73616096D01*
X130089379Y-73451235D01*
X130132332Y-73319037D01*
X130171769Y-73261363D01*
X130236127Y-73234164D01*
X130304974Y-73246078D01*
X130356450Y-73293322D01*
X130368194Y-73319038D01*
X130411083Y-73451040D01*
X130411084Y-73451043D01*
X130495050Y-73615834D01*
X130510015Y-73636430D01*
X130510016Y-73636431D01*
X131017037Y-73129409D01*
X131034075Y-73192993D01*
X131099901Y-73307007D01*
X131192993Y-73400099D01*
X131307007Y-73465925D01*
X131370590Y-73482962D01*
X130863568Y-73989983D01*
X130863568Y-73989984D01*
X130884165Y-74004949D01*
X131048956Y-74088915D01*
X131048959Y-74088916D01*
X131224852Y-74146066D01*
X131407527Y-74175000D01*
X131592473Y-74175000D01*
X131775147Y-74146066D01*
X131951040Y-74088916D01*
X131951043Y-74088915D01*
X132115836Y-74004947D01*
X132115845Y-74004942D01*
X132136430Y-73989984D01*
X132136431Y-73989983D01*
X131629410Y-73482962D01*
X131692993Y-73465925D01*
X131807007Y-73400099D01*
X131900099Y-73307007D01*
X131965925Y-73192993D01*
X131982962Y-73129409D01*
X132489983Y-73636430D01*
X132489984Y-73636430D01*
X132504942Y-73615845D01*
X132504950Y-73615832D01*
X132590015Y-73448883D01*
X132637989Y-73398086D01*
X132705810Y-73381291D01*
X132771945Y-73403828D01*
X132815397Y-73458543D01*
X132824500Y-73505176D01*
X132824500Y-73722869D01*
X132824501Y-73722876D01*
X132830908Y-73782483D01*
X132881202Y-73917328D01*
X132881206Y-73917335D01*
X132967452Y-74032544D01*
X132967455Y-74032547D01*
X133082664Y-74118793D01*
X133082671Y-74118797D01*
X133217517Y-74169091D01*
X133217516Y-74169091D01*
X133224444Y-74169835D01*
X133277127Y-74175500D01*
X134722872Y-74175499D01*
X134782483Y-74169091D01*
X134917331Y-74118796D01*
X135032546Y-74032546D01*
X135118796Y-73917331D01*
X135169091Y-73782483D01*
X135175500Y-73722873D01*
X135175499Y-72907486D01*
X140824500Y-72907486D01*
X140824500Y-73092513D01*
X140853445Y-73275265D01*
X140910619Y-73451232D01*
X140910620Y-73451235D01*
X140938105Y-73505176D01*
X140994622Y-73616096D01*
X141103379Y-73765787D01*
X141234213Y-73896621D01*
X141383904Y-74005378D01*
X141437224Y-74032546D01*
X141548764Y-74089379D01*
X141548767Y-74089380D01*
X141636750Y-74117967D01*
X141724736Y-74146555D01*
X141907486Y-74175500D01*
X141907487Y-74175500D01*
X142092513Y-74175500D01*
X142092514Y-74175500D01*
X142275264Y-74146555D01*
X142451235Y-74089379D01*
X142616096Y-74005378D01*
X142765787Y-73896621D01*
X142896621Y-73765787D01*
X143005378Y-73616096D01*
X143089379Y-73451235D01*
X143132332Y-73319037D01*
X143171769Y-73261363D01*
X143236127Y-73234164D01*
X143304974Y-73246078D01*
X143356450Y-73293322D01*
X143368194Y-73319038D01*
X143411083Y-73451040D01*
X143411084Y-73451043D01*
X143495050Y-73615834D01*
X143510015Y-73636430D01*
X143510016Y-73636431D01*
X144017037Y-73129409D01*
X144034075Y-73192993D01*
X144099901Y-73307007D01*
X144192993Y-73400099D01*
X144307007Y-73465925D01*
X144370590Y-73482962D01*
X143863568Y-73989983D01*
X143863568Y-73989984D01*
X143884165Y-74004949D01*
X144048956Y-74088915D01*
X144048959Y-74088916D01*
X144224852Y-74146066D01*
X144407527Y-74175000D01*
X144592473Y-74175000D01*
X144775147Y-74146066D01*
X144951040Y-74088916D01*
X144951043Y-74088915D01*
X145115836Y-74004947D01*
X145115845Y-74004942D01*
X145136430Y-73989984D01*
X145136431Y-73989983D01*
X144629410Y-73482962D01*
X144692993Y-73465925D01*
X144807007Y-73400099D01*
X144900099Y-73307007D01*
X144965925Y-73192993D01*
X144982962Y-73129409D01*
X145489983Y-73636430D01*
X145489984Y-73636430D01*
X145504942Y-73615845D01*
X145504950Y-73615832D01*
X145590015Y-73448883D01*
X145637989Y-73398086D01*
X145705810Y-73381291D01*
X145771945Y-73403828D01*
X145815397Y-73458543D01*
X145824500Y-73505176D01*
X145824500Y-73722869D01*
X145824501Y-73722876D01*
X145830908Y-73782483D01*
X145881202Y-73917328D01*
X145881206Y-73917335D01*
X145967452Y-74032544D01*
X145967455Y-74032547D01*
X146082664Y-74118793D01*
X146082671Y-74118797D01*
X146217517Y-74169091D01*
X146217516Y-74169091D01*
X146224444Y-74169835D01*
X146277127Y-74175500D01*
X147722872Y-74175499D01*
X147782483Y-74169091D01*
X147917331Y-74118796D01*
X148032546Y-74032546D01*
X148118796Y-73917331D01*
X148118798Y-73917326D01*
X148125489Y-73899389D01*
X148169091Y-73782483D01*
X148170886Y-73765787D01*
X148175500Y-73722873D01*
X148175499Y-72907526D01*
X156325000Y-72907526D01*
X156325000Y-73092473D01*
X156353933Y-73275147D01*
X156411083Y-73451040D01*
X156411084Y-73451043D01*
X156495050Y-73615834D01*
X156510015Y-73636430D01*
X156510016Y-73636431D01*
X157017037Y-73129409D01*
X157034075Y-73192993D01*
X157099901Y-73307007D01*
X157192993Y-73400099D01*
X157307007Y-73465925D01*
X157370590Y-73482962D01*
X156863568Y-73989983D01*
X156863568Y-73989984D01*
X156884165Y-74004949D01*
X157048956Y-74088915D01*
X157048959Y-74088916D01*
X157224852Y-74146066D01*
X157407527Y-74175000D01*
X157592473Y-74175000D01*
X157775147Y-74146066D01*
X157951040Y-74088916D01*
X157951043Y-74088915D01*
X158115836Y-74004947D01*
X158115845Y-74004942D01*
X158136430Y-73989984D01*
X158136431Y-73989983D01*
X157629410Y-73482962D01*
X157692993Y-73465925D01*
X157807007Y-73400099D01*
X157900099Y-73307007D01*
X157965925Y-73192993D01*
X157982962Y-73129409D01*
X158489983Y-73636430D01*
X158489984Y-73636430D01*
X158504942Y-73615845D01*
X158504947Y-73615836D01*
X158588915Y-73451043D01*
X158588917Y-73451037D01*
X158631805Y-73319039D01*
X158671242Y-73261363D01*
X158735600Y-73234164D01*
X158804446Y-73246078D01*
X158855923Y-73293322D01*
X158867667Y-73319038D01*
X158910619Y-73451232D01*
X158910620Y-73451235D01*
X158938105Y-73505176D01*
X158994622Y-73616096D01*
X159103379Y-73765787D01*
X159234213Y-73896621D01*
X159383904Y-74005378D01*
X159437224Y-74032546D01*
X159548764Y-74089379D01*
X159548767Y-74089380D01*
X159636750Y-74117967D01*
X159724736Y-74146555D01*
X159907486Y-74175500D01*
X159907487Y-74175500D01*
X160092513Y-74175500D01*
X160092514Y-74175500D01*
X160275264Y-74146555D01*
X160451235Y-74089379D01*
X160616096Y-74005378D01*
X160765787Y-73896621D01*
X160896621Y-73765787D01*
X161005378Y-73616096D01*
X161089379Y-73451235D01*
X161132069Y-73319848D01*
X161171506Y-73262173D01*
X161235865Y-73234974D01*
X161304711Y-73246888D01*
X161356187Y-73294132D01*
X161367931Y-73319848D01*
X161410619Y-73451232D01*
X161410620Y-73451235D01*
X161438105Y-73505176D01*
X161494622Y-73616096D01*
X161603379Y-73765787D01*
X161734213Y-73896621D01*
X161883904Y-74005378D01*
X161937224Y-74032546D01*
X162048764Y-74089379D01*
X162048767Y-74089380D01*
X162136750Y-74117967D01*
X162224736Y-74146555D01*
X162407486Y-74175500D01*
X162407487Y-74175500D01*
X162592513Y-74175500D01*
X162592514Y-74175500D01*
X162775264Y-74146555D01*
X162951235Y-74089379D01*
X163116096Y-74005378D01*
X163265787Y-73896621D01*
X163396621Y-73765787D01*
X163505378Y-73616096D01*
X163589379Y-73451235D01*
X163589379Y-73451232D01*
X163590015Y-73449986D01*
X163637989Y-73399189D01*
X163705810Y-73382394D01*
X163771945Y-73404931D01*
X163815397Y-73459646D01*
X163824500Y-73506279D01*
X163824500Y-73722869D01*
X163824501Y-73722876D01*
X163830908Y-73782483D01*
X163881202Y-73917328D01*
X163881206Y-73917335D01*
X163967452Y-74032544D01*
X163967455Y-74032547D01*
X164082664Y-74118793D01*
X164082671Y-74118797D01*
X164217517Y-74169091D01*
X164217516Y-74169091D01*
X164224444Y-74169835D01*
X164277127Y-74175500D01*
X165722872Y-74175499D01*
X165782483Y-74169091D01*
X165917331Y-74118796D01*
X166032546Y-74032546D01*
X166118796Y-73917331D01*
X166118798Y-73917326D01*
X166125489Y-73899389D01*
X166169091Y-73782483D01*
X166170886Y-73765787D01*
X166175500Y-73722873D01*
X166175499Y-72907526D01*
X171825000Y-72907526D01*
X171825000Y-73092473D01*
X171853933Y-73275147D01*
X171911083Y-73451040D01*
X171911084Y-73451043D01*
X171995050Y-73615834D01*
X172010015Y-73636430D01*
X172010016Y-73636431D01*
X172517037Y-73129409D01*
X172534075Y-73192993D01*
X172599901Y-73307007D01*
X172692993Y-73400099D01*
X172807007Y-73465925D01*
X172870590Y-73482962D01*
X172363568Y-73989983D01*
X172363568Y-73989984D01*
X172384165Y-74004949D01*
X172548956Y-74088915D01*
X172548959Y-74088916D01*
X172724852Y-74146066D01*
X172907527Y-74175000D01*
X173092473Y-74175000D01*
X173275147Y-74146066D01*
X173451040Y-74088916D01*
X173451043Y-74088915D01*
X173615836Y-74004947D01*
X173615845Y-74004942D01*
X173636430Y-73989984D01*
X173636431Y-73989983D01*
X173129410Y-73482962D01*
X173192993Y-73465925D01*
X173307007Y-73400099D01*
X173400099Y-73307007D01*
X173465925Y-73192993D01*
X173482962Y-73129409D01*
X173989983Y-73636430D01*
X173989984Y-73636430D01*
X174004942Y-73615845D01*
X174004947Y-73615836D01*
X174088915Y-73451043D01*
X174088917Y-73451037D01*
X174131805Y-73319039D01*
X174171242Y-73261363D01*
X174235600Y-73234164D01*
X174304446Y-73246078D01*
X174355923Y-73293322D01*
X174367667Y-73319038D01*
X174410619Y-73451232D01*
X174410620Y-73451235D01*
X174438105Y-73505176D01*
X174494622Y-73616096D01*
X174603379Y-73765787D01*
X174734213Y-73896621D01*
X174883904Y-74005378D01*
X174937224Y-74032546D01*
X175048764Y-74089379D01*
X175048767Y-74089380D01*
X175136750Y-74117967D01*
X175224736Y-74146555D01*
X175407486Y-74175500D01*
X175407487Y-74175500D01*
X175592513Y-74175500D01*
X175592514Y-74175500D01*
X175775264Y-74146555D01*
X175951235Y-74089379D01*
X176116096Y-74005378D01*
X176265787Y-73896621D01*
X176396621Y-73765787D01*
X176505378Y-73616096D01*
X176589379Y-73451235D01*
X176632069Y-73319848D01*
X176671506Y-73262173D01*
X176735865Y-73234974D01*
X176804711Y-73246888D01*
X176856187Y-73294132D01*
X176867931Y-73319848D01*
X176910619Y-73451232D01*
X176910620Y-73451235D01*
X176938105Y-73505176D01*
X176994622Y-73616096D01*
X177103379Y-73765787D01*
X177234213Y-73896621D01*
X177383904Y-74005378D01*
X177437224Y-74032546D01*
X177548764Y-74089379D01*
X177548767Y-74089380D01*
X177636750Y-74117967D01*
X177724736Y-74146555D01*
X177907486Y-74175500D01*
X177907487Y-74175500D01*
X178092513Y-74175500D01*
X178092514Y-74175500D01*
X178275264Y-74146555D01*
X178451235Y-74089379D01*
X178616096Y-74005378D01*
X178765787Y-73896621D01*
X178896621Y-73765787D01*
X179005378Y-73616096D01*
X179089379Y-73451235D01*
X179089379Y-73451232D01*
X179090015Y-73449986D01*
X179137989Y-73399189D01*
X179205810Y-73382394D01*
X179271945Y-73404931D01*
X179315397Y-73459646D01*
X179324500Y-73506279D01*
X179324500Y-73722869D01*
X179324501Y-73722876D01*
X179330908Y-73782483D01*
X179381202Y-73917328D01*
X179381206Y-73917335D01*
X179467452Y-74032544D01*
X179467455Y-74032547D01*
X179582664Y-74118793D01*
X179582671Y-74118797D01*
X179717517Y-74169091D01*
X179717516Y-74169091D01*
X179724444Y-74169835D01*
X179777127Y-74175500D01*
X181222872Y-74175499D01*
X181282483Y-74169091D01*
X181417331Y-74118796D01*
X181532546Y-74032546D01*
X181618796Y-73917331D01*
X181669091Y-73782483D01*
X181675500Y-73722873D01*
X181675499Y-72277128D01*
X181669091Y-72217517D01*
X181626520Y-72103379D01*
X181618797Y-72082671D01*
X181618793Y-72082664D01*
X181532547Y-71967455D01*
X181532544Y-71967452D01*
X181417335Y-71881206D01*
X181417328Y-71881202D01*
X181282482Y-71830908D01*
X181282483Y-71830908D01*
X181222883Y-71824501D01*
X181222881Y-71824500D01*
X181222873Y-71824500D01*
X181222864Y-71824500D01*
X179777129Y-71824500D01*
X179777123Y-71824501D01*
X179717516Y-71830908D01*
X179582671Y-71881202D01*
X179582664Y-71881206D01*
X179467455Y-71967452D01*
X179467452Y-71967455D01*
X179381206Y-72082664D01*
X179381202Y-72082671D01*
X179330908Y-72217517D01*
X179324501Y-72277116D01*
X179324501Y-72277123D01*
X179324500Y-72277135D01*
X179324500Y-72493718D01*
X179304815Y-72560757D01*
X179252011Y-72606512D01*
X179182853Y-72616456D01*
X179119297Y-72587431D01*
X179090015Y-72550013D01*
X179005512Y-72384167D01*
X179005378Y-72383904D01*
X178896621Y-72234213D01*
X178765787Y-72103379D01*
X178616096Y-71994622D01*
X178562778Y-71967455D01*
X178451235Y-71910620D01*
X178451232Y-71910619D01*
X178275265Y-71853445D01*
X178132972Y-71830908D01*
X178092514Y-71824500D01*
X177907486Y-71824500D01*
X177867028Y-71830908D01*
X177724734Y-71853445D01*
X177548767Y-71910619D01*
X177548764Y-71910620D01*
X177383903Y-71994622D01*
X177298499Y-72056672D01*
X177234213Y-72103379D01*
X177234211Y-72103381D01*
X177234210Y-72103381D01*
X177103381Y-72234210D01*
X177103381Y-72234211D01*
X177103379Y-72234213D01*
X177072199Y-72277129D01*
X176994622Y-72383903D01*
X176910620Y-72548764D01*
X176910619Y-72548767D01*
X176867931Y-72680151D01*
X176828494Y-72737826D01*
X176764135Y-72765025D01*
X176695289Y-72753110D01*
X176643813Y-72705866D01*
X176632069Y-72680151D01*
X176589380Y-72548767D01*
X176589379Y-72548764D01*
X176505512Y-72384167D01*
X176505378Y-72383904D01*
X176396621Y-72234213D01*
X176265787Y-72103379D01*
X176116096Y-71994622D01*
X176062778Y-71967455D01*
X175951235Y-71910620D01*
X175951232Y-71910619D01*
X175775265Y-71853445D01*
X175632972Y-71830908D01*
X175592514Y-71824500D01*
X175407486Y-71824500D01*
X175367028Y-71830908D01*
X175224734Y-71853445D01*
X175048767Y-71910619D01*
X175048764Y-71910620D01*
X174883903Y-71994622D01*
X174798499Y-72056672D01*
X174734213Y-72103379D01*
X174734211Y-72103381D01*
X174734210Y-72103381D01*
X174603381Y-72234210D01*
X174603381Y-72234211D01*
X174603379Y-72234213D01*
X174572199Y-72277129D01*
X174494622Y-72383903D01*
X174410621Y-72548764D01*
X174367667Y-72680962D01*
X174328229Y-72738637D01*
X174263870Y-72765835D01*
X174195024Y-72753920D01*
X174143548Y-72706676D01*
X174131805Y-72680960D01*
X174088917Y-72548962D01*
X174088915Y-72548956D01*
X174004949Y-72384165D01*
X173989983Y-72363568D01*
X173482962Y-72870589D01*
X173465925Y-72807007D01*
X173400099Y-72692993D01*
X173307007Y-72599901D01*
X173192993Y-72534075D01*
X173129409Y-72517037D01*
X173636431Y-72010016D01*
X173636430Y-72010015D01*
X173615834Y-71995050D01*
X173451043Y-71911084D01*
X173451040Y-71911083D01*
X173275147Y-71853933D01*
X173092473Y-71825000D01*
X172907527Y-71825000D01*
X172724852Y-71853933D01*
X172548959Y-71911083D01*
X172548956Y-71911084D01*
X172384167Y-71995049D01*
X172363568Y-72010015D01*
X172870591Y-72517037D01*
X172807007Y-72534075D01*
X172692993Y-72599901D01*
X172599901Y-72692993D01*
X172534075Y-72807007D01*
X172517037Y-72870590D01*
X172010015Y-72363568D01*
X171995049Y-72384167D01*
X171911084Y-72548956D01*
X171911083Y-72548959D01*
X171853933Y-72724852D01*
X171825000Y-72907526D01*
X166175499Y-72907526D01*
X166175499Y-72277128D01*
X166169091Y-72217517D01*
X166169091Y-72217516D01*
X166125487Y-72100607D01*
X166118796Y-72082669D01*
X166118793Y-72082664D01*
X166032547Y-71967455D01*
X166032544Y-71967452D01*
X165917335Y-71881206D01*
X165917328Y-71881202D01*
X165782482Y-71830908D01*
X165782483Y-71830908D01*
X165722883Y-71824501D01*
X165722881Y-71824500D01*
X165722873Y-71824500D01*
X165722864Y-71824500D01*
X164277129Y-71824500D01*
X164277123Y-71824501D01*
X164217516Y-71830908D01*
X164082671Y-71881202D01*
X164082664Y-71881206D01*
X163967455Y-71967452D01*
X163967452Y-71967455D01*
X163881206Y-72082664D01*
X163881202Y-72082671D01*
X163830908Y-72217517D01*
X163824501Y-72277116D01*
X163824501Y-72277123D01*
X163824500Y-72277135D01*
X163824500Y-72493718D01*
X163804815Y-72560757D01*
X163752011Y-72606512D01*
X163682853Y-72616456D01*
X163619297Y-72587431D01*
X163590015Y-72550013D01*
X163505512Y-72384167D01*
X163505378Y-72383904D01*
X163396621Y-72234213D01*
X163265787Y-72103379D01*
X163116096Y-71994622D01*
X163062778Y-71967455D01*
X162951235Y-71910620D01*
X162951232Y-71910619D01*
X162775265Y-71853445D01*
X162632972Y-71830908D01*
X162592514Y-71824500D01*
X162407486Y-71824500D01*
X162367028Y-71830908D01*
X162224734Y-71853445D01*
X162048767Y-71910619D01*
X162048764Y-71910620D01*
X161883903Y-71994622D01*
X161798499Y-72056672D01*
X161734213Y-72103379D01*
X161734211Y-72103381D01*
X161734210Y-72103381D01*
X161603381Y-72234210D01*
X161603381Y-72234211D01*
X161603379Y-72234213D01*
X161572199Y-72277129D01*
X161494622Y-72383903D01*
X161410620Y-72548764D01*
X161410619Y-72548767D01*
X161367931Y-72680151D01*
X161328494Y-72737826D01*
X161264135Y-72765025D01*
X161195289Y-72753110D01*
X161143813Y-72705866D01*
X161132069Y-72680151D01*
X161089380Y-72548767D01*
X161089379Y-72548764D01*
X161005512Y-72384167D01*
X161005378Y-72383904D01*
X160896621Y-72234213D01*
X160765787Y-72103379D01*
X160616096Y-71994622D01*
X160562778Y-71967455D01*
X160451235Y-71910620D01*
X160451232Y-71910619D01*
X160275265Y-71853445D01*
X160132972Y-71830908D01*
X160092514Y-71824500D01*
X159907486Y-71824500D01*
X159867028Y-71830908D01*
X159724734Y-71853445D01*
X159548767Y-71910619D01*
X159548764Y-71910620D01*
X159383903Y-71994622D01*
X159298499Y-72056672D01*
X159234213Y-72103379D01*
X159234211Y-72103381D01*
X159234210Y-72103381D01*
X159103381Y-72234210D01*
X159103381Y-72234211D01*
X159103379Y-72234213D01*
X159072199Y-72277129D01*
X158994622Y-72383903D01*
X158910621Y-72548764D01*
X158867667Y-72680962D01*
X158828229Y-72738637D01*
X158763870Y-72765835D01*
X158695024Y-72753920D01*
X158643548Y-72706676D01*
X158631805Y-72680960D01*
X158588917Y-72548962D01*
X158588915Y-72548956D01*
X158504949Y-72384165D01*
X158489983Y-72363568D01*
X157982962Y-72870589D01*
X157965925Y-72807007D01*
X157900099Y-72692993D01*
X157807007Y-72599901D01*
X157692993Y-72534075D01*
X157629409Y-72517037D01*
X158136431Y-72010016D01*
X158136430Y-72010015D01*
X158115834Y-71995050D01*
X157951043Y-71911084D01*
X157951040Y-71911083D01*
X157775147Y-71853933D01*
X157592473Y-71825000D01*
X157407527Y-71825000D01*
X157224852Y-71853933D01*
X157048959Y-71911083D01*
X157048956Y-71911084D01*
X156884167Y-71995049D01*
X156863568Y-72010015D01*
X157370591Y-72517037D01*
X157307007Y-72534075D01*
X157192993Y-72599901D01*
X157099901Y-72692993D01*
X157034075Y-72807007D01*
X157017037Y-72870590D01*
X156510015Y-72363568D01*
X156495049Y-72384167D01*
X156411084Y-72548956D01*
X156411083Y-72548959D01*
X156353933Y-72724852D01*
X156325000Y-72907526D01*
X148175499Y-72907526D01*
X148175499Y-72277128D01*
X148169091Y-72217517D01*
X148169091Y-72217516D01*
X148125487Y-72100607D01*
X148118796Y-72082669D01*
X148118793Y-72082664D01*
X148032547Y-71967455D01*
X148032544Y-71967452D01*
X147917335Y-71881206D01*
X147917328Y-71881202D01*
X147782482Y-71830908D01*
X147782483Y-71830908D01*
X147722883Y-71824501D01*
X147722881Y-71824500D01*
X147722873Y-71824500D01*
X147722864Y-71824500D01*
X146277129Y-71824500D01*
X146277123Y-71824501D01*
X146217516Y-71830908D01*
X146082671Y-71881202D01*
X146082664Y-71881206D01*
X145967455Y-71967452D01*
X145967452Y-71967455D01*
X145881206Y-72082664D01*
X145881202Y-72082671D01*
X145830908Y-72217517D01*
X145824501Y-72277116D01*
X145824501Y-72277123D01*
X145824500Y-72277135D01*
X145824500Y-72494820D01*
X145804815Y-72561859D01*
X145752011Y-72607614D01*
X145682853Y-72617558D01*
X145619297Y-72588533D01*
X145590015Y-72551115D01*
X145504949Y-72384165D01*
X145489983Y-72363568D01*
X144982962Y-72870589D01*
X144965925Y-72807007D01*
X144900099Y-72692993D01*
X144807007Y-72599901D01*
X144692993Y-72534075D01*
X144629409Y-72517037D01*
X145136431Y-72010016D01*
X145136430Y-72010015D01*
X145115834Y-71995050D01*
X144951043Y-71911084D01*
X144951040Y-71911083D01*
X144775147Y-71853933D01*
X144592473Y-71825000D01*
X144407527Y-71825000D01*
X144224852Y-71853933D01*
X144048959Y-71911083D01*
X144048956Y-71911084D01*
X143884167Y-71995049D01*
X143863568Y-72010015D01*
X144370591Y-72517037D01*
X144307007Y-72534075D01*
X144192993Y-72599901D01*
X144099901Y-72692993D01*
X144034075Y-72807007D01*
X144017037Y-72870590D01*
X143510015Y-72363568D01*
X143495049Y-72384167D01*
X143411084Y-72548956D01*
X143411083Y-72548959D01*
X143368194Y-72680961D01*
X143328757Y-72738637D01*
X143264398Y-72765835D01*
X143195552Y-72753920D01*
X143144076Y-72706676D01*
X143132332Y-72680961D01*
X143089380Y-72548767D01*
X143089379Y-72548764D01*
X143005512Y-72384167D01*
X143005378Y-72383904D01*
X142896621Y-72234213D01*
X142765787Y-72103379D01*
X142616096Y-71994622D01*
X142562778Y-71967455D01*
X142451235Y-71910620D01*
X142451232Y-71910619D01*
X142275265Y-71853445D01*
X142132972Y-71830908D01*
X142092514Y-71824500D01*
X141907486Y-71824500D01*
X141867028Y-71830908D01*
X141724734Y-71853445D01*
X141548767Y-71910619D01*
X141548764Y-71910620D01*
X141383903Y-71994622D01*
X141298499Y-72056672D01*
X141234213Y-72103379D01*
X141234211Y-72103381D01*
X141234210Y-72103381D01*
X141103381Y-72234210D01*
X141103381Y-72234211D01*
X141103379Y-72234213D01*
X141072199Y-72277129D01*
X140994622Y-72383903D01*
X140910620Y-72548764D01*
X140910619Y-72548767D01*
X140853445Y-72724734D01*
X140824500Y-72907486D01*
X135175499Y-72907486D01*
X135175499Y-72277128D01*
X135169091Y-72217517D01*
X135126520Y-72103379D01*
X135118797Y-72082671D01*
X135118793Y-72082664D01*
X135032547Y-71967455D01*
X135032544Y-71967452D01*
X134917335Y-71881206D01*
X134917328Y-71881202D01*
X134782482Y-71830908D01*
X134782483Y-71830908D01*
X134722883Y-71824501D01*
X134722881Y-71824500D01*
X134722873Y-71824500D01*
X134722864Y-71824500D01*
X133277129Y-71824500D01*
X133277123Y-71824501D01*
X133217516Y-71830908D01*
X133082671Y-71881202D01*
X133082664Y-71881206D01*
X132967455Y-71967452D01*
X132967452Y-71967455D01*
X132881206Y-72082664D01*
X132881202Y-72082671D01*
X132830908Y-72217517D01*
X132824501Y-72277116D01*
X132824501Y-72277123D01*
X132824500Y-72277135D01*
X132824500Y-72494820D01*
X132804815Y-72561859D01*
X132752011Y-72607614D01*
X132682853Y-72617558D01*
X132619297Y-72588533D01*
X132590015Y-72551115D01*
X132504949Y-72384165D01*
X132489983Y-72363568D01*
X131982962Y-72870589D01*
X131965925Y-72807007D01*
X131900099Y-72692993D01*
X131807007Y-72599901D01*
X131692993Y-72534075D01*
X131629409Y-72517037D01*
X132136431Y-72010016D01*
X132136430Y-72010015D01*
X132115834Y-71995050D01*
X131951043Y-71911084D01*
X131951040Y-71911083D01*
X131775147Y-71853933D01*
X131592473Y-71825000D01*
X131407527Y-71825000D01*
X131224852Y-71853933D01*
X131048959Y-71911083D01*
X131048956Y-71911084D01*
X130884167Y-71995049D01*
X130863568Y-72010015D01*
X131370591Y-72517037D01*
X131307007Y-72534075D01*
X131192993Y-72599901D01*
X131099901Y-72692993D01*
X131034075Y-72807007D01*
X131017037Y-72870590D01*
X130510015Y-72363568D01*
X130495049Y-72384167D01*
X130411084Y-72548956D01*
X130411083Y-72548959D01*
X130368194Y-72680961D01*
X130328757Y-72738637D01*
X130264398Y-72765835D01*
X130195552Y-72753920D01*
X130144076Y-72706676D01*
X130132332Y-72680961D01*
X130089380Y-72548767D01*
X130089379Y-72548764D01*
X130005512Y-72384167D01*
X130005378Y-72383904D01*
X129896621Y-72234213D01*
X129765787Y-72103379D01*
X129616096Y-71994622D01*
X129562778Y-71967455D01*
X129451235Y-71910620D01*
X129451232Y-71910619D01*
X129275265Y-71853445D01*
X129132972Y-71830908D01*
X129092514Y-71824500D01*
X128907486Y-71824500D01*
X128867028Y-71830908D01*
X128724734Y-71853445D01*
X128548767Y-71910619D01*
X128548764Y-71910620D01*
X128383903Y-71994622D01*
X128298499Y-72056672D01*
X128234213Y-72103379D01*
X128234211Y-72103381D01*
X128234210Y-72103381D01*
X128103381Y-72234210D01*
X128103381Y-72234211D01*
X128103379Y-72234213D01*
X128072199Y-72277129D01*
X127994622Y-72383903D01*
X127910620Y-72548764D01*
X127910619Y-72548767D01*
X127853445Y-72724734D01*
X127824500Y-72907486D01*
X100300500Y-72907486D01*
X100300500Y-69393713D01*
X106149500Y-69393713D01*
X106149500Y-69606286D01*
X106182753Y-69816239D01*
X106248444Y-70018414D01*
X106344951Y-70207820D01*
X106469890Y-70379786D01*
X106620213Y-70530109D01*
X106792179Y-70655048D01*
X106792181Y-70655049D01*
X106792184Y-70655051D01*
X106981588Y-70751557D01*
X107183757Y-70817246D01*
X107393713Y-70850500D01*
X107393714Y-70850500D01*
X107606286Y-70850500D01*
X107606287Y-70850500D01*
X107816243Y-70817246D01*
X108018412Y-70751557D01*
X108207816Y-70655051D01*
X108294138Y-70592335D01*
X108379786Y-70530109D01*
X108379788Y-70530106D01*
X108379792Y-70530104D01*
X108530104Y-70379792D01*
X108530106Y-70379788D01*
X108530109Y-70379786D01*
X108655048Y-70207820D01*
X108655047Y-70207820D01*
X108655051Y-70207816D01*
X108659514Y-70199054D01*
X108707488Y-70148259D01*
X108775308Y-70131463D01*
X108841444Y-70153999D01*
X108880486Y-70199056D01*
X108884951Y-70207820D01*
X109009890Y-70379786D01*
X109160213Y-70530109D01*
X109332179Y-70655048D01*
X109332181Y-70655049D01*
X109332184Y-70655051D01*
X109521588Y-70751557D01*
X109723757Y-70817246D01*
X109933713Y-70850500D01*
X109933714Y-70850500D01*
X110146286Y-70850500D01*
X110146287Y-70850500D01*
X110356243Y-70817246D01*
X110558412Y-70751557D01*
X110747816Y-70655051D01*
X110834138Y-70592335D01*
X110919786Y-70530109D01*
X110919788Y-70530106D01*
X110919792Y-70530104D01*
X111070104Y-70379792D01*
X111070106Y-70379788D01*
X111070109Y-70379786D01*
X111195048Y-70207820D01*
X111195047Y-70207820D01*
X111195051Y-70207816D01*
X111199514Y-70199054D01*
X111247488Y-70148259D01*
X111315308Y-70131463D01*
X111381444Y-70153999D01*
X111420486Y-70199056D01*
X111424951Y-70207820D01*
X111549890Y-70379786D01*
X111700213Y-70530109D01*
X111872179Y-70655048D01*
X111872181Y-70655049D01*
X111872184Y-70655051D01*
X112061588Y-70751557D01*
X112263757Y-70817246D01*
X112473713Y-70850500D01*
X112473714Y-70850500D01*
X112686286Y-70850500D01*
X112686287Y-70850500D01*
X112896243Y-70817246D01*
X113098412Y-70751557D01*
X113287816Y-70655051D01*
X113374138Y-70592335D01*
X113459786Y-70530109D01*
X113459788Y-70530106D01*
X113459792Y-70530104D01*
X113610104Y-70379792D01*
X113610106Y-70379788D01*
X113610109Y-70379786D01*
X113735048Y-70207820D01*
X113735047Y-70207820D01*
X113735051Y-70207816D01*
X113739514Y-70199054D01*
X113787488Y-70148259D01*
X113855308Y-70131463D01*
X113921444Y-70153999D01*
X113960486Y-70199056D01*
X113964951Y-70207820D01*
X114089890Y-70379786D01*
X114240213Y-70530109D01*
X114412179Y-70655048D01*
X114412181Y-70655049D01*
X114412184Y-70655051D01*
X114601588Y-70751557D01*
X114803757Y-70817246D01*
X115013713Y-70850500D01*
X115013714Y-70850500D01*
X115226286Y-70850500D01*
X115226287Y-70850500D01*
X115436243Y-70817246D01*
X115638412Y-70751557D01*
X115827816Y-70655051D01*
X115914138Y-70592335D01*
X115999786Y-70530109D01*
X115999788Y-70530106D01*
X115999792Y-70530104D01*
X116150104Y-70379792D01*
X116150106Y-70379788D01*
X116150109Y-70379786D01*
X116217515Y-70287007D01*
X116275051Y-70207816D01*
X116279793Y-70198508D01*
X116327763Y-70147711D01*
X116395583Y-70130911D01*
X116461719Y-70153445D01*
X116500763Y-70198500D01*
X116505373Y-70207547D01*
X116544728Y-70261716D01*
X117177037Y-69629408D01*
X117194075Y-69692993D01*
X117259901Y-69807007D01*
X117352993Y-69900099D01*
X117467007Y-69965925D01*
X117530590Y-69982962D01*
X116898282Y-70615269D01*
X116898282Y-70615270D01*
X116952449Y-70654624D01*
X117141782Y-70751095D01*
X117343870Y-70816757D01*
X117553754Y-70850000D01*
X117766246Y-70850000D01*
X117976127Y-70816757D01*
X117976130Y-70816757D01*
X118178217Y-70751095D01*
X118367554Y-70654622D01*
X118421716Y-70615270D01*
X118421717Y-70615270D01*
X117789408Y-69982962D01*
X117852993Y-69965925D01*
X117967007Y-69900099D01*
X118060099Y-69807007D01*
X118125925Y-69692993D01*
X118142962Y-69629409D01*
X118813181Y-70299628D01*
X118846666Y-70360951D01*
X118849500Y-70387300D01*
X118849500Y-70397865D01*
X118849501Y-70397876D01*
X118855908Y-70457483D01*
X118906202Y-70592328D01*
X118906206Y-70592335D01*
X118992452Y-70707544D01*
X118992455Y-70707547D01*
X119107664Y-70793793D01*
X119107671Y-70793797D01*
X119242517Y-70844091D01*
X119242516Y-70844091D01*
X119249444Y-70844835D01*
X119302127Y-70850500D01*
X121097872Y-70850499D01*
X121157483Y-70844091D01*
X121292331Y-70793796D01*
X121407546Y-70707546D01*
X121493796Y-70592331D01*
X121544091Y-70457483D01*
X121550500Y-70397873D01*
X121550499Y-68602128D01*
X121544091Y-68542517D01*
X121493796Y-68407669D01*
X121493795Y-68407668D01*
X121493793Y-68407664D01*
X121407547Y-68292455D01*
X121407544Y-68292452D01*
X121292335Y-68206206D01*
X121292328Y-68206202D01*
X121157482Y-68155908D01*
X121157483Y-68155908D01*
X121097883Y-68149501D01*
X121097881Y-68149500D01*
X121097873Y-68149500D01*
X121097864Y-68149500D01*
X119302129Y-68149500D01*
X119302123Y-68149501D01*
X119242516Y-68155908D01*
X119107671Y-68206202D01*
X119107664Y-68206206D01*
X118992455Y-68292452D01*
X118992452Y-68292455D01*
X118906206Y-68407664D01*
X118906202Y-68407671D01*
X118855908Y-68542517D01*
X118849501Y-68602116D01*
X118849501Y-68602123D01*
X118849500Y-68602135D01*
X118849500Y-68612690D01*
X118829815Y-68679729D01*
X118813181Y-68700371D01*
X118142962Y-69370590D01*
X118125925Y-69307007D01*
X118060099Y-69192993D01*
X117967007Y-69099901D01*
X117852993Y-69034075D01*
X117789409Y-69017037D01*
X118421716Y-68384728D01*
X118367550Y-68345375D01*
X118178217Y-68248904D01*
X117976129Y-68183242D01*
X117766246Y-68150000D01*
X117553754Y-68150000D01*
X117343872Y-68183242D01*
X117343869Y-68183242D01*
X117141782Y-68248904D01*
X116952439Y-68345380D01*
X116898282Y-68384727D01*
X116898282Y-68384728D01*
X117530591Y-69017037D01*
X117467007Y-69034075D01*
X117352993Y-69099901D01*
X117259901Y-69192993D01*
X117194075Y-69307007D01*
X117177037Y-69370591D01*
X116544728Y-68738282D01*
X116544727Y-68738282D01*
X116505380Y-68792440D01*
X116505376Y-68792446D01*
X116500760Y-68801505D01*
X116452781Y-68852297D01*
X116384959Y-68869087D01*
X116318826Y-68846543D01*
X116279794Y-68801493D01*
X116275051Y-68792184D01*
X116275049Y-68792181D01*
X116275048Y-68792179D01*
X116150109Y-68620213D01*
X115999786Y-68469890D01*
X115827820Y-68344951D01*
X115638414Y-68248444D01*
X115638413Y-68248443D01*
X115638412Y-68248443D01*
X115436243Y-68182754D01*
X115436241Y-68182753D01*
X115436240Y-68182753D01*
X115274957Y-68157208D01*
X115226287Y-68149500D01*
X115013713Y-68149500D01*
X114965042Y-68157208D01*
X114803760Y-68182753D01*
X114601585Y-68248444D01*
X114412179Y-68344951D01*
X114240213Y-68469890D01*
X114089890Y-68620213D01*
X113964949Y-68792182D01*
X113960484Y-68800946D01*
X113912509Y-68851742D01*
X113844688Y-68868536D01*
X113778553Y-68845998D01*
X113739516Y-68800946D01*
X113735050Y-68792182D01*
X113610109Y-68620213D01*
X113459786Y-68469890D01*
X113287820Y-68344951D01*
X113098414Y-68248444D01*
X113098413Y-68248443D01*
X113098412Y-68248443D01*
X112896243Y-68182754D01*
X112896241Y-68182753D01*
X112896240Y-68182753D01*
X112734957Y-68157208D01*
X112686287Y-68149500D01*
X112473713Y-68149500D01*
X112425042Y-68157208D01*
X112263760Y-68182753D01*
X112061585Y-68248444D01*
X111872179Y-68344951D01*
X111700213Y-68469890D01*
X111549890Y-68620213D01*
X111424949Y-68792182D01*
X111420484Y-68800946D01*
X111372509Y-68851742D01*
X111304688Y-68868536D01*
X111238553Y-68845998D01*
X111199516Y-68800946D01*
X111195050Y-68792182D01*
X111070109Y-68620213D01*
X110919786Y-68469890D01*
X110747820Y-68344951D01*
X110558414Y-68248444D01*
X110558413Y-68248443D01*
X110558412Y-68248443D01*
X110356243Y-68182754D01*
X110356241Y-68182753D01*
X110356240Y-68182753D01*
X110194957Y-68157208D01*
X110146287Y-68149500D01*
X109933713Y-68149500D01*
X109885042Y-68157208D01*
X109723760Y-68182753D01*
X109521585Y-68248444D01*
X109332179Y-68344951D01*
X109160213Y-68469890D01*
X109009890Y-68620213D01*
X108884949Y-68792182D01*
X108880484Y-68800946D01*
X108832509Y-68851742D01*
X108764688Y-68868536D01*
X108698553Y-68845998D01*
X108659516Y-68800946D01*
X108655050Y-68792182D01*
X108530109Y-68620213D01*
X108379786Y-68469890D01*
X108207820Y-68344951D01*
X108018414Y-68248444D01*
X108018413Y-68248443D01*
X108018412Y-68248443D01*
X107816243Y-68182754D01*
X107816241Y-68182753D01*
X107816240Y-68182753D01*
X107654957Y-68157208D01*
X107606287Y-68149500D01*
X107393713Y-68149500D01*
X107345042Y-68157208D01*
X107183760Y-68182753D01*
X106981585Y-68248444D01*
X106792179Y-68344951D01*
X106620213Y-68469890D01*
X106469890Y-68620213D01*
X106344951Y-68792179D01*
X106248444Y-68981585D01*
X106182753Y-69183760D01*
X106149500Y-69393713D01*
X100300500Y-69393713D01*
X100300500Y-64003051D01*
X100300649Y-63996967D01*
X100305408Y-63900099D01*
X100318015Y-63643465D01*
X100319208Y-63631358D01*
X100348458Y-63434174D01*
X100352417Y-63407486D01*
X127800250Y-63407486D01*
X127800250Y-63592514D01*
X127807357Y-63637386D01*
X127829195Y-63775265D01*
X127886369Y-63951232D01*
X127886370Y-63951235D01*
X127913855Y-64005176D01*
X127970372Y-64116096D01*
X128079129Y-64265787D01*
X128209963Y-64396621D01*
X128359654Y-64505378D01*
X128412974Y-64532546D01*
X128524514Y-64589379D01*
X128524517Y-64589380D01*
X128612500Y-64617967D01*
X128700486Y-64646555D01*
X128883236Y-64675500D01*
X128883237Y-64675500D01*
X129068263Y-64675500D01*
X129068264Y-64675500D01*
X129251014Y-64646555D01*
X129426985Y-64589379D01*
X129591846Y-64505378D01*
X129741537Y-64396621D01*
X129872371Y-64265787D01*
X129981128Y-64116096D01*
X130065129Y-63951235D01*
X130108082Y-63819037D01*
X130147519Y-63761363D01*
X130211877Y-63734164D01*
X130280724Y-63746078D01*
X130332200Y-63793322D01*
X130343944Y-63819038D01*
X130386833Y-63951040D01*
X130386834Y-63951043D01*
X130470800Y-64115834D01*
X130485765Y-64136430D01*
X130485766Y-64136431D01*
X130992787Y-63629409D01*
X131009825Y-63692993D01*
X131075651Y-63807007D01*
X131168743Y-63900099D01*
X131282757Y-63965925D01*
X131346340Y-63982962D01*
X130839318Y-64489983D01*
X130839318Y-64489984D01*
X130859915Y-64504949D01*
X131024706Y-64588915D01*
X131024709Y-64588916D01*
X131200602Y-64646066D01*
X131383277Y-64675000D01*
X131568223Y-64675000D01*
X131750897Y-64646066D01*
X131926790Y-64588916D01*
X131926793Y-64588915D01*
X132091586Y-64504947D01*
X132091595Y-64504942D01*
X132112180Y-64489984D01*
X132112181Y-64489983D01*
X131605160Y-63982962D01*
X131668743Y-63965925D01*
X131782757Y-63900099D01*
X131875849Y-63807007D01*
X131941675Y-63692993D01*
X131958712Y-63629410D01*
X132465733Y-64136431D01*
X132465734Y-64136430D01*
X132480692Y-64115845D01*
X132480700Y-64115832D01*
X132565765Y-63948883D01*
X132613739Y-63898086D01*
X132681560Y-63881291D01*
X132747695Y-63903828D01*
X132791147Y-63958543D01*
X132800250Y-64005176D01*
X132800250Y-64222869D01*
X132800251Y-64222876D01*
X132806658Y-64282483D01*
X132856952Y-64417328D01*
X132856956Y-64417335D01*
X132943202Y-64532544D01*
X132943205Y-64532547D01*
X133058414Y-64618793D01*
X133058421Y-64618797D01*
X133193267Y-64669091D01*
X133193266Y-64669091D01*
X133200194Y-64669835D01*
X133252877Y-64675500D01*
X134698622Y-64675499D01*
X134758233Y-64669091D01*
X134893081Y-64618796D01*
X135008296Y-64532546D01*
X135094546Y-64417331D01*
X135144841Y-64282483D01*
X135151250Y-64222873D01*
X135151249Y-63407486D01*
X140800250Y-63407486D01*
X140800250Y-63592514D01*
X140807357Y-63637386D01*
X140829195Y-63775265D01*
X140886369Y-63951232D01*
X140886370Y-63951235D01*
X140913855Y-64005176D01*
X140970372Y-64116096D01*
X141079129Y-64265787D01*
X141209963Y-64396621D01*
X141359654Y-64505378D01*
X141412974Y-64532546D01*
X141524514Y-64589379D01*
X141524517Y-64589380D01*
X141612500Y-64617967D01*
X141700486Y-64646555D01*
X141883236Y-64675500D01*
X141883237Y-64675500D01*
X142068263Y-64675500D01*
X142068264Y-64675500D01*
X142251014Y-64646555D01*
X142426985Y-64589379D01*
X142591846Y-64505378D01*
X142741537Y-64396621D01*
X142872371Y-64265787D01*
X142981128Y-64116096D01*
X143065129Y-63951235D01*
X143108082Y-63819037D01*
X143147519Y-63761363D01*
X143211877Y-63734164D01*
X143280724Y-63746078D01*
X143332200Y-63793322D01*
X143343944Y-63819038D01*
X143386833Y-63951040D01*
X143386834Y-63951043D01*
X143470800Y-64115834D01*
X143485765Y-64136430D01*
X143485766Y-64136431D01*
X143992787Y-63629409D01*
X144009825Y-63692993D01*
X144075651Y-63807007D01*
X144168743Y-63900099D01*
X144282757Y-63965925D01*
X144346340Y-63982962D01*
X143839318Y-64489983D01*
X143839318Y-64489984D01*
X143859915Y-64504949D01*
X144024706Y-64588915D01*
X144024709Y-64588916D01*
X144200602Y-64646066D01*
X144383277Y-64675000D01*
X144568223Y-64675000D01*
X144750897Y-64646066D01*
X144926790Y-64588916D01*
X144926793Y-64588915D01*
X145091586Y-64504947D01*
X145091595Y-64504942D01*
X145112180Y-64489984D01*
X145112181Y-64489983D01*
X144605160Y-63982962D01*
X144668743Y-63965925D01*
X144782757Y-63900099D01*
X144875849Y-63807007D01*
X144941675Y-63692993D01*
X144958712Y-63629409D01*
X145465733Y-64136430D01*
X145465734Y-64136430D01*
X145480692Y-64115845D01*
X145480700Y-64115832D01*
X145565765Y-63948883D01*
X145613739Y-63898086D01*
X145681560Y-63881291D01*
X145747695Y-63903828D01*
X145791147Y-63958543D01*
X145800250Y-64005176D01*
X145800250Y-64222869D01*
X145800251Y-64222876D01*
X145806658Y-64282483D01*
X145856952Y-64417328D01*
X145856956Y-64417335D01*
X145943202Y-64532544D01*
X145943205Y-64532547D01*
X146058414Y-64618793D01*
X146058421Y-64618797D01*
X146193267Y-64669091D01*
X146193266Y-64669091D01*
X146200194Y-64669835D01*
X146252877Y-64675500D01*
X147698622Y-64675499D01*
X147758233Y-64669091D01*
X147893081Y-64618796D01*
X148008296Y-64532546D01*
X148094546Y-64417331D01*
X148094548Y-64417326D01*
X148101239Y-64399389D01*
X148144841Y-64282483D01*
X148146636Y-64265787D01*
X148151250Y-64222873D01*
X148151249Y-63407526D01*
X156325000Y-63407526D01*
X156325000Y-63592473D01*
X156353933Y-63775147D01*
X156411083Y-63951040D01*
X156411084Y-63951043D01*
X156495050Y-64115834D01*
X156510015Y-64136430D01*
X156510016Y-64136431D01*
X157017037Y-63629409D01*
X157034075Y-63692993D01*
X157099901Y-63807007D01*
X157192993Y-63900099D01*
X157307007Y-63965925D01*
X157370590Y-63982962D01*
X156863568Y-64489983D01*
X156863568Y-64489984D01*
X156884165Y-64504949D01*
X157048956Y-64588915D01*
X157048959Y-64588916D01*
X157224852Y-64646066D01*
X157407527Y-64675000D01*
X157592473Y-64675000D01*
X157775147Y-64646066D01*
X157951040Y-64588916D01*
X157951043Y-64588915D01*
X158115836Y-64504947D01*
X158115845Y-64504942D01*
X158136430Y-64489984D01*
X158136431Y-64489983D01*
X157629410Y-63982962D01*
X157692993Y-63965925D01*
X157807007Y-63900099D01*
X157900099Y-63807007D01*
X157965925Y-63692993D01*
X157982962Y-63629409D01*
X158489983Y-64136430D01*
X158489984Y-64136430D01*
X158504942Y-64115845D01*
X158504947Y-64115836D01*
X158588915Y-63951043D01*
X158588917Y-63951037D01*
X158631805Y-63819039D01*
X158671242Y-63761363D01*
X158735600Y-63734164D01*
X158804446Y-63746078D01*
X158855923Y-63793322D01*
X158867667Y-63819038D01*
X158910619Y-63951232D01*
X158910620Y-63951235D01*
X158938105Y-64005176D01*
X158994622Y-64116096D01*
X159103379Y-64265787D01*
X159234213Y-64396621D01*
X159383904Y-64505378D01*
X159437224Y-64532546D01*
X159548764Y-64589379D01*
X159548767Y-64589380D01*
X159636750Y-64617967D01*
X159724736Y-64646555D01*
X159907486Y-64675500D01*
X159907487Y-64675500D01*
X160092513Y-64675500D01*
X160092514Y-64675500D01*
X160275264Y-64646555D01*
X160451235Y-64589379D01*
X160616096Y-64505378D01*
X160765787Y-64396621D01*
X160896621Y-64265787D01*
X161005378Y-64116096D01*
X161089379Y-63951235D01*
X161132069Y-63819848D01*
X161171506Y-63762173D01*
X161235865Y-63734974D01*
X161304711Y-63746888D01*
X161356187Y-63794132D01*
X161367931Y-63819848D01*
X161410619Y-63951232D01*
X161410620Y-63951235D01*
X161438105Y-64005176D01*
X161494622Y-64116096D01*
X161603379Y-64265787D01*
X161734213Y-64396621D01*
X161883904Y-64505378D01*
X161937224Y-64532546D01*
X162048764Y-64589379D01*
X162048767Y-64589380D01*
X162136750Y-64617967D01*
X162224736Y-64646555D01*
X162407486Y-64675500D01*
X162407487Y-64675500D01*
X162592513Y-64675500D01*
X162592514Y-64675500D01*
X162775264Y-64646555D01*
X162951235Y-64589379D01*
X163116096Y-64505378D01*
X163265787Y-64396621D01*
X163396621Y-64265787D01*
X163505378Y-64116096D01*
X163589379Y-63951235D01*
X163589379Y-63951232D01*
X163590015Y-63949986D01*
X163637989Y-63899189D01*
X163705810Y-63882394D01*
X163771945Y-63904931D01*
X163815397Y-63959646D01*
X163824500Y-64006279D01*
X163824500Y-64222869D01*
X163824501Y-64222876D01*
X163830908Y-64282483D01*
X163881202Y-64417328D01*
X163881206Y-64417335D01*
X163967452Y-64532544D01*
X163967455Y-64532547D01*
X164082664Y-64618793D01*
X164082671Y-64618797D01*
X164217517Y-64669091D01*
X164217516Y-64669091D01*
X164224444Y-64669835D01*
X164277127Y-64675500D01*
X165722872Y-64675499D01*
X165782483Y-64669091D01*
X165917331Y-64618796D01*
X166032546Y-64532546D01*
X166118796Y-64417331D01*
X166118798Y-64417326D01*
X166125489Y-64399389D01*
X166169091Y-64282483D01*
X166170886Y-64265787D01*
X166175500Y-64222873D01*
X166175499Y-63407526D01*
X171825000Y-63407526D01*
X171825000Y-63592473D01*
X171853933Y-63775147D01*
X171911083Y-63951040D01*
X171911084Y-63951043D01*
X171995050Y-64115834D01*
X172010015Y-64136430D01*
X172010016Y-64136431D01*
X172517037Y-63629409D01*
X172534075Y-63692993D01*
X172599901Y-63807007D01*
X172692993Y-63900099D01*
X172807007Y-63965925D01*
X172870590Y-63982962D01*
X172363568Y-64489983D01*
X172363568Y-64489984D01*
X172384165Y-64504949D01*
X172548956Y-64588915D01*
X172548959Y-64588916D01*
X172724852Y-64646066D01*
X172907527Y-64675000D01*
X173092473Y-64675000D01*
X173275147Y-64646066D01*
X173451040Y-64588916D01*
X173451043Y-64588915D01*
X173615836Y-64504947D01*
X173615845Y-64504942D01*
X173636430Y-64489984D01*
X173636431Y-64489983D01*
X173129410Y-63982962D01*
X173192993Y-63965925D01*
X173307007Y-63900099D01*
X173400099Y-63807007D01*
X173465925Y-63692993D01*
X173482962Y-63629410D01*
X173989983Y-64136431D01*
X173989984Y-64136430D01*
X174004942Y-64115845D01*
X174004947Y-64115836D01*
X174088915Y-63951043D01*
X174088917Y-63951037D01*
X174131805Y-63819039D01*
X174171242Y-63761363D01*
X174235600Y-63734164D01*
X174304446Y-63746078D01*
X174355923Y-63793322D01*
X174367667Y-63819038D01*
X174410619Y-63951232D01*
X174410620Y-63951235D01*
X174438105Y-64005176D01*
X174494622Y-64116096D01*
X174603379Y-64265787D01*
X174734213Y-64396621D01*
X174883904Y-64505378D01*
X174937224Y-64532546D01*
X175048764Y-64589379D01*
X175048767Y-64589380D01*
X175136750Y-64617967D01*
X175224736Y-64646555D01*
X175407486Y-64675500D01*
X175407487Y-64675500D01*
X175592513Y-64675500D01*
X175592514Y-64675500D01*
X175775264Y-64646555D01*
X175951235Y-64589379D01*
X176116096Y-64505378D01*
X176265787Y-64396621D01*
X176396621Y-64265787D01*
X176505378Y-64116096D01*
X176589379Y-63951235D01*
X176632069Y-63819848D01*
X176671506Y-63762173D01*
X176735865Y-63734974D01*
X176804711Y-63746888D01*
X176856187Y-63794132D01*
X176867931Y-63819848D01*
X176910619Y-63951232D01*
X176910620Y-63951235D01*
X176938105Y-64005176D01*
X176994622Y-64116096D01*
X177103379Y-64265787D01*
X177234213Y-64396621D01*
X177383904Y-64505378D01*
X177437224Y-64532546D01*
X177548764Y-64589379D01*
X177548767Y-64589380D01*
X177636750Y-64617967D01*
X177724736Y-64646555D01*
X177907486Y-64675500D01*
X177907487Y-64675500D01*
X178092513Y-64675500D01*
X178092514Y-64675500D01*
X178275264Y-64646555D01*
X178451235Y-64589379D01*
X178616096Y-64505378D01*
X178765787Y-64396621D01*
X178896621Y-64265787D01*
X179005378Y-64116096D01*
X179089379Y-63951235D01*
X179089379Y-63951232D01*
X179090015Y-63949986D01*
X179137989Y-63899189D01*
X179205810Y-63882394D01*
X179271945Y-63904931D01*
X179315397Y-63959646D01*
X179324500Y-64006279D01*
X179324500Y-64222869D01*
X179324501Y-64222876D01*
X179330908Y-64282483D01*
X179381202Y-64417328D01*
X179381206Y-64417335D01*
X179467452Y-64532544D01*
X179467455Y-64532547D01*
X179582664Y-64618793D01*
X179582671Y-64618797D01*
X179717517Y-64669091D01*
X179717516Y-64669091D01*
X179724444Y-64669835D01*
X179777127Y-64675500D01*
X181222872Y-64675499D01*
X181282483Y-64669091D01*
X181417331Y-64618796D01*
X181532546Y-64532546D01*
X181618796Y-64417331D01*
X181669091Y-64282483D01*
X181675500Y-64222873D01*
X181675499Y-62777128D01*
X181669091Y-62717517D01*
X181626520Y-62603379D01*
X181618797Y-62582671D01*
X181618793Y-62582664D01*
X181532547Y-62467455D01*
X181532544Y-62467452D01*
X181417335Y-62381206D01*
X181417328Y-62381202D01*
X181282482Y-62330908D01*
X181282483Y-62330908D01*
X181222883Y-62324501D01*
X181222881Y-62324500D01*
X181222873Y-62324500D01*
X181222864Y-62324500D01*
X179777129Y-62324500D01*
X179777123Y-62324501D01*
X179717516Y-62330908D01*
X179582671Y-62381202D01*
X179582664Y-62381206D01*
X179467455Y-62467452D01*
X179467452Y-62467455D01*
X179381206Y-62582664D01*
X179381202Y-62582671D01*
X179330908Y-62717517D01*
X179324501Y-62777116D01*
X179324501Y-62777123D01*
X179324500Y-62777135D01*
X179324500Y-62993718D01*
X179304815Y-63060757D01*
X179252011Y-63106512D01*
X179182853Y-63116456D01*
X179119297Y-63087431D01*
X179090015Y-63050013D01*
X179026874Y-62926092D01*
X179005378Y-62883904D01*
X178896621Y-62734213D01*
X178765787Y-62603379D01*
X178616096Y-62494622D01*
X178562778Y-62467455D01*
X178451235Y-62410620D01*
X178451232Y-62410619D01*
X178275265Y-62353445D01*
X178132972Y-62330908D01*
X178092514Y-62324500D01*
X177907486Y-62324500D01*
X177867028Y-62330908D01*
X177724734Y-62353445D01*
X177548767Y-62410619D01*
X177548764Y-62410620D01*
X177383903Y-62494622D01*
X177298499Y-62556672D01*
X177234213Y-62603379D01*
X177234211Y-62603381D01*
X177234210Y-62603381D01*
X177103381Y-62734210D01*
X177103381Y-62734211D01*
X177103379Y-62734213D01*
X177072199Y-62777129D01*
X176994622Y-62883903D01*
X176910620Y-63048764D01*
X176910619Y-63048767D01*
X176867931Y-63180151D01*
X176828494Y-63237826D01*
X176764135Y-63265025D01*
X176695289Y-63253110D01*
X176643813Y-63205866D01*
X176632069Y-63180151D01*
X176589380Y-63048767D01*
X176589379Y-63048764D01*
X176526874Y-62926092D01*
X176505378Y-62883904D01*
X176396621Y-62734213D01*
X176265787Y-62603379D01*
X176116096Y-62494622D01*
X176062778Y-62467455D01*
X175951235Y-62410620D01*
X175951232Y-62410619D01*
X175775265Y-62353445D01*
X175632972Y-62330908D01*
X175592514Y-62324500D01*
X175407486Y-62324500D01*
X175367028Y-62330908D01*
X175224734Y-62353445D01*
X175048767Y-62410619D01*
X175048764Y-62410620D01*
X174883903Y-62494622D01*
X174798499Y-62556672D01*
X174734213Y-62603379D01*
X174734211Y-62603381D01*
X174734210Y-62603381D01*
X174603381Y-62734210D01*
X174603381Y-62734211D01*
X174603379Y-62734213D01*
X174572199Y-62777129D01*
X174494622Y-62883903D01*
X174410621Y-63048764D01*
X174367667Y-63180962D01*
X174328229Y-63238637D01*
X174263870Y-63265835D01*
X174195024Y-63253920D01*
X174143548Y-63206676D01*
X174131805Y-63180960D01*
X174088917Y-63048962D01*
X174088915Y-63048956D01*
X174004949Y-62884165D01*
X173989983Y-62863568D01*
X173482962Y-63370589D01*
X173465925Y-63307007D01*
X173400099Y-63192993D01*
X173307007Y-63099901D01*
X173192993Y-63034075D01*
X173129409Y-63017037D01*
X173636431Y-62510016D01*
X173636430Y-62510015D01*
X173615834Y-62495050D01*
X173451043Y-62411084D01*
X173451040Y-62411083D01*
X173275147Y-62353933D01*
X173092473Y-62325000D01*
X172907527Y-62325000D01*
X172724852Y-62353933D01*
X172548959Y-62411083D01*
X172548956Y-62411084D01*
X172384167Y-62495049D01*
X172363568Y-62510015D01*
X172870591Y-63017037D01*
X172807007Y-63034075D01*
X172692993Y-63099901D01*
X172599901Y-63192993D01*
X172534075Y-63307007D01*
X172517037Y-63370590D01*
X172010015Y-62863568D01*
X171995049Y-62884167D01*
X171911084Y-63048956D01*
X171911083Y-63048959D01*
X171853933Y-63224852D01*
X171825000Y-63407526D01*
X166175499Y-63407526D01*
X166175499Y-62777128D01*
X166169091Y-62717517D01*
X166137150Y-62631878D01*
X166125487Y-62600607D01*
X166118796Y-62582669D01*
X166118793Y-62582664D01*
X166032547Y-62467455D01*
X166032544Y-62467452D01*
X165917335Y-62381206D01*
X165917328Y-62381202D01*
X165782482Y-62330908D01*
X165782483Y-62330908D01*
X165722883Y-62324501D01*
X165722881Y-62324500D01*
X165722873Y-62324500D01*
X165722864Y-62324500D01*
X164277129Y-62324500D01*
X164277123Y-62324501D01*
X164217516Y-62330908D01*
X164082671Y-62381202D01*
X164082664Y-62381206D01*
X163967455Y-62467452D01*
X163967452Y-62467455D01*
X163881206Y-62582664D01*
X163881202Y-62582671D01*
X163830908Y-62717517D01*
X163824501Y-62777116D01*
X163824501Y-62777123D01*
X163824500Y-62777135D01*
X163824500Y-62993718D01*
X163804815Y-63060757D01*
X163752011Y-63106512D01*
X163682853Y-63116456D01*
X163619297Y-63087431D01*
X163590015Y-63050013D01*
X163526874Y-62926092D01*
X163505378Y-62883904D01*
X163396621Y-62734213D01*
X163265787Y-62603379D01*
X163116096Y-62494622D01*
X163062778Y-62467455D01*
X162951235Y-62410620D01*
X162951232Y-62410619D01*
X162775265Y-62353445D01*
X162632972Y-62330908D01*
X162592514Y-62324500D01*
X162407486Y-62324500D01*
X162367028Y-62330908D01*
X162224734Y-62353445D01*
X162048767Y-62410619D01*
X162048764Y-62410620D01*
X161883903Y-62494622D01*
X161798499Y-62556672D01*
X161734213Y-62603379D01*
X161734211Y-62603381D01*
X161734210Y-62603381D01*
X161603381Y-62734210D01*
X161603381Y-62734211D01*
X161603379Y-62734213D01*
X161572199Y-62777129D01*
X161494622Y-62883903D01*
X161410620Y-63048764D01*
X161410619Y-63048767D01*
X161367931Y-63180151D01*
X161328494Y-63237826D01*
X161264135Y-63265025D01*
X161195289Y-63253110D01*
X161143813Y-63205866D01*
X161132069Y-63180151D01*
X161089380Y-63048767D01*
X161089379Y-63048764D01*
X161026874Y-62926092D01*
X161005378Y-62883904D01*
X160896621Y-62734213D01*
X160765787Y-62603379D01*
X160616096Y-62494622D01*
X160562778Y-62467455D01*
X160451235Y-62410620D01*
X160451232Y-62410619D01*
X160275265Y-62353445D01*
X160132972Y-62330908D01*
X160092514Y-62324500D01*
X159907486Y-62324500D01*
X159867028Y-62330908D01*
X159724734Y-62353445D01*
X159548767Y-62410619D01*
X159548764Y-62410620D01*
X159383903Y-62494622D01*
X159298499Y-62556672D01*
X159234213Y-62603379D01*
X159234211Y-62603381D01*
X159234210Y-62603381D01*
X159103381Y-62734210D01*
X159103381Y-62734211D01*
X159103379Y-62734213D01*
X159072199Y-62777129D01*
X158994622Y-62883903D01*
X158910621Y-63048764D01*
X158867667Y-63180962D01*
X158828229Y-63238637D01*
X158763870Y-63265835D01*
X158695024Y-63253920D01*
X158643548Y-63206676D01*
X158631805Y-63180960D01*
X158588917Y-63048962D01*
X158588915Y-63048956D01*
X158504949Y-62884165D01*
X158489983Y-62863568D01*
X157982962Y-63370589D01*
X157965925Y-63307007D01*
X157900099Y-63192993D01*
X157807007Y-63099901D01*
X157692993Y-63034075D01*
X157629409Y-63017037D01*
X158136431Y-62510016D01*
X158136430Y-62510015D01*
X158115834Y-62495050D01*
X157951043Y-62411084D01*
X157951040Y-62411083D01*
X157775147Y-62353933D01*
X157592473Y-62325000D01*
X157407527Y-62325000D01*
X157224852Y-62353933D01*
X157048959Y-62411083D01*
X157048956Y-62411084D01*
X156884167Y-62495049D01*
X156863568Y-62510015D01*
X157370591Y-63017037D01*
X157307007Y-63034075D01*
X157192993Y-63099901D01*
X157099901Y-63192993D01*
X157034075Y-63307007D01*
X157017037Y-63370590D01*
X156510015Y-62863568D01*
X156495049Y-62884167D01*
X156411084Y-63048956D01*
X156411083Y-63048959D01*
X156353933Y-63224852D01*
X156325000Y-63407526D01*
X148151249Y-63407526D01*
X148151249Y-62777128D01*
X148144841Y-62717517D01*
X148112900Y-62631878D01*
X148101237Y-62600607D01*
X148094546Y-62582669D01*
X148094543Y-62582664D01*
X148008297Y-62467455D01*
X148008294Y-62467452D01*
X147893085Y-62381206D01*
X147893078Y-62381202D01*
X147758232Y-62330908D01*
X147758233Y-62330908D01*
X147698633Y-62324501D01*
X147698631Y-62324500D01*
X147698623Y-62324500D01*
X147698614Y-62324500D01*
X146252879Y-62324500D01*
X146252873Y-62324501D01*
X146193266Y-62330908D01*
X146058421Y-62381202D01*
X146058414Y-62381206D01*
X145943205Y-62467452D01*
X145943202Y-62467455D01*
X145856956Y-62582664D01*
X145856952Y-62582671D01*
X145806658Y-62717517D01*
X145800251Y-62777116D01*
X145800251Y-62777123D01*
X145800250Y-62777135D01*
X145800250Y-62994820D01*
X145780565Y-63061859D01*
X145727761Y-63107614D01*
X145658603Y-63117558D01*
X145595047Y-63088533D01*
X145565765Y-63051115D01*
X145480699Y-62884165D01*
X145465733Y-62863568D01*
X144958712Y-63370589D01*
X144941675Y-63307007D01*
X144875849Y-63192993D01*
X144782757Y-63099901D01*
X144668743Y-63034075D01*
X144605159Y-63017037D01*
X145112181Y-62510016D01*
X145112180Y-62510015D01*
X145091584Y-62495050D01*
X144926793Y-62411084D01*
X144926790Y-62411083D01*
X144750897Y-62353933D01*
X144568223Y-62325000D01*
X144383277Y-62325000D01*
X144200602Y-62353933D01*
X144024709Y-62411083D01*
X144024706Y-62411084D01*
X143859917Y-62495049D01*
X143839318Y-62510015D01*
X144346341Y-63017037D01*
X144282757Y-63034075D01*
X144168743Y-63099901D01*
X144075651Y-63192993D01*
X144009825Y-63307007D01*
X143992787Y-63370590D01*
X143485765Y-62863568D01*
X143470799Y-62884167D01*
X143386834Y-63048956D01*
X143386833Y-63048959D01*
X143343944Y-63180961D01*
X143304507Y-63238637D01*
X143240148Y-63265835D01*
X143171302Y-63253920D01*
X143119826Y-63206676D01*
X143108082Y-63180961D01*
X143065130Y-63048767D01*
X143065129Y-63048764D01*
X143002624Y-62926092D01*
X142981128Y-62883904D01*
X142872371Y-62734213D01*
X142741537Y-62603379D01*
X142591846Y-62494622D01*
X142538528Y-62467455D01*
X142426985Y-62410620D01*
X142426982Y-62410619D01*
X142251015Y-62353445D01*
X142108722Y-62330908D01*
X142068264Y-62324500D01*
X141883236Y-62324500D01*
X141842778Y-62330908D01*
X141700484Y-62353445D01*
X141524517Y-62410619D01*
X141524514Y-62410620D01*
X141359653Y-62494622D01*
X141274249Y-62556672D01*
X141209963Y-62603379D01*
X141209961Y-62603381D01*
X141209960Y-62603381D01*
X141079131Y-62734210D01*
X141079131Y-62734211D01*
X141079129Y-62734213D01*
X141047949Y-62777129D01*
X140970372Y-62883903D01*
X140886370Y-63048764D01*
X140886369Y-63048767D01*
X140829195Y-63224734D01*
X140821653Y-63272351D01*
X140800250Y-63407486D01*
X135151249Y-63407486D01*
X135151249Y-62777128D01*
X135144841Y-62717517D01*
X135102270Y-62603379D01*
X135094547Y-62582671D01*
X135094543Y-62582664D01*
X135008297Y-62467455D01*
X135008294Y-62467452D01*
X134893085Y-62381206D01*
X134893078Y-62381202D01*
X134758232Y-62330908D01*
X134758233Y-62330908D01*
X134698633Y-62324501D01*
X134698631Y-62324500D01*
X134698623Y-62324500D01*
X134698614Y-62324500D01*
X133252879Y-62324500D01*
X133252873Y-62324501D01*
X133193266Y-62330908D01*
X133058421Y-62381202D01*
X133058414Y-62381206D01*
X132943205Y-62467452D01*
X132943202Y-62467455D01*
X132856956Y-62582664D01*
X132856952Y-62582671D01*
X132806658Y-62717517D01*
X132800251Y-62777116D01*
X132800251Y-62777123D01*
X132800250Y-62777135D01*
X132800250Y-62994820D01*
X132780565Y-63061859D01*
X132727761Y-63107614D01*
X132658603Y-63117558D01*
X132595047Y-63088533D01*
X132565765Y-63051115D01*
X132480699Y-62884165D01*
X132465733Y-62863568D01*
X131958712Y-63370589D01*
X131941675Y-63307007D01*
X131875849Y-63192993D01*
X131782757Y-63099901D01*
X131668743Y-63034075D01*
X131605159Y-63017037D01*
X132112181Y-62510016D01*
X132112180Y-62510015D01*
X132091584Y-62495050D01*
X131926793Y-62411084D01*
X131926790Y-62411083D01*
X131750897Y-62353933D01*
X131568223Y-62325000D01*
X131383277Y-62325000D01*
X131200602Y-62353933D01*
X131024709Y-62411083D01*
X131024706Y-62411084D01*
X130859917Y-62495049D01*
X130839318Y-62510015D01*
X131346341Y-63017037D01*
X131282757Y-63034075D01*
X131168743Y-63099901D01*
X131075651Y-63192993D01*
X131009825Y-63307007D01*
X130992787Y-63370590D01*
X130485765Y-62863568D01*
X130470799Y-62884167D01*
X130386834Y-63048956D01*
X130386833Y-63048959D01*
X130343944Y-63180961D01*
X130304507Y-63238637D01*
X130240148Y-63265835D01*
X130171302Y-63253920D01*
X130119826Y-63206676D01*
X130108082Y-63180961D01*
X130065130Y-63048767D01*
X130065129Y-63048764D01*
X130002624Y-62926092D01*
X129981128Y-62883904D01*
X129872371Y-62734213D01*
X129741537Y-62603379D01*
X129591846Y-62494622D01*
X129538528Y-62467455D01*
X129426985Y-62410620D01*
X129426982Y-62410619D01*
X129251015Y-62353445D01*
X129108722Y-62330908D01*
X129068264Y-62324500D01*
X128883236Y-62324500D01*
X128842778Y-62330908D01*
X128700484Y-62353445D01*
X128524517Y-62410619D01*
X128524514Y-62410620D01*
X128359653Y-62494622D01*
X128274249Y-62556672D01*
X128209963Y-62603379D01*
X128209961Y-62603381D01*
X128209960Y-62603381D01*
X128079131Y-62734210D01*
X128079131Y-62734211D01*
X128079129Y-62734213D01*
X128047949Y-62777129D01*
X127970372Y-62883903D01*
X127886370Y-63048764D01*
X127886369Y-63048767D01*
X127829195Y-63224734D01*
X127821653Y-63272351D01*
X127800250Y-63407486D01*
X100352417Y-63407486D01*
X100370692Y-63284278D01*
X100373061Y-63272367D01*
X100458322Y-62931986D01*
X100461852Y-62920353D01*
X100474801Y-62884165D01*
X100580055Y-62589999D01*
X100584710Y-62578762D01*
X100664015Y-62411084D01*
X100734735Y-62261557D01*
X100740454Y-62250857D01*
X100920851Y-61949884D01*
X100927594Y-61939791D01*
X101136630Y-61657939D01*
X101144333Y-61648554D01*
X101379984Y-61388554D01*
X101388554Y-61379984D01*
X101648554Y-61144333D01*
X101657939Y-61136630D01*
X101939791Y-60927594D01*
X101949884Y-60920851D01*
X102250857Y-60740454D01*
X102261557Y-60734735D01*
X102578762Y-60584710D01*
X102589999Y-60580055D01*
X102920361Y-60461849D01*
X102931986Y-60458322D01*
X103272367Y-60373061D01*
X103284278Y-60370692D01*
X103631359Y-60319207D01*
X103643465Y-60318015D01*
X103996967Y-60300648D01*
X104003051Y-60300500D01*
X104047595Y-60300500D01*
X185952405Y-60300500D01*
X185996949Y-60300500D01*
X186003032Y-60300648D01*
G37*
%TD.AperFunction*%
%TD*%
M02*
